<svg xmlns="http://www.w3.org/2000/svg" viewBox="0 0 100 100">
  <circle cx="50" cy="50" r="50" fill="#ffffff"/>
  <path d="M 84.00 50.00 L 83.99 50.00 L 83.97 50.00 L 83.92 50.00 L 83.86 49.99 L 83.78 49.99 L 83.69 49.98 L 83.57 49.97 L 83.44 49.95 L 83.30 49.93 L 83.13 49.91 L 82.96 49.88 L 82.76 49.84 L 82.55 49.80 L 82.32 49.75 L 82.08 49.70 L 81.82 49.63 L 81.55 49.56 L 81.26 49.48 L 80.96 49.39 L 80.64 49.29 L 80.31 49.18 L 79.97 49.06 L 79.62 48.93 L 79.25 48.79 L 78.87 48.64 L 78.48 48.48 L 78.08 48.30 L 77.67 48.11 L 77.24 47.91 L 76.81 47.70 L 76.37 47.48 L 75.92 47.24 L 75.46 46.99 L 75.00 46.73 L 74.53 46.45 L 74.05 46.16 L 73.57 45.86 L 73.08 45.55 L 72.58 45.22 L 72.08 44.88 L 71.58 44.52 L 71.08 44.15 L 70.57 43.77 L 70.06 43.38 L 69.54 42.97 L 69.03 42.55 L 68.52 42.12 L 68.00 41.67 L 67.49 41.22 L 66.98 40.75 L 66.47 40.27 L 65.96 39.78 L 65.45 39.28 L 64.95 38.77 L 64.45 38.25 L 63.95 37.72 L 63.46 37.18 L 62.98 36.63 L 62.50 36.07 L 62.02 35.50 L 61.55 34.93 L 61.09 34.35 L 60.63 33.77 L 60.19 33.17 L 59.75 32.58 L 59.31 31.97 L 58.89 31.37 L 58.47 30.76 L 58.07 30.14 L 57.67 29.53 L 57.28 28.91 L 56.90 28.29 L 56.54 27.67 L 56.18 27.05 L 55.83 26.43 L 55.49 25.81 L 55.17 25.20 L 54.85 24.59 L 54.54 23.98 L 54.25 23.37 L 53.97 22.77 L 53.69 22.17 L 53.43 21.58 L 53.18 21.00 L 52.94 20.42 L 52.71 19.85 L 52.49 19.29 L 52.29 18.74 L 52.09 18.20 L 51.91 17.67 L 51.73 17.15 L 51.56 16.64 L 51.41 16.14 L 51.26 15.66 L 51.13 15.19 L 51.00 14.73 L 50.89 14.29 L 50.78 13.86 L 50.68 13.45 L 50.59 13.05 L 50.51 12.67 L 50.43 12.31 L 50.37 11.96 L 50.31 11.63 L 50.25 11.32 L 50.21 11.03 L 50.17 10.75 L 50.13 10.50 L 50.10 10.26 L 50.08 10.04 L 50.06 9.85 L 50.04 9.67 L 50.03 9.51 L 50.02 9.38 L 50.01 9.26 L 50.00 9.17 L 50.00 9.09 L 50.00 9.04 L 50.00 9.01 L 50.00 9.00 L 50.00 9.01 L 50.00 9.04 L 50.00 9.09 L 50.00 9.17 L 49.99 9.26 L 49.98 9.38 L 49.97 9.51 L 49.96 9.67 L 49.94 9.85 L 49.92 10.04 L 49.90 10.26 L 49.87 10.50 L 49.83 10.75 L 49.79 11.03 L 49.75 11.32 L 49.69 11.63 L 49.63 11.96 L 49.57 12.31 L 49.49 12.67 L 49.41 13.05 L 49.32 13.45 L 49.22 13.86 L 49.11 14.29 L 49.00 14.73 L 48.87 15.19 L 48.74 15.66 L 48.59 16.14 L 48.44 16.64 L 48.27 17.15 L 48.09 17.67 L 47.91 18.20 L 47.71 18.74 L 47.51 19.29 L 47.29 19.85 L 47.06 20.42 L 46.82 21.00 L 46.57 21.58 L 46.31 22.17 L 46.03 22.77 L 45.75 23.37 L 45.46 23.98 L 45.15 24.59 L 44.83 25.20 L 44.51 25.81 L 44.17 26.43 L 43.82 27.05 L 43.46 27.67 L 43.10 28.29 L 42.72 28.91 L 42.33 29.53 L 41.93 30.14 L 41.53 30.76 L 41.11 31.37 L 40.69 31.97 L 40.25 32.58 L 39.81 33.17 L 39.37 33.77 L 38.91 34.35 L 38.45 34.93 L 37.98 35.50 L 37.50 36.07 L 37.02 36.63 L 36.54 37.18 L 36.05 37.72 L 35.55 38.25 L 35.05 38.77 L 34.55 39.28 L 34.04 39.78 L 33.53 40.27 L 33.02 40.75 L 32.51 41.22 L 32.00 41.67 L 31.48 42.12 L 30.97 42.55 L 30.46 42.97 L 29.94 43.38 L 29.43 43.77 L 28.92 44.15 L 28.42 44.52 L 27.92 44.88 L 27.42 45.22 L 26.92 45.55 L 26.43 45.86 L 25.95 46.16 L 25.47 46.45 L 25.00 46.73 L 24.54 46.99 L 24.08 47.24 L 23.63 47.48 L 23.19 47.70 L 22.76 47.91 L 22.33 48.11 L 21.92 48.30 L 21.52 48.48 L 21.13 48.64 L 20.75 48.79 L 20.38 48.93 L 20.03 49.06 L 19.69 49.18 L 19.36 49.29 L 19.04 49.39 L 18.74 49.48 L 18.45 49.56 L 18.18 49.63 L 17.92 49.70 L 17.68 49.75 L 17.45 49.80 L 17.24 49.84 L 17.04 49.88 L 16.87 49.91 L 16.70 49.93 L 16.56 49.95 L 16.43 49.97 L 16.31 49.98 L 16.22 49.99 L 16.14 49.99 L 16.08 50.00 L 16.03 50.00 L 16.01 50.00 L 16.00 50.00 L 16.01 50.00 L 16.03 50.00 L 16.08 50.00 L 16.14 50.01 L 16.22 50.01 L 16.31 50.02 L 16.43 50.03 L 16.56 50.05 L 16.70 50.07 L 16.87 50.09 L 17.04 50.12 L 17.24 50.16 L 17.45 50.20 L 17.68 50.25 L 17.92 50.30 L 18.18 50.37 L 18.45 50.44 L 18.74 50.52 L 19.04 50.61 L 19.36 50.71 L 19.69 50.82 L 20.03 50.94 L 20.38 51.07 L 20.75 51.21 L 21.13 51.36 L 21.52 51.52 L 21.92 51.70 L 22.33 51.89 L 22.76 52.09 L 23.19 52.30 L 23.63 52.52 L 24.08 52.76 L 24.54 53.01 L 25.00 53.27 L 25.47 53.55 L 25.95 53.84 L 26.43 54.14 L 26.92 54.45 L 27.42 54.78 L 27.92 55.12 L 28.42 55.48 L 28.92 55.85 L 29.43 56.23 L 29.94 56.62 L 30.46 57.03 L 30.97 57.45 L 31.48 57.88 L 32.00 58.33 L 32.51 58.78 L 33.02 59.25 L 33.53 59.73 L 34.04 60.22 L 34.55 60.72 L 35.05 61.23 L 35.55 61.75 L 36.05 62.28 L 36.54 62.82 L 37.02 63.37 L 37.50 63.93 L 37.98 64.50 L 38.45 65.07 L 38.91 65.65 L 39.37 66.23 L 39.81 66.83 L 40.25 67.42 L 40.69 68.03 L 41.11 68.63 L 41.53 69.24 L 41.93 69.86 L 42.33 70.47 L 42.72 71.09 L 43.10 71.71 L 43.46 72.33 L 43.82 72.95 L 44.17 73.57 L 44.51 74.19 L 44.83 74.80 L 45.15 75.41 L 45.46 76.02 L 45.75 76.63 L 46.03 77.23 L 46.31 77.83 L 46.57 78.42 L 46.82 79.00 L 47.06 79.58 L 47.29 80.15 L 47.51 80.71 L 47.71 81.26 L 47.91 81.80 L 48.09 82.33 L 48.27 82.85 L 48.44 83.36 L 48.59 83.86 L 48.74 84.34 L 48.87 84.81 L 49.00 85.27 L 49.11 85.71 L 49.22 86.14 L 49.32 86.55 L 49.41 86.95 L 49.49 87.33 L 49.57 87.69 L 49.63 88.04 L 49.69 88.37 L 49.75 88.68 L 49.79 88.97 L 49.83 89.25 L 49.87 89.50 L 49.90 89.74 L 49.92 89.96 L 49.94 90.15 L 49.96 90.33 L 49.97 90.49 L 49.98 90.62 L 49.99 90.74 L 50.00 90.83 L 50.00 90.91 L 50.00 90.96 L 50.00 90.99 L 50.00 91.00 L 50.00 90.99 L 50.00 90.96 L 50.00 90.91 L 50.00 90.83 L 50.01 90.74 L 50.02 90.62 L 50.03 90.49 L 50.04 90.33 L 50.06 90.15 L 50.08 89.96 L 50.10 89.74 L 50.13 89.50 L 50.17 89.25 L 50.21 88.97 L 50.25 88.68 L 50.31 88.37 L 50.37 88.04 L 50.43 87.69 L 50.51 87.33 L 50.59 86.95 L 50.68 86.55 L 50.78 86.14 L 50.89 85.71 L 51.00 85.27 L 51.13 84.81 L 51.26 84.34 L 51.41 83.86 L 51.56 83.36 L 51.73 82.85 L 51.91 82.33 L 52.09 81.80 L 52.29 81.26 L 52.49 80.71 L 52.71 80.15 L 52.94 79.58 L 53.18 79.00 L 53.43 78.42 L 53.69 77.83 L 53.97 77.23 L 54.25 76.63 L 54.54 76.02 L 54.85 75.41 L 55.17 74.80 L 55.49 74.19 L 55.83 73.57 L 56.18 72.95 L 56.54 72.33 L 56.90 71.71 L 57.28 71.09 L 57.67 70.47 L 58.07 69.86 L 58.47 69.24 L 58.89 68.63 L 59.31 68.03 L 59.75 67.42 L 60.19 66.83 L 60.63 66.23 L 61.09 65.65 L 61.55 65.07 L 62.02 64.50 L 62.50 63.93 L 62.98 63.37 L 63.46 62.82 L 63.95 62.28 L 64.45 61.75 L 64.95 61.23 L 65.45 60.72 L 65.96 60.22 L 66.47 59.73 L 66.98 59.25 L 67.49 58.78 L 68.00 58.33 L 68.52 57.88 L 69.03 57.45 L 69.54 57.03 L 70.06 56.62 L 70.57 56.23 L 71.08 55.85 L 71.58 55.48 L 72.08 55.12 L 72.58 54.78 L 73.08 54.45 L 73.57 54.14 L 74.05 53.84 L 74.53 53.55 L 75.00 53.27 L 75.46 53.01 L 75.92 52.76 L 76.37 52.52 L 76.81 52.30 L 77.24 52.09 L 77.67 51.89 L 78.08 51.70 L 78.48 51.52 L 78.87 51.36 L 79.25 51.21 L 79.62 51.07 L 79.97 50.94 L 80.31 50.82 L 80.64 50.71 L 80.96 50.61 L 81.26 50.52 L 81.55 50.44 L 81.82 50.37 L 82.08 50.30 L 82.32 50.25 L 82.55 50.20 L 82.76 50.16 L 82.96 50.12 L 83.13 50.09 L 83.30 50.07 L 83.44 50.05 L 83.57 50.03 L 83.69 50.02 L 83.78 50.01 L 83.86 50.01 L 83.92 50.00 L 83.97 50.00 L 83.99 50.00 Z M 76.99 50.00 L 76.97 50.00 L 76.92 50.00 L 76.86 50.00 L 76.78 50.01 L 76.69 50.02 L 76.57 50.02 L 76.44 50.04 L 76.30 50.05 L 76.13 50.07 L 75.96 50.10 L 75.76 50.12 L 75.55 50.16 L 75.32 50.19 L 75.08 50.24 L 74.82 50.29 L 74.55 50.34 L 74.26 50.40 L 73.96 50.47 L 73.64 50.55 L 73.31 50.63 L 72.97 50.72 L 72.62 50.82 L 72.25 50.92 L 71.88 51.03 L 71.49 51.15 L 71.09 51.28 L 70.68 51.41 L 70.26 51.55 L 69.84 51.70 L 69.40 51.86 L 68.96 52.02 L 68.51 52.19 L 68.06 52.36 L 67.60 52.55 L 67.14 52.73 L 66.67 52.93 L 66.20 53.13 L 65.73 53.33 L 65.26 53.54 L 64.80 53.76 L 64.33 53.98 L 63.87 54.20 L 63.41 54.43 L 62.96 54.66 L 62.51 54.90 L 62.08 55.14 L 61.65 55.39 L 61.23 55.64 L 60.83 55.90 L 60.44 56.17 L 60.06 56.44 L 59.70 56.73 L 59.35 57.03 L 59.02 57.34 L 58.70 57.66 L 58.39 58.00 L 58.10 58.35 L 57.82 58.72 L 57.55 59.11 L 57.29 59.51 L 57.04 59.94 L 56.80 60.38 L 56.56 60.84 L 56.33 61.32 L 56.10 61.81 L 55.88 62.32 L 55.65 62.84 L 55.43 63.37 L 55.21 63.92 L 55.00 64.47 L 54.78 65.04 L 54.57 65.61 L 54.36 66.19 L 54.15 66.77 L 53.94 67.36 L 53.74 67.95 L 53.54 68.54 L 53.34 69.13 L 53.15 69.72 L 52.96 70.30 L 52.77 70.89 L 52.59 71.47 L 52.42 72.04 L 52.25 72.61 L 52.09 73.18 L 51.93 73.73 L 51.78 74.28 L 51.63 74.82 L 51.49 75.34 L 51.36 75.86 L 51.24 76.37 L 51.12 76.86 L 51.01 77.35 L 50.90 77.82 L 50.80 78.27 L 50.71 78.71 L 50.63 79.14 L 50.55 79.55 L 50.48 79.95 L 50.41 80.33 L 50.35 80.69 L 50.30 81.04 L 50.25 81.37 L 50.21 81.68 L 50.17 81.97 L 50.14 82.25 L 50.11 82.50 L 50.08 82.74 L 50.06 82.96 L 50.05 83.15 L 50.03 83.33 L 50.02 83.49 L 50.01 83.62 L 50.01 83.74 L 50.00 83.83 L 50.00 83.91 L 50.00 83.96 L 50.00 83.99 L 50.00 84.00 L 50.00 83.99 L 50.00 83.96 L 50.00 83.91 L 50.00 83.83 L 49.99 83.74 L 49.99 83.62 L 49.98 83.49 L 49.97 83.33 L 49.95 83.15 L 49.94 82.96 L 49.92 82.74 L 49.89 82.50 L 49.86 82.25 L 49.83 81.97 L 49.79 81.68 L 49.75 81.37 L 49.70 81.04 L 49.65 80.69 L 49.59 80.33 L 49.52 79.95 L 49.45 79.55 L 49.37 79.14 L 49.29 78.71 L 49.20 78.27 L 49.10 77.82 L 48.99 77.35 L 48.88 76.86 L 48.76 76.37 L 48.64 75.86 L 48.51 75.34 L 48.37 74.82 L 48.22 74.28 L 48.07 73.73 L 47.91 73.18 L 47.75 72.61 L 47.58 72.04 L 47.41 71.47 L 47.23 70.89 L 47.04 70.30 L 46.85 69.72 L 46.66 69.13 L 46.46 68.54 L 46.26 67.95 L 46.06 67.36 L 45.85 66.77 L 45.64 66.19 L 45.43 65.61 L 45.22 65.04 L 45.00 64.47 L 44.79 63.92 L 44.57 63.37 L 44.35 62.84 L 44.12 62.32 L 43.90 61.81 L 43.67 61.32 L 43.44 60.84 L 43.20 60.38 L 42.96 59.94 L 42.71 59.51 L 42.45 59.11 L 42.18 58.72 L 41.90 58.35 L 41.61 58.00 L 41.30 57.66 L 40.98 57.34 L 40.65 57.03 L 40.30 56.73 L 39.94 56.44 L 39.56 56.17 L 39.17 55.90 L 38.77 55.64 L 38.35 55.39 L 37.92 55.14 L 37.49 54.90 L 37.04 54.66 L 36.59 54.43 L 36.13 54.20 L 35.67 53.98 L 35.20 53.76 L 34.74 53.54 L 34.27 53.33 L 33.80 53.13 L 33.33 52.93 L 32.86 52.73 L 32.40 52.55 L 31.94 52.36 L 31.49 52.19 L 31.04 52.02 L 30.60 51.86 L 30.16 51.70 L 29.74 51.55 L 29.32 51.41 L 28.91 51.28 L 28.51 51.15 L 28.12 51.03 L 27.75 50.92 L 27.38 50.82 L 27.03 50.72 L 26.69 50.63 L 26.36 50.55 L 26.04 50.47 L 25.74 50.40 L 25.45 50.34 L 25.18 50.29 L 24.92 50.24 L 24.68 50.19 L 24.45 50.16 L 24.24 50.12 L 24.04 50.10 L 23.87 50.07 L 23.70 50.05 L 23.56 50.04 L 23.43 50.02 L 23.31 50.02 L 23.22 50.01 L 23.14 50.00 L 23.08 50.00 L 23.03 50.00 L 23.01 50.00 L 23.00 50.00 L 23.01 50.00 L 23.03 50.00 L 23.08 50.00 L 23.14 50.00 L 23.22 49.99 L 23.31 49.98 L 23.43 49.98 L 23.56 49.96 L 23.70 49.95 L 23.87 49.93 L 24.04 49.90 L 24.24 49.88 L 24.45 49.84 L 24.68 49.81 L 24.92 49.76 L 25.18 49.71 L 25.45 49.66 L 25.74 49.60 L 26.04 49.53 L 26.36 49.45 L 26.69 49.37 L 27.03 49.28 L 27.38 49.18 L 27.75 49.08 L 28.12 48.97 L 28.51 48.85 L 28.91 48.72 L 29.32 48.59 L 29.74 48.45 L 30.16 48.30 L 30.60 48.14 L 31.04 47.98 L 31.49 47.81 L 31.94 47.64 L 32.40 47.45 L 32.86 47.27 L 33.33 47.07 L 33.80 46.87 L 34.27 46.67 L 34.74 46.46 L 35.20 46.24 L 35.67 46.02 L 36.13 45.80 L 36.59 45.57 L 37.04 45.34 L 37.49 45.10 L 37.92 44.86 L 38.35 44.61 L 38.77 44.36 L 39.17 44.10 L 39.56 43.83 L 39.94 43.56 L 40.30 43.27 L 40.65 42.97 L 40.98 42.66 L 41.30 42.34 L 41.61 42.00 L 41.90 41.65 L 42.18 41.28 L 42.45 40.89 L 42.71 40.49 L 42.96 40.06 L 43.20 39.62 L 43.44 39.16 L 43.67 38.68 L 43.90 38.19 L 44.12 37.68 L 44.35 37.16 L 44.57 36.63 L 44.79 36.08 L 45.00 35.53 L 45.22 34.96 L 45.43 34.39 L 45.64 33.81 L 45.85 33.23 L 46.06 32.64 L 46.26 32.05 L 46.46 31.46 L 46.66 30.87 L 46.85 30.28 L 47.04 29.70 L 47.23 29.11 L 47.41 28.53 L 47.58 27.96 L 47.75 27.39 L 47.91 26.82 L 48.07 26.27 L 48.22 25.72 L 48.37 25.18 L 48.51 24.66 L 48.64 24.14 L 48.76 23.63 L 48.88 23.14 L 48.99 22.65 L 49.10 22.18 L 49.20 21.73 L 49.29 21.29 L 49.37 20.86 L 49.45 20.45 L 49.52 20.05 L 49.59 19.67 L 49.65 19.31 L 49.70 18.96 L 49.75 18.63 L 49.79 18.32 L 49.83 18.03 L 49.86 17.75 L 49.89 17.50 L 49.92 17.26 L 49.94 17.04 L 49.95 16.85 L 49.97 16.67 L 49.98 16.51 L 49.99 16.38 L 49.99 16.26 L 50.00 16.17 L 50.00 16.09 L 50.00 16.04 L 50.00 16.01 L 50.00 16.00 L 50.00 16.01 L 50.00 16.04 L 50.00 16.09 L 50.00 16.17 L 50.01 16.26 L 50.01 16.38 L 50.02 16.51 L 50.03 16.67 L 50.05 16.85 L 50.06 17.04 L 50.08 17.26 L 50.11 17.50 L 50.14 17.75 L 50.17 18.03 L 50.21 18.32 L 50.25 18.63 L 50.30 18.96 L 50.35 19.31 L 50.41 19.67 L 50.48 20.05 L 50.55 20.45 L 50.63 20.86 L 50.71 21.29 L 50.80 21.73 L 50.90 22.18 L 51.01 22.65 L 51.12 23.14 L 51.24 23.63 L 51.36 24.14 L 51.49 24.66 L 51.63 25.18 L 51.78 25.72 L 51.93 26.27 L 52.09 26.82 L 52.25 27.39 L 52.42 27.96 L 52.59 28.53 L 52.77 29.11 L 52.96 29.70 L 53.15 30.28 L 53.34 30.87 L 53.54 31.46 L 53.74 32.05 L 53.94 32.64 L 54.15 33.23 L 54.36 33.81 L 54.57 34.39 L 54.78 34.96 L 55.00 35.53 L 55.21 36.08 L 55.43 36.63 L 55.65 37.16 L 55.88 37.68 L 56.10 38.19 L 56.33 38.68 L 56.56 39.16 L 56.80 39.62 L 57.04 40.06 L 57.29 40.49 L 57.55 40.89 L 57.82 41.28 L 58.10 41.65 L 58.39 42.00 L 58.70 42.34 L 59.02 42.66 L 59.35 42.97 L 59.70 43.27 L 60.06 43.56 L 60.44 43.83 L 60.83 44.10 L 61.23 44.36 L 61.65 44.61 L 62.08 44.86 L 62.51 45.10 L 62.96 45.34 L 63.41 45.57 L 63.87 45.80 L 64.33 46.02 L 64.80 46.24 L 65.26 46.46 L 65.73 46.67 L 66.20 46.87 L 66.67 47.07 L 67.14 47.27 L 67.60 47.45 L 68.06 47.64 L 68.51 47.81 L 68.96 47.98 L 69.40 48.14 L 69.84 48.30 L 70.26 48.45 L 70.68 48.59 L 71.09 48.72 L 71.49 48.85 L 71.88 48.97 L 72.25 49.08 L 72.62 49.18 L 72.97 49.28 L 73.31 49.37 L 73.64 49.45 L 73.96 49.53 L 74.26 49.60 L 74.55 49.66 L 74.82 49.71 L 75.08 49.76 L 75.32 49.81 L 75.55 49.84 L 75.76 49.88 L 75.96 49.90 L 76.13 49.93 L 76.30 49.95 L 76.44 49.96 L 76.57 49.98 L 76.69 49.98 L 76.78 49.99 L 76.86 50.00 L 76.92 50.00 L 76.97 50.00 L 76.99 50.00 L 77.00 50.00 Z" fill="#0E9E5B" fill-rule="evenodd"/>
</svg>
