<svg xmlns="http://www.w3.org/2000/svg" width="1000" height="1000" viewBox="0 0 1000 1000">
<g transform="translate(1000,0) scale(-1,1)"><path d="M439.4,926.44L438.59,926.25L437.98,926.11L437.56,926.02L437.32,925.96L437.28,925.95L437.03,925.88L436.58,925.75L435.93,925.57L435.08,925.33L434.24,925.08L433.39,924.81L432.54,924.52L431.69,924.22L430.89,923.92L430.12,923.63L429.41,923.33L428.73,923.03L428.18,922.79L427.76,922.59L427.46,922.45L427.28,922.36L426.94,922.16L426.43,921.85L425.75,921.42L424.9,920.88L424.2,920.42L423.65,920.04L423.25,919.74L422.99,919.52L422.66,919.14L422.26,918.61L421.78,917.92L421.22,917.07L420.81,916.22L420.56,915.37L420.46,914.52L420.5,913.67L420.7,912.83L421.05,911.98L421.56,911.13L422.21,910.28L422.72,909.62L423.11,909.15L423.35,908.87L423.46,908.77L423.76,908.56L424.24,908.23L424.9,907.79L425.75,907.22L426.48,906.75L427.08,906.37L427.56,906.09L427.91,905.9L428.3,905.7L428.73,905.49L429.19,905.26L429.68,905.03L430.26,904.76L430.93,904.47L431.69,904.15L432.54,903.8L433.36,903.47L434.15,903.17L434.91,902.88L435.65,902.62L436.23,902.41L436.65,902.26L436.92,902.16L437.04,902.12L437.33,902.03L437.81,901.87L438.48,901.66L439.33,901.39L440.18,901.12L441.02,900.87L441.87,900.61L442.72,900.37L443.57,900.13L444.42,899.89L445.27,899.66L446.12,899.43L446.82,899.24L447.37,899.09L447.77,898.99L448.02,898.92L448.36,898.84L448.79,898.73L449.3,898.6L449.89,898.45L450.55,898.29L451.27,898.12L452.06,897.93L452.9,897.73L453.75,897.53L454.6,897.33L455.45,897.13L456.3,896.94L457.15,896.75L458,896.56L458.84,896.37L459.69,896.19L460.47,896.02L461.17,895.86L461.8,895.73L462.36,895.61L462.85,895.5L463.27,895.41L463.63,895.34L463.92,895.28L464.35,895.19L464.92,895.07L465.63,894.92L466.48,894.75L467.33,894.57L468.18,894.4L469.03,894.23L469.88,894.05L470.72,893.88L471.57,893.71L472.42,893.54L473.27,893.37L474.12,893.2L474.97,893.04L475.82,892.87L476.66,892.7L477.43,892.55L478.12,892.41L478.73,892.3L479.26,892.19L479.74,892.1L480.16,892.02L480.53,891.94L480.85,891.88L481.3,891.79L481.89,891.68L482.6,891.54L483.45,891.38L484.3,891.21L485.15,891.05L486,890.88L486.85,890.72L487.7,890.55L488.54,890.39L489.39,890.22L490.24,890.06L491.09,889.89L491.94,889.73L492.79,889.56L493.64,889.4L494.44,889.24L495.19,889.1L495.89,888.96L496.54,888.83L497.08,888.73L497.51,888.65L497.82,888.59L498.01,888.55L498.37,888.48L498.89,888.37L499.58,888.24L500.42,888.07L501.27,887.91L502.12,887.74L502.97,887.57L503.82,887.4L504.67,887.24L505.52,887.07L506.36,886.9L507.21,886.73L508.06,886.56L508.91,886.39L509.76,886.22L510.61,886.05L511.41,885.88L512.17,885.73L512.88,885.59L513.54,885.45L514.09,885.34L514.51,885.25L514.81,885.19L515,885.15L515.35,885.08L515.86,884.98L516.55,884.83L517.4,884.66L518.24,884.48L519.09,884.31L519.94,884.13L520.79,883.95L521.64,883.78L522.49,883.6L523.34,883.42L524.18,883.24L525.03,883.06L525.88,882.88L526.73,882.69L527.58,882.51L528.33,882.35L528.97,882.21L529.52,882.09L529.96,882L530.39,881.9L530.82,881.81L531.23,881.72L531.64,881.63L532.15,881.52L532.78,881.38L533.52,881.22L534.37,881.03L535.22,880.84L536.06,880.65L536.91,880.46L537.76,880.27L538.61,880.08L539.46,879.89L540.31,879.7L541.16,879.51L542,879.31L542.83,879.12L543.66,878.93L544.48,878.74L545.1,878.6L545.52,878.5L545.75,878.45L545.78,878.44L546.01,878.39L546.45,878.29L547.1,878.13L547.94,877.94L548.79,877.74L549.64,877.54L550.49,877.34L551.34,877.13L552.19,876.93L553.04,876.73L553.88,876.52L554.73,876.32L555.58,876.11L556.43,875.91L557.28,875.7L558.13,875.49L558.79,875.33L559.28,875.21L559.58,875.14L559.7,875.11L559.97,875.04L560.39,874.94L560.97,874.79L561.7,874.61L562.46,874.42L563.25,874.23L564.07,874.02L564.92,873.81L565.76,873.6L566.61,873.38L567.46,873.17L568.31,872.95L569.16,872.73L570.01,872.52L570.86,872.3L571.7,872.08L572.36,871.91L572.82,871.79L573.1,871.72L573.17,871.7L573.43,871.64L573.85,871.53L574.45,871.37L575.22,871.17L576.01,870.96L576.81,870.75L577.64,870.54L578.49,870.31L579.34,870.09L580.19,869.86L581.04,869.64L581.89,869.41L582.71,869.2L583.51,868.98L584.28,868.78L585.03,868.58L585.62,868.42L586.04,868.31L586.3,868.24L586.4,868.21L586.69,868.13L587.16,868.01L587.83,867.83L588.67,867.6L589.52,867.37L590.37,867.14L591.22,866.91L592.07,866.68L592.92,866.45L593.77,866.22L594.61,865.99L595.46,865.76L596.22,865.56L596.89,865.38L597.48,865.22L597.97,865.08L598.43,864.96L598.86,864.84L599.24,864.74L599.6,864.64L600.08,864.51L600.68,864.35L601.4,864.15L602.25,863.93L603.1,863.7L603.95,863.47L604.8,863.24L605.65,863.01L606.49,862.79L607.34,862.56L608.19,862.34L609.04,862.11L609.75,861.93L610.31,861.78L610.73,861.67L611,861.6L611.35,861.51L611.77,861.4L612.27,861.27L612.85,861.12L613.49,860.95L614.2,860.77L614.98,860.58L615.83,860.37L616.68,860.16L617.53,859.95L618.37,859.74L619.22,859.54L620.07,859.34L620.92,859.15L621.77,858.96L622.62,858.77L623.38,858.6L624.04,858.46L624.62,858.34L625.11,858.24L625.56,858.15L625.98,858.07L626.38,857.99L626.74,857.93L627.22,857.84L627.83,857.74L628.56,857.63L629.41,857.5L630.25,857.39L631.1,857.29L631.95,857.21L632.8,857.14L633.65,857.11L634.5,857.12L635.35,857.17L636.19,857.26L636.92,857.37L637.51,857.5L637.97,857.65L638.31,857.83L638.58,858.17L638.78,858.69L638.9,859.37L638.96,860.22L638.91,861.01L638.74,861.77L638.46,862.47L638.06,863.12L637.73,863.66L637.45,864.08L637.24,864.39L637.09,864.59L636.8,864.93L636.37,865.41L635.81,866.03L635.12,866.8L634.57,867.39L634.18,867.82L633.95,868.07L633.86,868.15L633.61,868.39L633.19,868.79L632.59,869.34L631.83,870.05L631.21,870.61L630.75,871.04L630.44,871.32L630.27,871.46L629.98,871.71L629.56,872.06L629,872.53L628.31,873.1L627.71,873.59L627.19,874.02L626.76,874.37L626.4,874.65L626.02,874.95L625.59,875.28L625.13,875.63L624.64,876.01L624.1,876.42L623.54,876.84L622.93,877.29L622.29,877.76L621.76,878.15L621.34,878.46L621.02,878.68L620.81,878.84L620.44,879.09L619.91,879.46L619.22,879.94L618.37,880.53L617.7,881L617.19,881.35L616.86,881.58L616.69,881.69L616.4,881.88L615.97,882.16L615.42,882.53L614.73,882.98L614.06,883.42L613.41,883.84L612.77,884.25L612.15,884.65L611.62,884.98L611.2,885.25L610.87,885.46L610.65,885.6L610.27,885.83L609.73,886.16L609.04,886.59L608.19,887.1L607.48,887.54L606.89,887.89L606.44,888.17L606.12,888.36L605.74,888.58L605.32,888.83L604.84,889.1L604.32,889.41L603.71,889.76L603.02,890.16L602.25,890.6L601.4,891.08L600.74,891.45L600.26,891.72L599.97,891.89L599.86,891.95L599.6,892.09L599.17,892.33L598.59,892.64L597.85,893.05L597.08,893.47L596.3,893.89L595.48,894.32L594.65,894.77L594.02,895.1L593.59,895.33L593.37,895.44L593.36,895.45L593.14,895.56L592.71,895.78L592.07,896.11L591.22,896.55L590.38,896.97L589.55,897.39L588.72,897.81L587.9,898.22L587.28,898.52L586.86,898.73L586.63,898.85L586.6,898.86L586.36,898.97L585.92,899.19L585.28,899.5L584.43,899.9L583.58,900.31L582.73,900.71L581.89,901.11L581.04,901.5L580.38,901.81L579.93,902.02L579.66,902.14L579.6,902.17L579.35,902.28L578.93,902.48L578.32,902.75L577.54,903.1L576.74,903.46L575.93,903.82L575.1,904.18L574.25,904.55L573.54,904.86L572.97,905.11L572.53,905.3L572.24,905.42L571.88,905.58L571.45,905.76L570.96,905.96L570.41,906.19L569.78,906.45L569.08,906.74L568.31,907.06L567.46,907.41L566.65,907.74L565.89,908.05L565.17,908.33L564.49,908.6L563.94,908.82L563.51,908.99L563.22,909.11L563.05,909.17L562.71,909.3L562.2,909.5L561.52,909.76L560.67,910.08L559.82,910.41L558.98,910.72L558.13,911.04L557.28,911.35L556.54,911.62L555.92,911.85L555.4,912.04L555,912.19L554.59,912.33L554.16,912.48L553.73,912.64L553.28,912.8L552.73,912.99L552.09,913.21L551.34,913.47L550.49,913.76L549.64,914.05L548.79,914.34L547.94,914.62L547.1,914.9L546.37,915.14L545.76,915.34L545.27,915.5L544.91,915.62L544.51,915.75L544.09,915.88L543.63,916.02L543.15,916.18L542.58,916.36L541.91,916.56L541.16,916.8L540.31,917.06L539.46,917.31L538.61,917.57L537.76,917.82L536.91,918.07L536.11,918.3L535.36,918.52L534.65,918.72L533.99,918.91L533.44,919.06L533.02,919.18L532.71,919.27L532.53,919.32L532.17,919.42L531.66,919.56L530.97,919.74L530.12,919.97L529.28,920.19L528.43,920.42L527.58,920.64L526.73,920.86L525.88,921.07L525.03,921.28L524.18,921.49L523.34,921.7L522.55,921.89L521.81,922.07L521.14,922.23L520.53,922.37L520.01,922.49L519.58,922.59L519.25,922.66L519.02,922.72L518.63,922.8L518.09,922.92L517.4,923.08L516.55,923.26L515.7,923.45L514.85,923.63L514,923.8L513.15,923.98L512.3,924.15L511.46,924.32L510.61,924.49L509.76,924.65L508.91,924.81L508.06,924.97L507.21,925.13L506.36,925.28L505.56,925.43L504.79,925.56L504.05,925.69L503.36,925.8L502.81,925.9L502.38,925.97L502.09,926.02L501.93,926.04L501.6,926.09L501.1,926.17L500.42,926.28L499.58,926.41L498.73,926.54L497.88,926.66L497.03,926.78L496.18,926.9L495.33,927.02L494.48,927.13L493.64,927.24L492.79,927.35L491.94,927.45L491.09,927.55L490.24,927.65L489.39,927.75L488.54,927.84L487.7,927.93L486.85,928.01L486,928.1L485.15,928.18L484.3,928.25L483.45,928.32L482.6,928.39L481.76,928.46L480.91,928.52L480.06,928.58L479.21,928.64L478.36,928.69L477.51,928.74L476.66,928.79L475.82,928.83L474.97,928.87L474.12,928.91L473.27,928.94L472.42,928.97L471.57,928.99L470.72,929.01L469.88,929.03L469.03,929.04L468.18,929.05L467.33,929.06L466.48,929.06L465.63,929.05L464.78,929.05L463.94,929.04L463.09,929.02L462.24,929L461.39,928.98L460.54,928.95L459.69,928.91L458.84,928.88L458,928.83L457.15,928.79L456.3,928.73L455.45,928.68L454.6,928.61L453.75,928.55L452.9,928.47L452.06,928.39L451.21,928.31L450.36,928.22L449.51,928.12L448.66,928.02L447.81,927.91L446.96,927.8L446.12,927.67L445.27,927.55L444.42,927.41L443.57,927.26L442.72,927.11L441.87,926.95L441.04,926.79L440.21,926.62L439.4,926.44 M175.66,546.02L175.53,545.94L175.25,545.75L174.83,545.44L174.26,545.02L173.53,544.49L172.91,544.01L172.37,543.58L171.93,543.21L171.58,542.9L171.19,542.54L170.77,542.12L170.31,541.66L169.81,541.14L169.36,540.68L168.97,540.25L168.63,539.87L168.34,539.54L167.98,539.1L167.56,538.57L167.06,537.93L166.51,537.2L166.07,536.62L165.75,536.19L165.55,535.92L165.47,535.81L165.27,535.51L164.96,535.03L164.54,534.37L164,533.52L163.54,532.78L163.15,532.16L162.84,531.64L162.62,531.24L162.38,530.83L162.15,530.4L161.92,529.97L161.68,529.52L161.4,528.97L161.08,528.33L160.71,527.58L160.3,526.73L159.95,525.98L159.64,525.32L159.39,524.76L159.18,524.29L158.99,523.85L158.81,523.42L158.64,523.02L158.49,522.64L158.29,522.14L158.05,521.52L157.78,520.79L157.46,519.94L157.15,519.09L156.85,518.24L156.56,517.4L156.28,516.55L156.04,515.83L155.86,515.26L155.72,514.82L155.62,514.51L155.51,514.14L155.39,513.72L155.25,513.24L155.09,512.69L154.92,512.07L154.74,511.38L154.53,510.61L154.31,509.76L154.1,508.91L153.9,508.06L153.7,507.21L153.51,506.36L153.32,505.52L153.14,504.67L152.97,503.82L152.81,502.97L152.65,502.16L152.51,501.39L152.38,500.67L152.26,499.98L152.17,499.42L152.1,499L152.05,498.7L152.03,498.54L151.98,498.21L151.9,497.71L151.81,497.03L151.69,496.18L151.57,495.33L151.46,494.48L151.36,493.64L151.26,492.79L151.17,491.94L151.08,491.09L151,490.24L150.92,489.39L150.85,488.54L150.78,487.7L150.71,486.85L150.65,486L150.6,485.15L150.55,484.3L150.51,483.45L150.47,482.6L150.43,481.76L150.4,480.91L150.37,480.06L150.35,479.21L150.33,478.36L150.32,477.51L150.31,476.66L150.31,475.82L150.31,474.97L150.31,474.12L150.32,473.27L150.33,472.42L150.35,471.57L150.37,470.72L150.4,469.88L150.42,469.03L150.46,468.18L150.5,467.33L150.54,466.48L150.58,465.63L150.63,464.78L150.69,463.94L150.74,463.09L150.8,462.24L150.87,461.39L150.94,460.54L151.01,459.69L151.09,458.84L151.17,458L151.25,457.15L151.34,456.3L151.44,455.45L151.53,454.6L151.63,453.75L151.74,452.9L151.84,452.06L151.93,451.38L151.99,450.88L152.04,450.55L152.06,450.4L152.1,450.11L152.16,449.69L152.24,449.13L152.34,448.43L152.45,447.7L152.57,446.93L152.7,446.12L152.84,445.27L152.98,444.42L153.12,443.57L153.27,442.72L153.42,441.87L153.58,441.02L153.74,440.18L153.9,439.33L154.07,438.48L154.24,437.63L154.41,436.78L154.59,435.93L154.77,435.08L154.93,434.33L155.08,433.66L155.21,433.07L155.32,432.58L155.42,432.12L155.52,431.7L155.61,431.31L155.69,430.95L155.81,430.47L155.95,429.87L156.13,429.14L156.34,428.3L156.55,427.45L156.77,426.6L156.99,425.75L157.21,424.9L157.44,424.05L157.67,423.2L157.9,422.36L158.14,421.51L158.34,420.79L158.51,420.2L158.64,419.74L158.73,419.41L158.84,419.04L158.97,418.61L159.11,418.14L159.27,417.62L159.45,417.02L159.66,416.33L159.9,415.57L160.16,414.72L160.43,413.87L160.7,413.02L160.98,412.17L161.26,411.33L161.5,410.58L161.72,409.94L161.9,409.4L162.05,408.96L162.2,408.53L162.34,408.1L162.49,407.69L162.63,407.28L162.82,406.75L163.04,406.12L163.31,405.39L163.61,404.54L163.92,403.69L164.24,402.84L164.55,401.99L164.88,401.14L165.14,400.46L165.33,399.93L165.47,399.57L165.55,399.37L165.67,399.06L165.84,398.63L166.05,398.1L166.31,397.45L166.59,396.75L166.89,396L167.22,395.2L167.57,394.35L167.89,393.57L168.18,392.86L168.45,392.22L168.7,391.65L168.91,391.15L169.09,390.73L169.24,390.38L169.36,390.1L169.54,389.68L169.79,389.12L170.1,388.41L170.48,387.57L170.85,386.74L171.22,385.93L171.57,385.14L171.93,384.37L172.2,383.78L172.39,383.36L172.51,383.1L172.55,383.02L172.68,382.75L172.9,382.28L173.21,381.63L173.62,380.78L174.02,379.93L174.43,379.1L174.83,378.27L175.24,377.45L175.55,376.82L175.76,376.4L175.87,376.17L175.88,376.15L176,375.92L176.22,375.48L176.55,374.84L176.98,373.99L177.41,373.16L177.82,372.35L178.24,371.57L178.64,370.8L178.95,370.2L179.17,369.78L179.31,369.53L179.35,369.44L179.5,369.17L179.75,368.71L180.11,368.05L180.57,367.2L181,366.41L181.41,365.68L181.78,365L182.12,364.39L182.41,363.87L182.65,363.44L182.83,363.11L182.97,362.88L183.19,362.49L183.5,361.95L183.9,361.26L184.39,360.41L184.81,359.68L185.17,359.06L185.46,358.56L185.69,358.17L185.93,357.77L186.18,357.34L186.45,356.9L186.72,356.44L187.06,355.88L187.45,355.22L187.91,354.47L188.43,353.62L188.83,352.96L189.12,352.5L189.29,352.22L189.34,352.13L189.5,351.87L189.77,351.45L190.14,350.86L190.62,350.1L191.07,349.38L191.49,348.71L191.89,348.09L192.26,347.51L192.58,347L192.86,346.58L193.08,346.23L193.26,345.96L193.53,345.55L193.89,344.99L194.36,344.29L194.91,343.44L195.36,342.76L195.7,342.25L195.93,341.91L196.04,341.74L196.24,341.44L196.53,341.01L196.9,340.46L197.36,339.79L197.8,339.14L198.22,338.52L198.63,337.92L199.02,337.35L199.36,336.86L199.66,336.43L199.9,336.08L200.1,335.8L200.39,335.38L200.79,334.81L201.29,334.11L201.89,333.26L202.35,332.6L202.68,332.14L202.87,331.87L202.92,331.79L203.1,331.54L203.41,331.12L203.84,330.52L204.39,329.75L204.88,329.07L205.31,328.48L205.67,327.99L205.96,327.59L206.26,327.18L206.57,326.75L206.89,326.32L207.22,325.87L207.6,325.36L208.02,324.79L208.49,324.15L209.01,323.46L209.43,322.9L209.75,322.47L209.96,322.18L210.08,322.03L210.32,321.7L210.7,321.2L211.21,320.53L211.85,319.68L212.36,319.01L212.73,318.53L212.96,318.23L213.05,318.11L213.26,317.83L213.58,317.41L214.02,316.83L214.58,316.11L215.07,315.47L215.5,314.91L215.86,314.45L216.14,314.07L216.45,313.68L216.78,313.25L217.13,312.8L217.5,312.33L217.89,311.82L218.32,311.27L218.77,310.69L219.25,310.08L219.66,309.56L219.99,309.13L220.25,308.8L220.43,308.57L220.73,308.19L221.15,307.65L221.7,306.95L222.37,306.1L222.87,305.47L223.2,305.04L223.37,304.83L223.37,304.83L223.54,304.62L223.87,304.19L224.37,303.56L225.04,302.71L225.59,302.02L226.01,301.48L226.31,301.09L226.49,300.87L226.75,300.54L227.09,300.12L227.5,299.59L227.99,298.97L228.45,298.39L228.87,297.86L229.26,297.37L229.62,296.91L229.97,296.48L230.3,296.05L230.63,295.64L230.94,295.24L231.31,294.78L231.74,294.24L232.22,293.64L232.75,292.97L233.19,292.42L233.52,292L233.76,291.7L233.9,291.52L234.18,291.17L234.59,290.66L235.13,289.98L235.81,289.13L236.32,288.49L236.67,288.04L236.87,287.8L236.9,287.76L237.08,287.53L237.42,287.1L237.92,286.49L238.57,285.68L239.1,285.01L239.53,284.48L239.84,284.09L240.04,283.84L240.31,283.51L240.65,283.08L241.07,282.57L241.55,281.97L242,281.41L242.43,280.88L242.82,280.4L243.19,279.95L243.54,279.51L243.89,279.09L244.22,278.68L244.55,278.28L244.93,277.82L245.35,277.3L245.82,276.72L246.35,276.09L246.78,275.56L247.13,275.14L247.39,274.82L247.57,274.6L247.87,274.24L248.3,273.73L248.84,273.07L249.51,272.27L250.03,271.65L250.38,271.23L250.58,271L250.61,270.95L250.82,270.71L251.2,270.26L251.75,269.61L252.47,268.77L253.03,268.1L253.43,267.62L253.68,267.33L253.78,267.22L254.01,266.95L254.37,266.53L254.87,265.95L255.51,265.21L256.04,264.59L256.47,264.1L256.78,263.74L256.99,263.5L257.29,263.16L257.66,262.74L258.11,262.22L258.65,261.62L259.12,261.07L259.55,260.59L259.92,260.17L260.23,259.82L260.58,259.43L260.96,259.01L261.37,258.55L261.82,258.05L262.25,257.57L262.67,257.1L263.09,256.64L263.49,256.2L263.89,255.76L264.28,255.34L264.65,254.93L265.03,254.52L265.42,254.09L265.85,253.63L266.3,253.14L266.78,252.63L267.21,252.16L267.61,251.74L267.96,251.36L268.28,251.02L268.64,250.63L269.07,250.18L269.55,249.68L270.08,249.11L270.55,248.62L270.96,248.19L271.3,247.84L271.57,247.55L271.92,247.19L272.34,246.76L272.84,246.24L273.42,245.65L273.91,245.14L274.33,244.72L274.66,244.37L274.91,244.12L275.25,243.78L275.67,243.35L276.19,242.83L276.78,242.23L277.29,241.72L277.71,241.3L278.05,240.96L278.3,240.71L278.64,240.38L279.06,239.96L279.57,239.46L280.17,238.87L280.69,238.36L281.12,237.94L281.47,237.6L281.74,237.34L282.09,237L282.51,236.59L283.02,236.11L283.59,235.55L284.11,235.06L284.55,234.64L284.93,234.28L285.24,233.99L285.6,233.64L286.03,233.24L286.51,232.79L287.05,232.29L287.55,231.82L288,231.4L288.41,231.01L288.79,230.67L289.18,230.3L289.61,229.91L290.06,229.5L290.54,229.06L291.01,228.63L291.48,228.21L291.94,227.79L292.39,227.38L292.83,226.98L293.26,226.6L293.67,226.24L294.06,225.89L294.49,225.5L294.97,225.07L295.5,224.61L296.06,224.12L296.56,223.68L296.98,223.31L297.33,223L297.62,222.75L298,222.42L298.5,221.99L299.09,221.48L299.79,220.88L300.35,220.39L300.78,220.03L301.07,219.78L301.21,219.66L301.54,219.39L302.04,218.97L302.71,218.4L303.56,217.69L304.2,217.15L304.63,216.79L304.85,216.61L304.86,216.6L305.08,216.42L305.51,216.07L306.14,215.55L306.97,214.87L307.65,214.31L308.17,213.89L308.53,213.6L308.73,213.43L309.05,213.18L309.47,212.84L310,212.41L310.65,211.89L311.24,211.42L311.77,211L312.25,210.62L312.67,210.29L313.1,209.96L313.52,209.62L313.95,209.29L314.37,208.96L314.86,208.58L315.41,208.16L316.02,207.69L316.69,207.17L317.24,206.75L317.66,206.42L317.96,206.19L318.14,206.06L318.49,205.8L319,205.41L319.68,204.9L320.53,204.27L321.19,203.77L321.67,203.41L321.96,203.2L322.06,203.12L322.33,202.92L322.75,202.61L323.34,202.19L324.08,201.64L324.74,201.16L325.33,200.73L325.83,200.37L326.25,200.06L326.67,199.76L327.1,199.46L327.52,199.15L327.95,198.85L328.46,198.48L329.06,198.06L329.75,197.57L330.53,197.03L331.13,196.61L331.55,196.31L331.8,196.14L331.87,196.09L332.14,195.9L332.6,195.58L333.26,195.13L334.11,194.55L334.82,194.06L335.4,193.66L335.86,193.36L336.17,193.14L336.54,192.89L336.97,192.61L337.45,192.29L337.98,191.93L338.56,191.54L339.2,191.12L339.9,190.66L340.65,190.17L341.24,189.78L341.66,189.5L341.92,189.33L342.02,189.27L342.31,189.08L342.78,188.78L343.44,188.35L344.29,187.81L345.02,187.34L345.63,186.95L346.13,186.63L346.51,186.39L346.91,186.14L347.34,185.87L347.78,185.59L348.25,185.3L348.82,184.95L349.47,184.54L350.23,184.08L351.08,183.56L351.73,183.16L352.18,182.88L352.43,182.72L352.49,182.69L352.73,182.54L353.16,182.29L353.76,181.92L354.56,181.45L355.31,181L356.02,180.57L356.69,180.18L357.33,179.8L357.86,179.49L358.28,179.24L358.6,179.05L358.82,178.93L359.19,178.71L359.72,178.41L360.41,178.01L361.26,177.52L362,177.1L362.63,176.74L363.16,176.44L363.58,176.2L364,175.97L364.42,175.73L364.85,175.49L365.28,175.25L365.82,174.95L366.46,174.6L367.2,174.19L368.05,173.72L368.75,173.34L369.31,173.03L369.72,172.81L369.98,172.67L370.33,172.48L370.75,172.26L371.26,171.99L371.84,171.67L372.49,171.33L373.21,170.95L373.99,170.54L374.84,170.1L375.52,169.74L376.03,169.47L376.38,169.29L376.56,169.2L376.86,169.04L377.28,168.83L377.83,168.55L378.5,168.21L379.21,167.85L379.97,167.46L380.78,167.06L381.63,166.64L382.3,166.3L382.81,166.04L383.15,165.88L383.32,165.79L383.62,165.65L384.05,165.44L384.6,165.17L385.28,164.84L386,164.49L386.76,164.13L387.57,163.74L388.41,163.34L389.11,163.01L389.66,162.75L390.06,162.56L390.31,162.45L390.64,162.29L391.07,162.09L391.58,161.86L392.18,161.58L392.84,161.27L393.57,160.94L394.35,160.59L395.2,160.2L395.94,159.87L396.58,159.58L397.11,159.35L397.54,159.16L397.96,158.97L398.38,158.79L398.81,158.6L399.23,158.41L399.76,158.18L400.4,157.91L401.14,157.59L401.99,157.23L402.81,156.88L403.59,156.55L404.34,156.23L405.05,155.93L405.62,155.69L406.05,155.52L406.33,155.4L406.46,155.35L406.77,155.22L407.26,155.02L407.93,154.75L408.78,154.4L409.63,154.06L410.48,153.72L411.33,153.38L412.17,153.05L412.88,152.77L413.46,152.54L413.89,152.37L414.18,152.26L414.54,152.12L414.97,151.96L415.46,151.77L416.01,151.56L416.64,151.32L417.34,151.06L418.11,150.77L418.96,150.45L419.81,150.14L420.66,149.83L421.51,149.52L422.36,149.21L423,148.98L423.45,148.82L423.69,148.73L423.74,148.72L423.97,148.64L424.39,148.49L425.01,148.27L425.81,147.99L426.63,147.71L427.46,147.42L428.3,147.14L429.14,146.85L429.99,146.56L430.84,146.28L431.69,146L432.54,145.72L433.18,145.51L433.6,145.37L433.82,145.3L433.82,145.3L434.04,145.23L434.46,145.1L435.09,144.9L435.94,144.63L436.78,144.37L437.63,144.1L438.48,143.84L439.33,143.58L440.18,143.33L441.02,143.07L441.87,142.82L442.72,142.57L443.42,142.36L443.97,142.2L444.37,142.09L444.62,142.01L444.96,141.92L445.39,141.8L445.9,141.65L446.49,141.49L447.15,141.3L447.88,141.1L448.66,140.89L449.51,140.66L450.36,140.43L451.21,140.2L452.06,139.98L452.9,139.76L453.75,139.54L454.6,139.32L455.45,139.11L456.3,138.9L456.95,138.74L457.41,138.62L457.68,138.56L457.75,138.54L458,138.48L458.42,138.38L459.02,138.24L459.8,138.05L460.6,137.86L461.41,137.68L462.24,137.49L463.09,137.29L463.94,137.11L464.78,136.92L465.63,136.73L466.48,136.55L467.33,136.37L468.18,136.2L469.03,136.02L469.88,135.85L470.67,135.69L471.4,135.54L472.07,135.41L472.69,135.29L473.21,135.2L473.63,135.11L473.96,135.05L474.19,135.01L474.58,134.94L475.12,134.84L475.82,134.72L476.66,134.56L477.51,134.41L478.36,134.27L479.21,134.12L480.06,133.98L480.91,133.84L481.76,133.71L482.6,133.58L483.45,133.44L484.3,133.32L485.15,133.19L486,133.07L486.85,132.95L487.7,132.83L488.54,132.72L489.39,132.61L490.24,132.5L491.09,132.39L491.94,132.29L492.79,132.19L493.64,132.09L494.4,132L495.09,131.93L495.7,131.86L496.23,131.81L496.71,131.76L497.14,131.71L497.51,131.68L497.83,131.65L498.28,131.6L498.86,131.55L499.58,131.49L500.42,131.41L501.27,131.34L502.12,131.27L502.97,131.21L503.82,131.15L504.67,131.09L505.52,131.03L506.36,130.98L507.21,130.93L508.06,130.88L508.91,130.84L509.76,130.8L510.61,130.77L511.46,130.73L512.3,130.7L513.15,130.68L514,130.66L514.85,130.64L515.7,130.62L516.55,130.61L517.4,130.6L518.24,130.6L519.09,130.59L519.94,130.6L520.79,130.6L521.64,130.61L522.49,130.63L523.34,130.65L524.18,130.67L525.03,130.7L525.88,130.73L526.73,130.76L527.58,130.8L528.43,130.85L529.28,130.89L530.12,130.95L530.97,131.01L531.82,131.07L532.67,131.14L533.52,131.21L534.37,131.29L535.18,131.36L535.95,131.44L536.69,131.52L537.4,131.6L537.96,131.67L538.38,131.72L538.67,131.75L538.82,131.77L539.14,131.81L539.63,131.89L540.31,131.98L541.16,132.11L542,132.24L542.85,132.38L543.7,132.52L544.55,132.67L545.4,132.83L546.25,133L547.1,133.18L547.94,133.36L548.79,133.56L549.64,133.76L550.49,133.98L551.34,134.2L552.09,134.41L552.74,134.59L553.3,134.76L553.76,134.9L554.2,135.04L554.62,135.18L555.03,135.32L555.42,135.46L555.92,135.65L556.54,135.9L557.28,136.2L558.13,136.56L558.92,136.92L559.66,137.28L560.34,137.63L560.97,137.98L561.5,138.29L561.92,138.54L562.25,138.74L562.47,138.89L562.79,139.18L563.23,139.61L563.77,140.17L564.41,140.86L564.92,141.6L565.28,142.37L565.51,143.18L565.59,144.03L565.48,144.88L565.18,145.72L564.68,146.57L564,147.42L563.48,148.07L563.11,148.51L562.91,148.75L562.86,148.78L562.62,148.94L562.17,149.22L561.52,149.63L560.67,150.16L559.89,150.63L559.17,151.03L558.51,151.38L557.92,151.66L557.42,151.9L556.99,152.1L556.65,152.26L556.39,152.37L555.99,152.54L555.43,152.76L554.73,153.04L553.88,153.37L553.04,153.69L552.19,154L551.34,154.31L550.49,154.6L549.77,154.85L549.17,155.05L548.7,155.21L548.36,155.32L547.97,155.44L547.55,155.57L547.08,155.72L546.58,155.87L545.99,156.05L545.31,156.25L544.55,156.48L543.7,156.73L542.85,156.97L542,157.21L541.16,157.45L540.31,157.68L539.47,157.91L538.65,158.13L537.83,158.35L537.04,158.56L536.42,158.72L536,158.83L535.76,158.9L535.71,158.91L535.46,158.97L535.02,159.09L534.37,159.25L533.52,159.47L532.67,159.68L531.82,159.9L530.97,160.11L530.12,160.32L529.28,160.53L528.43,160.73L527.58,160.94L526.73,161.15L525.88,161.35L525.03,161.56L524.18,161.76L523.34,161.96L522.49,162.16L521.64,162.36L520.79,162.57L519.94,162.77L519.09,162.97L518.24,163.17L517.4,163.37L516.55,163.56L515.7,163.76L514.85,163.96L514,164.16L513.15,164.36L512.3,164.56L511.46,164.76L510.61,164.96L509.76,165.15L509.06,165.32L508.53,165.44L508.14,165.53L507.91,165.59L507.59,165.66L507.16,165.76L506.64,165.88L506.02,166.03L505.34,166.19L504.61,166.36L503.82,166.55L502.97,166.75L502.12,166.95L501.27,167.15L500.42,167.35L499.58,167.55L498.73,167.75L497.88,167.95L497.03,168.15L496.18,168.36L495.44,168.53L494.81,168.68L494.28,168.81L493.87,168.91L493.45,169.01L493.02,169.11L492.59,169.22L492.16,169.32L491.63,169.45L490.99,169.61L490.24,169.79L489.39,169.99L488.54,170.2L487.7,170.41L486.85,170.62L486,170.83L485.15,171.04L484.3,171.25L483.45,171.46L482.6,171.67L481.85,171.86L481.19,172.02L480.63,172.16L480.17,172.28L479.72,172.39L479.3,172.5L478.89,172.6L478.51,172.7L478.01,172.82L477.4,172.98L476.66,173.17L475.82,173.39L474.97,173.6L474.12,173.82L473.27,174.04L472.42,174.26L471.57,174.48L470.72,174.71L469.88,174.93L469.03,175.15L468.31,175.34L467.71,175.5L467.25,175.62L466.91,175.71L466.53,175.82L466.11,175.93L465.64,176.05L465.13,176.19L464.53,176.35L463.85,176.54L463.09,176.74L462.24,176.97L461.39,177.21L460.54,177.44L459.69,177.67L458.84,177.91L458,178.14L457.15,178.38L456.3,178.62L455.45,178.86L454.81,179.04L454.37,179.16L454.14,179.22L454.11,179.23L453.89,179.3L453.46,179.42L452.84,179.6L452.02,179.83L451.19,180.07L450.35,180.31L449.51,180.55L448.66,180.8L447.81,181.05L446.96,181.3L446.12,181.55L445.27,181.8L444.53,182.01L443.92,182.2L443.41,182.35L443.03,182.46L442.62,182.59L442.2,182.71L441.76,182.85L441.29,182.99L440.73,183.16L440.08,183.36L439.33,183.58L438.48,183.84L437.63,184.11L436.78,184.37L435.93,184.63L435.08,184.89L434.3,185.14L433.59,185.36L432.93,185.57L432.35,185.75L431.84,185.91L431.42,186.05L431.08,186.16L430.81,186.24L430.4,186.37L429.85,186.55L429.14,186.78L428.3,187.05L427.45,187.33L426.6,187.6L425.75,187.88L424.9,188.16L424.11,188.42L423.37,188.67L422.68,188.9L422.04,189.11L421.51,189.28L421.09,189.43L420.77,189.53L420.56,189.61L420.18,189.73L419.65,189.91L418.96,190.15L418.11,190.44L417.27,190.73L416.42,191.02L415.57,191.31L414.72,191.6L413.95,191.87L413.25,192.12L412.62,192.34L412.07,192.53L411.58,192.7L411.16,192.85L410.8,192.98L410.5,193.08L410.06,193.24L409.49,193.45L408.78,193.7L407.93,194.01L407.08,194.31L406.23,194.62L405.39,194.93L404.54,195.24L403.81,195.51L403.22,195.72L402.75,195.9L402.41,196.02L402.02,196.17L401.6,196.32L401.13,196.5L400.63,196.69L400.04,196.91L399.36,197.17L398.6,197.45L397.75,197.78L396.9,198.1L396.05,198.43L395.2,198.75L394.35,199.08L393.71,199.33L393.28,199.5L393.05,199.59L393.02,199.59L392.8,199.68L392.37,199.85L391.75,200.1L390.92,200.42L390.09,200.75L389.26,201.08L388.41,201.42L387.57,201.76L386.82,202.06L386.17,202.32L385.62,202.54L385.17,202.73L384.73,202.91L384.3,203.08L383.89,203.25L383.5,203.41L382.98,203.62L382.36,203.88L381.63,204.19L380.78,204.54L379.94,204.89L379.13,205.23L378.33,205.57L377.54,205.9L376.94,206.15L376.51,206.33L376.27,206.44L376.21,206.47L375.95,206.58L375.49,206.77L374.84,207.06L373.99,207.42L373.14,207.79L372.29,208.16L371.44,208.53L370.59,208.91L369.91,209.21L369.4,209.43L369.05,209.59L368.86,209.67L368.56,209.8L368.14,209.99L367.59,210.24L366.93,210.54L366.21,210.86L365.46,211.2L364.65,211.57L363.81,211.95L363.08,212.29L362.48,212.56L362.01,212.78L361.66,212.94L361.27,213.12L360.84,213.32L360.38,213.53L359.88,213.77L359.3,214.04L358.63,214.36L357.87,214.72L357.02,215.12L356.27,215.48L355.62,215.78L355.08,216.04L354.63,216.26L354.2,216.47L353.77,216.67L353.36,216.87L352.96,217.07L352.44,217.32L351.81,217.63L351.08,217.99L350.23,218.41L349.47,218.78L348.82,219.11L348.25,219.39L347.78,219.62L347.33,219.85L346.91,220.06L346.51,220.26L346.13,220.45L345.63,220.7L345.02,221.02L344.29,221.39L343.44,221.82L342.7,222.2L342.06,222.53L341.52,222.81L341.09,223.03L340.66,223.26L340.24,223.48L339.82,223.7L339.4,223.92L338.87,224.19L338.24,224.53L337.5,224.92L336.65,225.37L335.93,225.75L335.34,226.07L334.88,226.32L334.55,226.49L334.17,226.7L333.75,226.93L333.28,227.18L332.76,227.47L332.16,227.79L331.48,228.17L330.71,228.59L329.86,229.06L329.18,229.44L328.67,229.72L328.33,229.91L328.15,230.01L327.85,230.18L327.43,230.42L326.88,230.73L326.21,231.11L325.5,231.51L324.75,231.93L323.98,232.38L323.16,232.85L322.54,233.2L322.12,233.45L321.89,233.58L321.85,233.6L321.62,233.74L321.17,234L320.53,234.38L319.68,234.88L318.91,235.33L318.2,235.75L317.58,236.12L317.02,236.45L316.54,236.74L316.11,237L315.75,237.21L315.46,237.39L315.02,237.65L314.45,238L313.74,238.44L312.89,238.96L312.19,239.38L311.65,239.72L311.25,239.96L311.01,240.11L310.67,240.32L310.25,240.59L309.74,240.91L309.13,241.29L308.49,241.69L307.82,242.11L307.12,242.56L306.38,243.03L305.8,243.4L305.37,243.67L305.11,243.84L305,243.91L304.7,244.1L304.22,244.42L303.56,244.85L302.71,245.4L301.99,245.87L301.39,246.26L300.93,246.57L300.59,246.79L300.21,247.04L299.78,247.33L299.32,247.64L298.81,247.98L298.24,248.36L297.61,248.79L296.92,249.25L296.18,249.76L295.59,250.16L295.17,250.45L294.9,250.63L294.8,250.7L294.51,250.9L294.04,251.23L293.37,251.69L292.53,252.28L291.82,252.77L291.27,253.16L290.86,253.45L290.59,253.64L290.25,253.88L289.82,254.18L289.32,254.54L288.74,254.96L288.15,255.38L287.56,255.81L286.97,256.23L286.38,256.66L285.87,257.04L285.45,257.35L285.11,257.59L284.85,257.78L284.45,258.08L283.89,258.5L283.19,259.02L282.34,259.66L281.7,260.14L281.26,260.47L281.02,260.64L280.99,260.67L280.76,260.84L280.34,261.17L279.72,261.65L278.9,262.27L278.22,262.8L277.67,263.22L277.25,263.55L276.97,263.77L276.62,264.05L276.19,264.38L275.7,264.77L275.13,265.22L274.58,265.66L274.05,266.08L273.54,266.49L273.04,266.89L272.58,267.26L272.15,267.61L271.77,267.92L271.41,268.21L270.98,268.57L270.47,268.99L269.88,269.48L269.2,270.05L268.65,270.5L268.23,270.86L267.93,271.11L267.75,271.25L267.42,271.54L266.92,271.96L266.27,272.53L265.45,273.23L264.83,273.76L264.41,274.13L264.18,274.32L264.15,274.35L263.91,274.56L263.47,274.95L262.83,275.53L261.98,276.28L261.32,276.86L260.86,277.27L260.6,277.51L260.52,277.58L260.27,277.81L259.85,278.2L259.25,278.75L258.47,279.46L257.86,280.03L257.4,280.46L257.1,280.74L256.96,280.87L256.67,281.14L256.25,281.55L255.68,282.09L254.98,282.77L254.4,283.32L253.96,283.74L253.66,284.04L253.48,284.21L253.18,284.51L252.76,284.93L252.21,285.48L251.53,286.16L250.99,286.71L250.56,287.13L250.27,287.43L250.1,287.6L249.81,287.91L249.38,288.35L248.83,288.93L248.15,289.64L247.61,290.21L247.2,290.64L246.94,290.92L246.81,291.05L246.54,291.35L246.12,291.82L245.54,292.45L244.82,293.25L244.26,293.86L243.88,294.28L243.67,294.52L243.62,294.57L243.4,294.82L243.02,295.27L242.46,295.92L241.73,296.77L241.16,297.43L240.76,297.89L240.52,298.17L240.45,298.26L240.24,298.51L239.89,298.94L239.41,299.53L238.78,300.29L238.26,300.94L237.84,301.46L237.51,301.87L237.29,302.15L237.01,302.51L236.68,302.93L236.3,303.43L235.86,303.99L235.44,304.55L235.01,305.11L234.59,305.67L234.18,306.23L233.81,306.72L233.5,307.15L233.24,307.5L233.03,307.79L232.72,308.22L232.32,308.79L231.82,309.5L231.23,310.35L230.77,311L230.45,311.46L230.27,311.72L230.22,311.79L230.06,312.03L229.78,312.46L229.38,313.06L228.86,313.84L228.39,314.56L227.96,315.21L227.59,315.79L227.26,316.3L226.96,316.77L226.69,317.2L226.45,317.58L226.25,317.91L225.96,318.37L225.6,318.96L225.17,319.68L224.66,320.53L224.24,321.22L223.92,321.76L223.69,322.14L223.56,322.36L223.38,322.68L223.13,323.11L222.83,323.63L222.47,324.26L222.09,324.94L221.68,325.68L221.24,326.47L220.77,327.32L220.42,327.97L220.17,328.41L220.04,328.66L220.01,328.71L219.89,328.94L219.67,329.37L219.34,329.98L218.92,330.78L218.5,331.6L218.08,332.42L217.65,333.26L217.23,334.11L216.91,334.74L216.69,335.17L216.59,335.39L216.58,335.39L216.48,335.61L216.28,336.03L215.97,336.66L215.57,337.51L215.16,338.35L214.77,339.2L214.37,340.05L213.98,340.89L213.68,341.56L213.46,342.04L213.32,342.34L213.26,342.46L213.14,342.73L212.96,343.16L212.7,343.74L212.38,344.47L212.05,345.23L211.71,346.02L211.37,346.83L211.01,347.68L210.7,348.42L210.43,349.06L210.22,349.58L210.05,350L209.88,350.42L209.7,350.84L209.53,351.27L209.36,351.7L209.15,352.24L208.9,352.88L208.61,353.62L208.29,354.47L207.96,355.32L207.64,356.17L207.33,357.02L207.01,357.87L206.77,358.53L206.6,359L206.49,359.29L206.45,359.4L206.36,359.66L206.21,360.09L206.01,360.67L205.74,361.42L205.48,362.19L205.2,362.98L204.93,363.81L204.64,364.65L204.36,365.5L204.08,366.35L203.81,367.2L203.54,368.05L203.33,368.71L203.18,369.19L203.08,369.48L203.05,369.59L202.97,369.85L202.84,370.28L202.67,370.86L202.44,371.6L202.21,372.37L201.98,373.17L201.74,373.99L201.5,374.84L201.26,375.69L201.02,376.53L200.78,377.38L200.55,378.23L200.34,379.01L200.15,379.73L199.98,380.37L199.83,380.95L199.7,381.45L199.59,381.87L199.51,382.22L199.44,382.49L199.34,382.91L199.2,383.47L199.03,384.17L198.82,385.02L198.62,385.87L198.42,386.72L198.23,387.57L198.03,388.41L197.85,389.26L197.66,390.11L197.48,390.96L197.3,391.81L197.12,392.66L196.94,393.51L196.77,394.35L196.61,395.2L196.47,395.89L196.37,396.4L196.3,396.75L196.27,396.94L196.21,397.25L196.13,397.67L196.03,398.21L195.91,398.88L195.79,399.58L195.66,400.34L195.52,401.14L195.37,401.99L195.23,402.84L195.1,403.69L194.96,404.54L194.83,405.39L194.7,406.23L194.58,407.08L194.45,407.93L194.33,408.78L194.22,409.63L194.1,410.48L193.99,411.33L193.89,412.17L193.78,413.02L193.68,413.87L193.58,414.72L193.48,415.57L193.39,416.42L193.3,417.27L193.21,418.11L193.13,418.96L193.05,419.73L192.99,420.41L192.93,421L192.89,421.51L192.85,421.98L192.81,422.41L192.78,422.79L192.75,423.12L192.71,423.59L192.67,424.18L192.62,424.9L192.55,425.75L192.5,426.6L192.44,427.45L192.39,428.3L192.34,429.14L192.29,429.99L192.24,430.84L192.2,431.69L192.16,432.54L192.12,433.39L192.09,434.24L192.06,435.08L192.03,435.93L192,436.78L191.98,437.63L191.96,438.48L191.94,439.33L191.93,440.18L191.92,441.02L191.91,441.87L191.9,442.72L191.89,443.57L191.89,444.42L191.89,445.27L191.89,446.12L191.9,446.96L191.91,447.81L191.92,448.66L191.93,449.51L191.95,450.36L191.97,451.21L191.99,452.06L192.01,452.9L192.04,453.75L192.06,454.6L192.09,455.45L192.13,456.3L192.16,457.15L192.2,458L192.24,458.84L192.28,459.69L192.32,460.54L192.37,461.39L192.42,462.24L192.47,463.09L192.52,463.94L192.58,464.78L192.64,465.63L192.69,466.48L192.74,467.15L192.78,467.63L192.8,467.93L192.81,468.05L192.83,468.33L192.86,468.75L192.91,469.33L192.97,470.06L193.03,470.81L193.09,471.6L193.17,472.42L193.24,473.27L193.32,474.12L193.39,474.97L193.47,475.82L193.56,476.66L193.64,477.51L193.72,478.36L193.81,479.21L193.9,480.06L193.99,480.91L194.08,481.76L194.17,482.6L194.26,483.45L194.36,484.3L194.45,485.15L194.55,486L194.64,486.85L194.74,487.7L194.84,488.54L194.94,489.39L195.04,490.24L195.14,491.09L195.24,491.94L195.34,492.79L195.45,493.64L195.55,494.48L195.65,495.33L195.75,496.18L195.85,497.03L195.94,497.77L196.02,498.41L196.09,498.95L196.14,499.38L196.19,499.81L196.24,500.23L196.29,500.65L196.34,501.07L196.4,501.6L196.47,502.23L196.56,502.97L196.65,503.82L196.75,504.67L196.84,505.52L196.94,506.36L197.03,507.21L197.12,508.06L197.2,508.91L197.29,509.76L197.37,510.61L197.45,511.46L197.52,512.3L197.59,513.15L197.66,514L197.73,514.85L197.79,515.7L197.84,516.55L197.9,517.4L197.94,518.24L197.98,519.09L198.02,519.94L198.05,520.79L198.07,521.64L198.08,522.49L198.09,523.34L198.09,524.18L198.08,525.03L198.06,525.88L198.03,526.73L197.99,527.58L197.94,528.43L197.88,529.28L197.8,530.12L197.71,530.97L197.61,531.82L197.49,532.67L197.35,533.52L197.19,534.37L197.03,535.17L196.86,535.92L196.68,536.63L196.49,537.29L196.34,537.83L196.21,538.25L196.11,538.56L196.05,538.75L195.9,539.1L195.66,539.62L195.35,540.31L194.95,541.16L194.55,541.93L194.16,542.62L193.77,543.23L193.39,543.77L193.03,544.25L192.69,544.67L192.36,545.04L192.06,545.35L191.7,545.68L191.27,546.03L190.79,546.4L190.24,546.79L189.62,547.16L188.93,547.5L188.15,547.81L187.3,548.11L186.46,548.33L185.61,548.49L184.76,548.57L183.91,548.59L183.06,548.55L182.21,548.46L181.36,548.31L180.52,548.1L179.67,547.84L178.82,547.53L177.97,547.17L177.12,546.76L176.45,546.43L175.96,546.18L175.66,546.02 M456.76,526.35L456.22,526L455.84,525.51L455.62,524.91L455.55,524.18L455.64,523.34L455.82,522.55L456.09,521.82L456.45,521.15L456.9,520.55L457.29,520.03L457.64,519.61L457.93,519.27L458.17,519.03L458.5,518.72L458.92,518.34L459.44,517.88L460.05,517.36L460.62,516.89L461.15,516.46L461.64,516.09L462.08,515.76L462.52,515.45L462.95,515.16L463.36,514.88L463.76,514.61L464.27,514.29L464.9,513.91L465.63,513.48L466.48,512.98L467.16,512.59L467.67,512.3L468.01,512.11L468.18,512.02L468.48,511.87L468.91,511.66L469.46,511.39L470.13,511.06L470.85,510.72L471.62,510.38L472.42,510.03L473.27,509.67L474.02,509.37L474.67,509.11L475.23,508.89L475.68,508.73L476.12,508.58L476.55,508.43L476.96,508.3L477.35,508.18L477.86,508.03L478.48,507.87L479.21,507.69L480.06,507.48L480.91,507.31L481.76,507.18L482.6,507.08L483.45,507.01L484.28,507.06L485.1,507.22L485.9,507.5L486.68,507.89L487.22,508.4L487.51,509.02L487.57,509.76L487.37,510.61L487.08,511.43L486.69,512.24L486.2,513.01L485.61,513.77L485.15,514.36L484.81,514.79L484.59,515.04L484.5,515.14L484.25,515.38L483.82,515.76L483.23,516.29L482.47,516.98L481.85,517.53L481.36,517.95L481.01,518.25L480.79,518.42L480.47,518.65L480.05,518.96L479.52,519.34L478.89,519.79L478.25,520.22L477.61,520.65L476.96,521.06L476.31,521.46L475.77,521.79L475.35,522.05L475.04,522.23L474.84,522.34L474.48,522.53L473.96,522.8L473.27,523.14L472.42,523.57L471.59,523.97L470.78,524.33L469.99,524.68L469.22,524.99L468.63,525.23L468.2,525.4L467.95,525.5L467.87,525.53L467.6,525.61L467.14,525.75L466.48,525.94L465.63,526.19L464.78,526.42L463.94,526.61L463.09,526.77L462.24,526.91L461.39,527L460.54,527.04L459.69,527.03L458.84,526.98L458.07,526.84L457.38,526.64L456.76,526.35 M830.18,430.94L829.68,430.73L829.21,430.53L828.79,430.33L828.4,430.15L828.06,429.96L827.59,429.69L827,429.32L826.27,428.86L825.42,428.31L824.75,427.86L824.25,427.53L823.92,427.31L823.77,427.19L823.48,426.97L823.05,426.64L822.49,426.2L821.8,425.66L821.19,425.17L820.66,424.75L820.22,424.38L819.86,424.08L819.47,423.75L819.05,423.38L818.59,422.98L818.1,422.55L817.62,422.13L817.14,421.7L816.67,421.28L816.21,420.86L815.77,420.46L815.34,420.07L814.94,419.69L814.55,419.33L814.13,418.94L813.68,418.52L813.2,418.06L812.68,417.57L812.21,417.13L811.79,416.72L811.41,416.36L811.07,416.04L810.69,415.67L810.25,415.24L809.76,414.77L809.22,414.24L808.73,413.77L808.31,413.35L807.94,413L807.64,412.7L807.27,412.34L806.84,411.91L806.35,411.42L805.79,410.88L805.3,410.39L804.88,409.97L804.52,409.62L804.22,409.33L803.87,408.97L803.44,408.55L802.94,408.05L802.38,407.5L801.89,407L801.47,406.58L801.11,406.23L800.82,405.94L800.47,405.58L800.04,405.16L799.55,404.67L798.99,404.11L798.5,403.61L798.07,403.19L797.72,402.83L797.43,402.54L797.07,402.19L796.65,401.76L796.16,401.27L795.6,400.71L795.11,400.22L794.69,399.79L794.33,399.43L794.04,399.14L793.68,398.78L793.26,398.35L792.78,397.86L792.23,397.31L791.74,396.82L791.32,396.39L790.95,396.02L790.66,395.72L790.3,395.36L789.88,394.93L789.4,394.45L788.87,393.9L788.39,393.41L787.96,392.98L787.6,392.6L787.28,392.28L786.92,391.91L786.51,391.48L786.05,391.01L785.54,390.48L785.07,389.99L784.65,389.55L784.27,389.16L783.93,388.8L783.56,388.41L783.15,387.99L782.72,387.53L782.25,387.03L781.81,386.56L781.38,386.11L780.98,385.67L780.6,385.26L780.21,384.84L779.82,384.42L779.43,383.99L779.04,383.55L778.63,383.1L778.2,382.62L777.76,382.13L777.31,381.61L776.9,381.14L776.53,380.72L776.2,380.34L775.92,380.01L775.56,379.58L775.14,379.07L774.64,378.47L774.08,377.78L773.63,377.22L773.29,376.8L773.05,376.51L772.93,376.35L772.68,376.02L772.31,375.51L771.82,374.84L771.2,373.99L770.71,373.31L770.35,372.81L770.11,372.48L770,372.32L769.82,372.03L769.55,371.6L769.2,371.05L768.77,370.36L768.35,369.64L767.92,368.89L767.5,368.11L767.08,367.3L766.76,366.68L766.54,366.26L766.42,366.03L766.4,365.99L766.31,365.75L766.13,365.3L765.88,364.65L765.55,363.81L765.24,362.96L764.97,362.11L764.72,361.26L764.5,360.41L764.31,359.56L764.15,358.71L764.02,357.87L763.92,357.02L763.85,356.17L763.8,355.32L763.78,354.47L763.8,353.62L763.84,352.77L763.91,351.93L764.01,351.08L764.13,350.23L764.29,349.38L764.47,348.53L764.69,347.68L764.93,346.83L765.18,346.02L765.45,345.25L765.72,344.51L766.01,343.8L766.25,343.24L766.43,342.81L766.55,342.53L766.63,342.38L766.8,342.06L767.09,341.57L767.48,340.89L767.97,340.05L768.42,339.31L768.81,338.69L769.14,338.19L769.42,337.8L769.73,337.4L770.07,336.97L770.43,336.53L770.82,336.07L771.23,335.61L771.65,335.16L772.1,334.71L772.55,334.26L773.02,333.82L773.5,333.4L773.99,332.99L774.49,332.59L774.95,332.23L775.38,331.91L775.76,331.64L776.11,331.41L776.58,331.13L777.18,330.8L777.9,330.43L778.75,330.01L779.54,329.64L780.27,329.33L780.95,329.08L781.56,328.88L782.08,328.72L782.5,328.6L782.83,328.51L783.07,328.46L783.46,328.39L784,328.32L784.69,328.23L785.54,328.13L786.39,328.07L787.24,328.03L788.09,328.04L788.94,328.07L789.74,328.13L790.5,328.2L791.21,328.3L791.88,328.42L792.43,328.51L792.85,328.59L793.15,328.66L793.33,328.7L793.68,328.8L794.19,328.96L794.88,329.18L795.72,329.45L796.57,329.75L797.42,330.08L798.27,330.44L799.12,330.82L799.82,331.15L800.38,331.41L800.8,331.62L801.07,331.76L801.42,331.96L801.85,332.21L802.35,332.5L802.92,332.84L803.54,333.23L804.19,333.65L804.88,334.12L805.61,334.62L806.19,335.02L806.61,335.32L806.88,335.51L807,335.6L807.3,335.85L807.79,336.24L808.45,336.79L809.3,337.49L809.95,338.03L810.41,338.41L810.67,338.63L810.74,338.69L810.98,338.92L811.4,339.32L812.01,339.9L812.79,340.65L813.4,341.24L813.84,341.67L814.11,341.93L814.2,342.02L814.46,342.3L814.89,342.77L815.48,343.41L816.23,344.24L816.8,344.87L817.19,345.29L817.39,345.51L817.4,345.53L817.59,345.76L817.94,346.19L818.46,346.83L819.15,347.68L819.71,348.37L820.12,348.88L820.4,349.23L820.54,349.42L820.77,349.72L821.08,350.15L821.48,350.69L821.97,351.35L822.42,351.99L822.85,352.58L823.24,353.15L823.6,353.68L823.93,354.16L824.22,354.58L824.46,354.95L824.67,355.27L824.95,355.72L825.32,356.3L825.76,357.02L826.29,357.87L826.71,358.55L827.03,359.08L827.25,359.44L827.37,359.64L827.55,359.95L827.79,360.38L828.09,360.91L828.46,361.56L828.84,362.26L829.25,363.01L829.67,363.81L830.11,364.65L830.46,365.31L830.7,365.77L830.84,366.05L830.88,366.13L831,366.38L831.21,366.8L831.49,367.4L831.86,368.17L832.23,368.96L832.61,369.77L832.98,370.59L833.36,371.44L833.67,372.14L833.91,372.69L834.08,373.08L834.18,373.33L834.32,373.66L834.49,374.09L834.7,374.6L834.94,375.2L835.2,375.87L835.48,376.6L835.78,377.38L836.1,378.23L836.41,379.08L836.71,379.93L837,380.78L837.29,381.63L837.51,382.26L837.65,382.69L837.79,383.11L837.92,383.53L838.11,384.17L838.37,385.02L838.62,385.87L838.87,386.72L839.11,387.57L839.34,388.41L839.57,389.26L839.79,390.11L840,390.96L840.2,391.81L840.39,392.63L840.57,393.41L840.74,394.17L840.89,394.9L841.01,395.47L841.1,395.89L841.16,396.17L841.18,396.29L841.24,396.6L841.32,397.08L841.44,397.75L841.59,398.6L841.73,399.45L841.86,400.29L841.99,401.14L842.11,401.99L842.22,402.84L842.32,403.69L842.42,404.54L842.5,405.39L842.58,406.23L842.65,407.08L842.71,407.93L842.77,408.78L842.81,409.63L842.84,410.48L842.86,411.33L842.88,412.17L842.88,413.02L842.87,413.87L842.84,414.72L842.81,415.57L842.76,416.42L842.7,417.27L842.62,418.11L842.53,418.96L842.42,419.81L842.29,420.66L842.13,421.51L841.96,422.36L841.79,423.11L841.64,423.76L841.48,424.32L841.34,424.79L841.19,425.23L841.04,425.66L840.88,426.06L840.72,426.45L840.44,426.95L840.05,427.56L839.54,428.3L838.9,429.14L838.42,429.79L838.07,430.24L837.87,430.49L837.81,430.53L837.56,430.64L837.11,430.81L836.46,431.05L835.61,431.35L834.76,431.54L833.91,431.62L833.06,431.59L832.21,431.46L831.45,431.3L830.77,431.13L830.18,430.94 M613,425.1L612.53,424.51L612.28,423.86L612.25,423.14L612.44,422.36L612.85,421.51L613.18,420.85L613.41,420.39L613.56,420.11L613.62,420.03L613.82,419.78L614.17,419.35L614.66,418.76L615.3,417.99L615.83,417.36L616.26,416.87L616.57,416.51L616.78,416.29L617.11,415.97L617.54,415.54L618.09,415.02L618.74,414.39L619.28,413.87L619.71,413.48L620.02,413.19L620.21,413.02L620.56,412.72L621.06,412.3L621.72,411.75L622.53,411.07L623.15,410.55L623.57,410.2L623.8,410.01L623.84,409.98L624.08,409.8L624.52,409.46L625.16,408.97L626.01,408.33L626.71,407.8L627.25,407.39L627.65,407.09L627.89,406.92L628.22,406.68L628.64,406.38L629.16,406.02L629.77,405.59L630.38,405.16L630.99,404.74L631.61,404.31L632.23,403.89L632.75,403.54L633.18,403.26L633.5,403.04L633.73,402.89L634.11,402.64L634.65,402.29L635.35,401.84L636.19,401.29L636.89,400.84L637.43,400.49L637.82,400.24L638.06,400.09L638.39,399.89L638.81,399.62L639.33,399.29L639.94,398.91L640.59,398.51L641.27,398.08L641.99,397.64L642.74,397.17L643.33,396.81L643.75,396.55L644.01,396.39L644.11,396.33L644.4,396.15L644.87,395.86L645.53,395.45L646.38,394.93L647.06,394.69L647.59,394.71L647.95,395.02L648.15,395.6L648.25,396.11L648.25,396.55L648.15,396.91L647.95,397.2L647.7,397.56L647.4,397.98L647.06,398.48L646.66,399.03L646.25,399.61L645.83,400.19L645.39,400.79L644.94,401.41L644.55,401.93L644.24,402.35L643.99,402.68L643.81,402.91L643.51,403.3L643.08,403.83L642.54,404.52L641.87,405.36L641.36,405.99L641.02,406.41L640.85,406.63L640.84,406.64L640.64,406.86L640.27,407.29L639.71,407.93L638.97,408.78L638.39,409.44L637.97,409.92L637.71,410.21L637.61,410.32L637.36,410.58L636.95,411L636.38,411.59L635.66,412.33L635.08,412.92L634.66,413.35L634.39,413.63L634.26,413.75L633.97,414.02L633.5,414.45L632.87,415.02L632.07,415.75L631.46,416.31L631.03,416.69L630.8,416.9L630.75,416.94L630.5,417.14L630.05,417.5L629.41,418.01L628.56,418.69L627.88,419.23L627.36,419.63L627.01,419.9L626.83,420.03L626.52,420.25L626.1,420.54L625.55,420.91L624.89,421.35L624.22,421.79L623.54,422.22L622.85,422.63L622.16,423.03L621.6,423.35L621.18,423.59L620.89,423.75L620.73,423.83L620.4,423.98L619.9,424.2L619.22,424.49L618.37,424.85L617.53,425.16L616.68,425.41L615.83,425.61L614.98,425.76L614.23,425.72L613.57,425.5L613,425.1 M522.04,162.27L522.06,162.27" fill="currentColor" fill-opacity="0.9" fill-rule="evenodd" stroke="currentColor" stroke-width="2.50" stroke-linejoin="round" stroke-linecap="round"/>
</g></svg>