<svg xmlns="http://www.w3.org/2000/svg" width="1000" height="1000" viewBox="0 0 1000 1000">
<rect width="1000" height="1000" fill="#c8102e"/>
<path d="M501.19,563.04L500.85,562.94L500.46,562.82L500.04,562.69L499.57,562.54L499.06,562.36L498.47,562.15L497.79,561.89L497.03,561.59L496.18,561.25L495.37,560.91L494.59,560.57L493.85,560.23L493.14,559.9L492.58,559.63L492.15,559.43L491.87,559.29L491.73,559.22L491.41,559.05L490.91,558.79L490.24,558.42L489.39,557.96L488.62,557.54L487.93,557.15L487.32,556.8L486.79,556.48L486.31,556.19L485.88,555.94L485.51,555.71L485.2,555.51L484.75,555.22L484.17,554.84L483.45,554.36L482.6,553.79L481.94,553.35L481.46,553.02L481.16,552.82L481.04,552.73L480.77,552.54L480.35,552.22L479.77,551.79L479.04,551.25L478.39,550.76L477.83,550.34L477.36,549.97L476.98,549.67L476.58,549.35L476.15,549L475.71,548.63L475.24,548.25L474.76,547.84L474.27,547.41L473.76,546.97L473.24,546.51L472.77,546.09L472.35,545.71L471.97,545.36L471.64,545.06L471.26,544.69L470.82,544.27L470.32,543.78L469.78,543.24L469.29,542.76L468.86,542.33L468.5,541.96L468.2,541.64L467.86,541.27L467.47,540.85L467.04,540.37L466.56,539.84L466.11,539.32L465.68,538.83L465.28,538.37L464.91,537.92L464.56,537.49L464.22,537.06L463.89,536.65L463.58,536.25L463.21,535.75L462.79,535.16L462.31,534.47L461.77,533.69L461.36,533.09L461.07,532.67L460.9,532.42L460.86,532.35L460.71,532.09L460.46,531.63L460.11,530.97L459.65,530.12L459.24,529.28L458.89,528.43L458.58,527.58L458.32,526.73L458.31,525.94L458.56,525.22L459.07,524.56L459.83,523.96L460.61,523.59L461.41,523.47L462.24,523.58L463.09,523.92L463.84,524.25L464.49,524.55L465.04,524.83L465.49,525.08L465.92,525.33L466.35,525.58L466.76,525.82L467.16,526.07L467.67,526.39L468.29,526.8L469.03,527.29L469.88,527.85L470.53,528.29L470.98,528.59L471.23,528.76L471.28,528.8L471.52,528.97L471.94,529.27L472.55,529.7L473.35,530.27L474.04,530.77L474.63,531.19L475.12,531.54L475.5,531.82L475.9,532.12L476.33,532.43L476.77,532.76L477.24,533.11L477.75,533.5L478.32,533.92L478.94,534.38L479.6,534.89L480.15,535.3L480.57,535.62L480.87,535.85L481.06,535.99L481.41,536.25L481.92,536.65L482.6,537.17L483.45,537.82L484.11,538.33L484.57,538.68L484.84,538.89L484.92,538.95L485.17,539.14L485.59,539.47L486.19,539.93L486.96,540.53L487.62,541.05L488.17,541.47L488.6,541.81L488.92,542.05L489.29,542.35L489.71,542.68L490.19,543.05L490.72,543.47L491.25,543.89L491.79,544.32L492.33,544.75L492.87,545.18L493.35,545.56L493.78,545.9L494.14,546.19L494.45,546.44L494.86,546.77L495.39,547.2L496.02,547.71L496.75,548.31L497.33,548.79L497.76,549.14L498.03,549.35L498.14,549.45L498.43,549.7L498.91,550.1L499.58,550.67L500.42,551.39L501.07,551.95L501.51,552.32L501.75,552.53L501.79,552.56L502.02,552.77L502.44,553.17L503.06,553.74L503.87,554.49L504.51,555.08L504.96,555.5L505.24,555.76L505.33,555.86L505.59,556.15L506,556.62L506.58,557.28L507.31,558.13L507.86,558.77L508.24,559.21L508.44,559.44L508.46,559.47L508.53,559.69L508.66,560.12L508.84,560.74L509.07,561.56L509.18,562.23L509.18,562.74L509.07,563.1L508.84,563.3L508.45,563.47L507.91,563.61L507.21,563.7L506.36,563.77L505.52,563.77L504.67,563.72L503.82,563.61L502.97,563.44L502.25,563.29L501.65,563.16L501.19,563.04 M657.56,498.56L657.37,498.46L657.07,498.27L656.65,498L656.1,497.64L655.44,497.19L654.81,496.76L654.22,496.33L653.67,495.92L653.15,495.52L652.68,495.14L652.26,494.8L651.88,494.48L651.54,494.2L651.14,493.85L650.66,493.42L650.1,492.93L649.47,492.36L648.95,491.89L648.52,491.5L648.2,491.2L647.98,491L647.65,490.68L647.2,490.26L646.65,489.73L645.98,489.08L645.44,488.56L645.01,488.15L644.71,487.85L644.53,487.68L644.22,487.38L643.79,486.95L643.24,486.4L642.56,485.73L642,485.19L641.58,484.77L641.28,484.48L641.11,484.31L640.82,484.01L640.39,483.59L639.83,483.04L639.14,482.35L638.58,481.8L638.16,481.38L637.87,481.1L637.71,480.94L637.41,480.65L636.98,480.22L636.4,479.67L635.69,478.97L635.13,478.42L634.7,478.01L634.42,477.74L634.28,477.6L633.99,477.32L633.54,476.9L632.94,476.33L632.19,475.61L631.6,475.06L631.18,474.65L630.92,474.41L630.82,474.32L630.54,474.06L630.08,473.64L629.44,473.05L628.61,472.29L627.99,471.71L627.57,471.32L627.34,471.12L627.32,471.1L627.09,470.89L626.65,470.51L626.01,469.94L625.16,469.19L624.5,468.6L624.04,468.19L623.76,467.94L623.67,467.87L623.42,467.65L622.99,467.29L622.4,466.78L621.64,466.13L621.01,465.6L620.51,465.17L620.14,464.86L619.9,464.66L619.57,464.38L619.14,464.04L618.63,463.61L618.02,463.11L617.45,462.65L616.93,462.22L616.45,461.84L616.02,461.49L615.59,461.15L615.17,460.81L614.75,460.47L614.33,460.14L613.85,459.77L613.31,459.34L612.7,458.87L612.04,458.35L611.49,457.93L611.07,457.6L610.76,457.36L610.58,457.23L610.24,456.96L609.72,456.57L609.04,456.06L608.19,455.42L607.53,454.92L607.06,454.56L606.78,454.35L606.69,454.28L606.43,454.09L606,453.78L605.41,453.34L604.66,452.78L603.99,452.29L603.42,451.86L602.93,451.51L602.53,451.22L602.12,450.92L601.7,450.61L601.26,450.29L600.81,449.96L600.29,449.59L599.7,449.16L599.05,448.69L598.33,448.17L597.75,447.76L597.33,447.45L597.05,447.25L596.93,447.16L596.62,446.94L596.13,446.59L595.46,446.11L594.61,445.51L593.93,445.01L593.4,444.63L593.03,444.37L592.82,444.22L592.5,443.99L592.08,443.69L591.54,443.31L590.91,442.85L590.29,442.41L589.7,441.99L589.13,441.58L588.58,441.19L588.09,440.84L587.67,440.54L587.31,440.27L587.01,440.06L586.57,439.74L585.99,439.32L585.28,438.81L584.43,438.19L583.79,437.72L583.36,437.41L583.13,437.24L583.11,437.23L582.89,437.06L582.46,436.75L581.84,436.28L581.01,435.67L580.31,435.15L579.74,434.72L579.31,434.39L579,434.16L578.64,433.88L578.21,433.55L577.73,433.17L577.19,432.75L576.65,432.32L576.12,431.9L575.6,431.47L575.09,431.05L574.63,430.66L574.2,430.29L573.82,429.96L573.48,429.65L573.11,429.29L572.7,428.86L572.25,428.38L571.76,427.84L571.51,427.36L571.51,426.94L571.76,426.6L572.25,426.31L572.82,426.16L573.49,426.14L574.25,426.26L575.1,426.51L575.76,426.71L576.22,426.85L576.5,426.94L576.59,426.97L576.84,427.08L577.27,427.25L577.86,427.49L578.62,427.81L579.41,428.14L580.21,428.49L581.04,428.87L581.89,429.26L582.59,429.59L583.16,429.86L583.59,430.06L583.88,430.2L584.23,430.38L584.66,430.6L585.15,430.85L585.71,431.14L586.34,431.47L587.05,431.84L587.83,432.26L588.67,432.72L589.36,433.09L589.87,433.37L590.22,433.56L590.4,433.66L590.7,433.83L591.13,434.07L591.67,434.39L592.34,434.77L593.04,435.18L593.76,435.6L594.51,436.04L595.28,436.51L595.88,436.87L596.31,437.12L596.56,437.27L596.63,437.32L596.89,437.48L597.35,437.77L598.01,438.18L598.86,438.71L599.6,439.18L600.24,439.58L600.77,439.92L601.2,440.19L601.62,440.46L602.05,440.74L602.47,441.01L602.89,441.29L603.42,441.64L604.06,442.06L604.8,442.56L605.65,443.12L606.28,443.55L606.71,443.84L606.93,443.98L606.94,443.99L607.15,444.14L607.58,444.43L608.21,444.86L609.05,445.44L609.78,445.94L610.39,446.37L610.89,446.71L611.28,446.98L611.68,447.27L612.11,447.57L612.55,447.88L613.01,448.21L613.54,448.58L614.14,449.01L614.8,449.48L615.53,450L616.1,450.41L616.53,450.72L616.8,450.91L616.92,451L617.22,451.22L617.71,451.57L618.37,452.06L619.22,452.68L619.91,453.18L620.43,453.56L620.79,453.82L620.98,453.96L621.29,454.19L621.72,454.5L622.25,454.9L622.91,455.39L623.52,455.84L624.09,456.26L624.63,456.66L625.12,457.02L625.57,457.37L626,457.68L626.39,457.97L626.75,458.24L627.21,458.59L627.77,459.01L628.44,459.52L629.21,460.1L629.81,460.55L630.23,460.87L630.48,461.05L630.56,461.11L630.83,461.32L631.3,461.67L631.95,462.17L632.8,462.82L633.48,463.34L634,463.73L634.35,464L634.54,464.15L634.84,464.38L635.27,464.71L635.81,465.13L636.47,465.64L637.08,466.11L637.63,466.53L638.11,466.91L638.54,467.25L638.97,467.58L639.4,467.92L639.82,468.25L640.24,468.58L640.71,468.96L641.24,469.38L641.83,469.85L642.48,470.37L643.01,470.8L643.44,471.14L643.75,471.39L643.95,471.56L644.31,471.85L644.82,472.28L645.49,472.83L646.31,473.52L646.94,474.04L647.36,474.39L647.59,474.58L647.61,474.6L647.84,474.8L648.28,475.18L648.92,475.74L649.77,476.48L650.43,477.06L650.9,477.47L651.19,477.72L651.28,477.81L651.54,478.05L651.97,478.45L652.56,479L653.31,479.7L653.91,480.27L654.36,480.69L654.66,480.98L654.8,481.12L655.08,481.41L655.51,481.85L656.07,482.43L656.78,483.17L657.33,483.74L657.73,484.17L657.99,484.44L658.09,484.55L658.34,484.85L658.74,485.33L659.29,486L659.98,486.85L660.52,487.5L660.89,487.96L661.1,488.22L661.15,488.29L661.32,488.54L661.59,488.96L661.98,489.56L662.48,490.34L662.95,491.13L663.37,491.92L663.76,492.72L664.1,493.52L664.37,494.13L664.55,494.56L664.64,494.79L664.66,494.84L664.67,495.09L664.69,495.53L664.71,496.18L664.72,497.03L664.73,497.68L664.72,498.15L664.7,498.41L664.67,498.49L664.43,498.63L663.99,498.83L663.35,499.11L662.5,499.45L661.65,499.62L660.8,499.64L659.95,499.49L659.11,499.18L658.42,498.92L657.91,498.71L657.56,498.56 M453.8,393.41L453.54,393.28L453.2,393.06L452.78,392.75L452.27,392.35L451.67,391.86L451.17,391.41L450.76,390.98L450.43,390.59L450.2,390.23L449.98,389.75L449.79,389.14L449.62,388.41L449.47,387.57L449.43,386.72L449.5,385.87L449.68,385.02L449.98,384.17L450.22,383.5L450.41,383.01L450.56,382.7L450.65,382.57L450.92,382.29L451.38,381.86L452.02,381.29L452.84,380.58L453.47,380.04L453.89,379.67L454.12,379.48L454.14,379.47L454.37,379.38L454.81,379.21L455.45,378.95L456.3,378.62L457.15,378.34L458,378.11L458.84,377.92L459.69,377.79L460.54,377.69L461.39,377.63L462.24,377.59L463.09,377.59L463.94,377.62L464.78,377.67L465.63,377.75L466.48,377.86L467.33,377.98L468.18,378.13L469.03,378.3L469.88,378.49L470.67,378.68L471.39,378.86L472.06,379.05L472.68,379.23L473.19,379.39L473.62,379.52L473.95,379.62L474.19,379.71L474.58,379.85L475.12,380.05L475.82,380.32L476.66,380.65L477.51,380.99L478.36,381.35L479.21,381.73L480.06,382.12L480.72,382.43L481.19,382.65L481.47,382.78L481.56,382.83L481.82,382.97L482.25,383.2L482.84,383.52L483.59,383.93L484.33,384.35L485.05,384.78L485.75,385.2L486.44,385.64L486.99,385.99L487.42,386.27L487.71,386.47L487.88,386.58L488.2,386.85L488.7,387.27L489.36,387.85L490.18,388.59L490.8,389.14L491.23,389.53L491.45,389.73L491.48,389.76L491.5,389.99L491.52,390.42L491.53,391.04L491.54,391.85L491.54,392.47L491.54,392.88L491.54,393.09L491.53,393.1L491.31,393.18L490.88,393.34L490.24,393.57L489.39,393.88L488.54,394.14L487.7,394.36L486.85,394.53L486,394.67L485.15,394.78L484.3,394.89L483.45,394.98L482.6,395.07L481.76,395.14L480.91,395.21L480.06,395.27L479.21,395.33L478.36,395.38L477.51,395.43L476.66,395.47L475.82,395.51L474.97,395.55L474.12,395.58L473.27,395.61L472.42,395.63L471.57,395.65L470.72,395.67L469.88,395.67L469.03,395.68L468.18,395.67L467.33,395.66L466.48,395.65L465.63,395.62L464.78,395.58L463.94,395.54L463.09,395.48L462.24,395.41L461.39,395.32L460.54,395.21L459.69,395.09L458.84,394.94L458,394.77L457.15,394.55L456.3,394.31L455.45,394.03L454.75,393.78L454.2,393.58L453.8,393.41 M704.74,223.65L704.32,223.54L703.91,223.42L703.48,223.29L703.05,223.15L702.61,223.01L702.07,222.82L701.43,222.59L700.69,222.3L699.84,221.98L698.99,221.64L698.14,221.28L697.29,220.92L696.44,220.54L695.81,220.26L695.38,220.07L695.17,219.97L695.17,219.97L694.96,219.87L694.53,219.66L693.9,219.35L693.05,218.94L692.21,218.52L691.37,218.09L690.55,217.66L689.73,217.23L689.11,216.9L688.68,216.68L688.46,216.55L688.43,216.54L688.19,216.4L687.75,216.15L687.11,215.79L686.26,215.3L685.48,214.85L684.77,214.43L684.14,214.05L683.57,213.71L683.07,213.4L682.65,213.14L682.3,212.92L682.01,212.74L681.59,212.46L681.03,212.07L680.32,211.59L679.47,211L678.81,210.55L678.33,210.21L678.03,210L677.92,209.92L677.65,209.7L677.22,209.36L676.64,208.88L675.91,208.27L675.3,207.75L674.81,207.33L674.44,207L674.2,206.76L673.9,206.36L673.56,205.82L673.15,205.12L672.69,204.28L672.53,203.54L672.65,202.92L673.06,202.41L673.76,202.02L674.49,201.74L675.27,201.58L676.08,201.53L676.93,201.59L677.77,201.69L678.62,201.82L679.47,201.98L680.32,202.18L681.07,202.36L681.71,202.52L682.25,202.67L682.69,202.8L683.13,202.94L683.55,203.07L683.97,203.21L684.37,203.35L684.89,203.54L685.52,203.78L686.26,204.07L687.11,204.4L687.95,204.75L688.78,205.1L689.59,205.47L690.4,205.84L691.02,206.12L691.44,206.32L691.68,206.43L691.72,206.45L691.96,206.57L692.4,206.81L693.05,207.15L693.9,207.6L694.69,208.03L695.44,208.44L696.14,208.84L696.78,209.22L697.32,209.54L697.74,209.79L698.06,209.98L698.26,210.11L698.62,210.35L699.15,210.7L699.84,211.17L700.69,211.75L701.37,212.22L701.89,212.58L702.25,212.83L702.44,212.97L702.75,213.21L703.17,213.55L703.71,213.98L704.37,214.51L704.95,214.99L705.45,215.41L705.88,215.78L706.23,216.1L706.61,216.47L707.04,216.9L707.5,217.37L708,217.9L708.43,218.38L708.81,218.8L709.11,219.17L709.36,219.49L709.6,219.95L709.83,220.53L710.06,221.25L710.29,222.1L710.34,222.79L710.22,223.32L709.92,223.69L709.45,223.9L708.89,224.04L708.23,224.1L707.47,224.07L706.63,223.97L705.89,223.86L705.26,223.76L704.74,223.65" fill="#ffffff" fill-opacity="0.9" fill-rule="evenodd" stroke="#ffffff" stroke-width="2.50" stroke-linejoin="round" stroke-linecap="round"/>
<path d="M704.48,590.38L704.28,590.35L704.01,590.32L703.69,590.28L703.32,590.23L702.89,590.18L702.41,590.11L701.88,590.04L701.3,589.96L700.66,589.87L700.02,589.78L699.39,589.68L698.75,589.58L698.12,589.48L697.48,589.38L696.84,589.28L696.21,589.17L695.57,589.06L694.94,588.95L694.3,588.84L693.66,588.73L693.03,588.61L692.39,588.49L691.76,588.37L691.12,588.24L690.48,588.12L689.96,588.01L689.55,587.93L689.25,587.87L689.06,587.83L688.81,587.77L688.49,587.71L688.11,587.63L687.66,587.53L687.16,587.42L686.62,587.3L686.03,587.17L685.4,587.03L684.76,586.88L684.12,586.74L683.49,586.59L682.85,586.43L682.22,586.28L681.58,586.12L680.94,585.96L680.31,585.8L679.75,585.66L679.28,585.54L678.88,585.44L678.57,585.35L678.25,585.27L677.93,585.18L677.61,585.1L677.29,585.01L676.89,584.9L676.41,584.77L675.86,584.62L675.22,584.44L674.58,584.26L673.95,584.07L673.31,583.89L672.68,583.7L672.05,583.52L671.43,583.33L670.82,583.14L670.22,582.96L669.76,582.82L669.44,582.72L669.26,582.67L669.23,582.65L669.04,582.6L668.71,582.49L668.22,582.33L667.59,582.13L666.95,581.92L666.32,581.71L665.68,581.5L665.04,581.29L664.42,581.08L663.8,580.87L663.2,580.66L662.6,580.45L662.15,580.29L661.83,580.18L661.65,580.12L661.61,580.1L661.42,580.03L661.08,579.91L660.59,579.73L659.96,579.5L659.32,579.27L658.68,579.03L658.05,578.79L657.41,578.55L656.84,578.34L656.33,578.14L655.88,577.97L655.5,577.82L655.14,577.68L654.83,577.56L654.54,577.44L654.29,577.35L653.94,577.21L653.5,577.03L652.96,576.81L652.32,576.55L651.69,576.29L651.05,576.03L650.42,575.77L649.78,575.5L649.3,575.29L648.96,575.15L648.78,575.08L648.76,575.07L648.58,574.99L648.26,574.85L647.8,574.65L647.19,574.39L646.58,574.12L645.96,573.84L645.33,573.56L644.69,573.28L644.17,573.04L643.76,572.85L643.46,572.72L643.27,572.63L643.02,572.52L642.7,572.37L642.32,572.19L641.87,571.98L641.37,571.75L640.83,571.49L640.24,571.21L639.6,570.9L639.07,570.64L638.62,570.43L638.28,570.26L638.03,570.14L637.75,570L637.43,569.85L637.08,569.67L636.69,569.48L636.24,569.25L635.73,568.99L635.15,568.7L634.52,568.37L633.98,568.1L633.55,567.88L633.23,567.71L633,567.59L632.73,567.45L632.41,567.28L632.05,567.09L631.64,566.87L631.17,566.62L630.64,566.34L630.06,566.03L629.43,565.68L628.92,565.4L628.53,565.2L628.28,565.05L628.14,564.98L627.92,564.86L627.6,564.68L627.19,564.45L626.69,564.16L626.15,563.86L625.6,563.55L625.01,563.21L624.4,562.86L623.93,562.59L623.61,562.41L623.44,562.31L623.42,562.3L623.24,562.19L622.91,562L622.43,561.71L621.8,561.33L621.22,560.99L620.7,560.67L620.24,560.4L619.83,560.15L619.47,559.93L619.15,559.74L618.88,559.57L618.65,559.42L618.31,559.22L617.88,558.94L617.34,558.61L616.71,558.21L616.19,557.89L615.8,557.64L615.54,557.47L615.39,557.38L615.16,557.23L614.84,557.02L614.44,556.76L613.95,556.44L613.46,556.12L612.97,555.8L612.49,555.48L612.02,555.17L611.62,554.91L611.3,554.69L611.06,554.53L610.9,554.43L610.63,554.24L610.23,553.96L609.71,553.61L609.08,553.17L608.57,552.82L608.18,552.56L607.92,552.38L607.79,552.29L607.57,552.13L607.25,551.91L606.84,551.61L606.33,551.25L605.86,550.92L605.41,550.6L605,550.3L604.61,550.02L604.26,549.77L603.94,549.54L603.66,549.33L603.41,549.14L603.07,548.89L602.64,548.57L602.13,548.19L601.52,547.74L601.06,547.4L600.74,547.16L600.57,547.03L600.54,547L600.35,546.86L600.02,546.6L599.54,546.23L598.9,545.74L598.38,545.34L597.99,545.03L597.71,544.82L597.56,544.7L597.32,544.51L597.01,544.26L596.61,543.94L596.12,543.55L595.69,543.2L595.29,542.88L594.94,542.6L594.63,542.35L594.31,542.09L593.99,541.83L593.67,541.57L593.35,541.29L592.99,541L592.61,540.68L592.2,540.34L591.77,539.98L591.39,539.66L591.07,539.39L590.81,539.17L590.61,539L590.33,538.75L589.96,538.44L589.51,538.05L588.97,537.58L588.55,537.21L588.23,536.94L588.02,536.75L587.92,536.66L587.69,536.46L587.34,536.14L586.85,535.71L586.24,535.16L585.78,534.75L585.46,534.46L585.29,534.31L585.26,534.28L585.09,534.12L584.75,533.81L584.27,533.36L583.64,532.77L583.15,532.32L582.82,532.02L582.65,531.85L582.62,531.83L582.45,531.67L582.13,531.36L581.67,530.92L581.06,530.33L580.58,529.88L580.25,529.56L580.06,529.37L580.01,529.33L579.83,529.15L579.51,528.83L579.06,528.38L578.47,527.8L578.02,527.35L577.7,527.03L577.51,526.84L577.46,526.79L577.27,526.6L576.95,526.28L576.5,525.81L575.92,525.21L575.48,524.76L575.17,524.44L574.99,524.26L574.96,524.22L574.78,524.04L574.46,523.7L574,523.21L573.41,522.58L572.81,521.94L572.23,521.31L571.64,520.67L571.06,520.03L570.62,519.54L570.3,519.19L570.11,518.98L570.05,518.91L569.88,518.71L569.6,518.39L569.21,517.95L568.71,517.39L568.3,516.92L567.98,516.55L567.75,516.29L567.62,516.12L567.42,515.88L567.15,515.56L566.81,515.17L566.4,514.7L566.04,514.27L565.72,513.89L565.45,513.55L565.22,513.26L564.97,512.96L564.71,512.64L564.43,512.31L564.14,511.96L563.84,511.6L563.52,511.2L563.19,510.78L562.84,510.34L562.55,509.95L562.29,509.64L562.09,509.38L561.93,509.19L561.69,508.89L561.37,508.48L560.97,507.97L560.5,507.35L560.14,506.87L559.9,506.56L559.77,506.39L559.76,506.38L559.63,506.21L559.39,505.89L559.03,505.41L558.56,504.77L558.17,504.23L557.86,503.8L557.62,503.47L557.47,503.23L557.28,502.96L557.05,502.64L556.79,502.28L556.49,501.88L556.18,501.45L555.86,501L555.53,500.52L555.2,500.01L554.92,499.6L554.7,499.29L554.54,499.06L554.44,498.93L554.25,498.67L553.99,498.28L553.65,497.77L553.22,497.14L552.88,496.61L552.61,496.19L552.43,495.88L552.32,495.67L552.16,495.41L551.96,495.09L551.7,494.72L551.4,494.29L551.1,493.82L550.78,493.32L550.45,492.78L550.11,492.21L549.85,491.77L549.65,491.45L549.53,491.26L549.47,491.19L549.34,490.98L549.12,490.63L548.82,490.14L548.44,489.51L548.11,488.89L547.82,488.29L547.57,487.7L547.37,487.13L547.17,486.69L546.99,486.37L546.77,486.16L546.39,486.01L546.77,485.92L547.1,485.88L547.5,485.85L548.02,485.82L548.65,485.79L549.29,485.76L549.93,485.74L550.56,485.73L551.2,485.71L551.83,485.7L552.47,485.69L553.11,485.67L553.74,485.65L554.38,485.63L555.01,485.61L555.65,485.58L556.29,485.56L556.92,485.53L557.56,485.5L558.19,485.46L558.83,485.43L559.47,485.39L560.1,485.34L560.74,485.3L561.37,485.25L562.01,485.2L562.65,485.15L563.28,485.09L563.92,485.03L564.55,484.97L565.19,484.91L565.83,484.84L566.46,484.77L567.1,484.69L567.73,484.62L568.37,484.53L569.01,484.45L569.64,484.36L570.28,484.27L570.91,484.18L571.55,484.08L572.19,483.98L572.82,483.87L573.46,483.76L574.09,483.65L574.58,483.56L574.9,483.5L575.07,483.47L575.08,483.47L575.25,483.44L575.57,483.38L576.04,483.3L576.66,483.19L577.29,483.08L577.91,482.96L578.55,482.84L579.18,482.71L579.82,482.58L580.45,482.44L581.09,482.3L581.73,482.15L582.36,482L583,481.85L583.64,481.69L584.27,481.52L584.82,481.38L585.29,481.25L585.67,481.14L585.97,481.05L586.28,480.96L586.59,480.88L586.92,480.79L587.26,480.7L587.67,480.59L588.16,480.46L588.72,480.3L589.36,480.11L590,479.92L590.63,479.73L591.27,479.52L591.9,479.31L592.49,479.12L593.02,478.94L593.49,478.77L593.91,478.61L594.28,478.48L594.6,478.36L594.87,478.27L595.08,478.2L595.4,478.09L595.82,477.94L596.36,477.74L596.99,477.51L597.63,477.26L598.26,477.01L598.9,476.75L599.54,476.49L600.05,476.27L600.43,476.11L600.7,475.99L600.84,475.93L601.07,475.83L601.38,475.69L601.79,475.51L602.29,475.3L602.82,475.07L603.39,474.81L603.99,474.53L604.62,474.23L605.16,473.97L605.59,473.75L605.92,473.59L606.14,473.47L606.41,473.33L606.73,473.17L607.09,472.98L607.51,472.78L607.97,472.54L608.5,472.26L609.08,471.94L609.71,471.59L610.22,471.31L610.6,471.09L610.86,470.94L610.99,470.86L611.21,470.73L611.53,470.54L611.94,470.3L612.45,470L612.96,469.7L613.47,469.38L613.99,469.05L614.51,468.71L614.93,468.44L615.25,468.23L615.47,468.09L615.58,468.02L615.83,467.86L616.2,467.6L616.71,467.25L617.34,466.81L617.86,466.45L618.26,466.17L618.54,465.97L618.71,465.84L618.95,465.66L619.26,465.42L619.66,465.13L620.13,464.77L620.57,464.44L620.98,464.12L621.36,463.82L621.7,463.54L622.03,463.26L622.35,463L622.66,462.75L622.95,462.52L623.28,462.24L623.65,461.92L624.06,461.56L624.5,461.16L624.88,460.82L625.2,460.54L625.46,460.31L625.65,460.14L625.91,459.9L626.24,459.58L626.65,459.19L627.12,458.72L627.52,458.33L627.84,458.02L628.08,457.79L628.24,457.63L628.47,457.39L628.77,457.07L629.14,456.67L629.59,456.2L629.97,455.78L630.29,455.44L630.54,455.16L630.73,454.95L630.96,454.68L631.24,454.37L631.55,453.99L631.91,453.57L632.25,453.17L632.57,452.78L632.87,452.42L633.14,452.07L633.41,451.74L633.66,451.42L633.89,451.12L634.12,450.83L634.39,450.46L634.7,450.03L635.07,449.52L635.48,448.94L635.8,448.5L636.03,448.18L636.16,447.99L636.2,447.93L636.34,447.73L636.56,447.38L636.88,446.89L637.29,446.26L637.65,445.7L637.95,445.23L638.19,444.84L638.37,444.53L638.56,444.22L638.75,443.9L638.94,443.58L639.13,443.25L639.35,442.85L639.62,442.36L639.92,441.81L640.26,441.17L640.54,440.64L640.76,440.21L640.93,439.88L641.03,439.66L641.16,439.39L641.32,439.07L641.49,438.71L641.69,438.29L641.91,437.82L642.15,437.3L642.41,436.72L642.68,436.08L642.93,435.5L643.15,434.97L643.34,434.5L643.5,434.08L643.64,433.71L643.76,433.39L643.87,433.13L643.95,432.91L644.07,432.59L644.22,432.16L644.41,431.63L644.63,430.99L644.84,430.36L645.05,429.72L645.25,429.09L645.44,428.45L645.62,427.84L645.79,427.26L645.94,426.7L646.07,426.18L646.19,425.75L646.27,425.44L646.33,425.22L646.36,425.11L646.41,424.87L646.5,424.5L646.62,424L646.77,423.36L646.91,422.73L647.05,422.09L647.18,421.45L647.3,420.82L647.42,420.18L647.53,419.55L647.64,418.91L647.74,418.27L647.84,417.64L647.93,417L648.02,416.36L648.1,415.73L648.17,415.09L648.24,414.46L648.31,413.82L648.37,413.18L648.43,412.55L648.48,411.91L648.53,411.28L648.57,410.64L648.61,410L648.64,409.37L648.67,408.73L648.69,408.1L648.71,407.46L648.73,406.82L648.74,406.19L648.74,405.55L648.74,404.92L648.74,404.28L648.74,403.64L648.73,403.01L648.71,402.37L648.69,401.74L648.67,401.1L648.64,400.46L648.61,399.83L648.58,399.19L648.54,398.56L648.5,397.92L648.45,397.28L648.4,396.65L648.34,396.01L648.28,395.38L648.22,394.74L648.15,394.1L648.08,393.47L648.01,392.83L647.93,392.2L647.85,391.56L647.76,390.92L647.67,390.29L647.57,389.65L647.47,389.02L647.37,388.38L647.26,387.74L647.15,387.11L647.04,386.47L646.92,385.84L646.8,385.2L646.68,384.63L646.58,384.11L646.49,383.66L646.41,383.28L646.33,382.92L646.26,382.6L646.2,382.32L646.15,382.07L646.07,381.73L645.97,381.29L645.84,380.75L645.69,380.11L645.54,379.48L645.39,378.84L645.22,378.2L645.06,377.57L644.89,376.93L644.72,376.3L644.54,375.66L644.36,375.02L644.2,374.47L644.07,374.01L643.96,373.62L643.87,373.32L643.78,373.02L643.68,372.7L643.58,372.37L643.47,372.03L643.34,371.62L643.19,371.13L643.01,370.57L642.8,369.94L642.59,369.3L642.38,368.66L642.16,368.03L641.93,367.39L641.74,366.84L641.58,366.38L641.45,366L641.35,365.71L641.24,365.41L641.12,365.09L640.99,364.76L640.86,364.41L640.7,364L640.5,363.5L640.28,362.94L640.04,362.3L639.79,361.68L639.54,361.05L639.28,360.44L639.03,359.83L638.84,359.37L638.7,359.05L638.63,358.88L638.62,358.85L638.54,358.67L638.39,358.34L638.18,357.85L637.91,357.22L637.63,356.58L637.35,355.94L637.06,355.31L636.76,354.67L636.53,354.16L636.35,353.77L636.24,353.5L636.19,353.36L636.08,353.13L635.93,352.81L635.73,352.41L635.48,351.91L635.21,351.39L634.93,350.82L634.62,350.22L634.3,349.58L634.04,349.05L633.85,348.63L633.72,348.3L633.66,348.08L633.54,347.82L633.38,347.5L633.16,347.13L632.89,346.71L632.75,346.3L632.75,345.9L632.89,345.5L633.16,345.1L633.52,344.8L633.97,344.58L634.52,344.46L635.15,344.42L635.79,344.4L636.42,344.39L637.06,344.4L637.7,344.42L638.33,344.44L638.97,344.47L639.6,344.51L640.24,344.54L640.88,344.58L641.51,344.63L642.15,344.67L642.78,344.72L643.42,344.78L644.06,344.83L644.69,344.89L645.33,344.94L645.96,345.01L646.6,345.07L647.24,345.14L647.87,345.2L648.51,345.28L649.14,345.35L649.78,345.42L650.42,345.5L651.05,345.58L651.69,345.66L652.32,345.75L652.96,345.83L653.49,345.91L653.9,345.96L654.2,346.01L654.4,346.04L654.65,346.08L654.97,346.13L655.35,346.19L655.79,346.26L656.28,346.34L656.82,346.42L657.41,346.52L658.05,346.63L658.68,346.74L659.32,346.85L659.96,346.97L660.59,347.08L661.23,347.2L661.86,347.32L662.5,347.44L663.14,347.57L663.77,347.69L664.41,347.82L665.04,347.95L665.68,348.08L666.25,348.2L666.76,348.31L667.21,348.41L667.6,348.5L667.95,348.58L668.27,348.65L668.55,348.71L668.8,348.77L669.15,348.85L669.59,348.95L670.13,349.08L670.77,349.23L671.4,349.38L672.04,349.54L672.68,349.7L673.31,349.85L673.95,350.02L674.58,350.18L675.22,350.35L675.86,350.51L676.42,350.66L676.92,350.8L677.36,350.92L677.72,351.02L678.06,351.12L678.38,351.2L678.68,351.29L678.95,351.36L679.31,351.46L679.76,351.59L680.31,351.75L680.94,351.94L681.58,352.12L682.22,352.32L682.85,352.51L683.49,352.7L684.11,352.89L684.71,353.08L685.29,353.27L685.86,353.45L686.3,353.59L686.62,353.69L686.81,353.75L686.88,353.77L687.09,353.84L687.45,353.96L687.94,354.12L688.58,354.34L689.21,354.55L689.85,354.77L690.48,354.99L691.12,355.21L691.72,355.42L692.29,355.62L692.82,355.81L693.32,355.99L693.73,356.14L694.05,356.25L694.28,356.34L694.41,356.38L694.67,356.48L695.06,356.62L695.57,356.82L696.21,357.06L696.84,357.3L697.48,357.54L698.12,357.79L698.75,358.03L699.29,358.24L699.73,358.42L700.07,358.56L700.32,358.66L700.6,358.77L700.92,358.9L701.27,359.04L701.66,359.2L702.12,359.38L702.63,359.59L703.2,359.83L703.84,360.1L704.44,360.35L705,360.59L705.53,360.82L706.02,361.03L706.42,361.21L706.74,361.34L706.97,361.45L707.12,361.51L707.39,361.63L707.78,361.8L708.29,362.03L708.93,362.32L709.56,362.6L710.19,362.89L710.81,363.18L711.43,363.46L711.9,363.68L712.22,363.83L712.39,363.91L712.4,363.91L712.57,363.99L712.9,364.15L713.38,364.38L714.02,364.68L714.65,364.99L715.29,365.3L715.92,365.61L716.56,365.93L717.04,366.17L717.37,366.33L717.54,366.41L717.56,366.42L717.73,366.51L718.05,366.67L718.52,366.91L719.13,367.22L719.75,367.54L720.36,367.86L720.98,368.18L721.59,368.5L722.05,368.74L722.37,368.91L722.54,369L722.57,369.01L722.74,369.11L723.07,369.29L723.56,369.55L724.19,369.9L724.79,370.22L725.36,370.54L725.89,370.83L726.39,371.11L726.8,371.34L727.12,371.51L727.35,371.64L727.48,371.72L727.75,371.87L728.13,372.09L728.64,372.38L729.28,372.75L729.84,373.07L730.32,373.35L730.72,373.59L731.05,373.78L731.37,373.97L731.69,374.16L732,374.35L732.31,374.53L732.7,374.77L733.18,375.05L733.73,375.39L734.37,375.78L734.87,376.08L735.24,376.31L735.48,376.45L735.58,376.52L735.79,376.65L736.1,376.85L736.53,377.12L737.07,377.45L737.58,377.78L738.08,378.1L738.56,378.41L739.03,378.71L739.42,378.96L739.74,379.17L739.98,379.33L740.15,379.44L740.44,379.63L740.84,379.89L741.36,380.24L742,380.66L742.51,381.01L742.91,381.27L743.18,381.45L743.32,381.55L743.56,381.71L743.88,381.93L744.28,382.2L744.77,382.54L745.24,382.87L745.7,383.18L746.14,383.49L746.57,383.79L746.94,384.06L747.26,384.28L747.52,384.47L747.73,384.62L748.05,384.84L748.47,385.15L749,385.53L749.63,385.99L750.12,386.35L750.45,386.59L750.64,386.72L750.68,386.75L750.85,386.88L751.17,387.12L751.63,387.46L752.23,387.91L752.74,388.3L753.16,388.62L753.5,388.87L753.74,389.05L754.02,389.27L754.34,389.52L754.69,389.79L755.09,390.09L755.49,390.4L755.89,390.72L756.31,391.05L756.73,391.38L757.1,391.67L757.42,391.92L757.68,392.14L757.9,392.31L758.2,392.55L758.59,392.87L759.07,393.26L759.64,393.73L760.09,394.09L760.4,394.35L760.6,394.51L760.66,394.56L760.87,394.74L761.22,395.03L761.72,395.45L762.35,395.98L762.84,396.4L763.19,396.69L763.39,396.85L763.44,396.9L763.62,397.06L763.94,397.34L764.39,397.73L764.98,398.23L765.45,398.65L765.81,398.97L766.07,399.19L766.21,399.32L766.45,399.52L766.76,399.81L767.17,400.17L767.66,400.61L768.08,400.99L768.43,401.31L768.71,401.57L768.93,401.76L769.19,402.01L769.51,402.3L769.88,402.64L770.3,403.04L770.69,403.39L771.03,403.71L771.32,403.99L771.58,404.23L771.87,404.51L772.19,404.81L772.54,405.15L772.91,405.51L773.27,405.85L773.6,406.17L773.9,406.46L774.18,406.74L774.48,407.03L774.79,407.34L775.13,407.68L775.49,408.03L775.83,408.37L776.15,408.69L776.44,408.99L776.72,409.27L777.02,409.57L777.33,409.89L777.67,410.24L778.03,410.61L778.37,410.96L778.67,411.27L778.95,411.57L779.21,411.83L779.49,412.13L779.81,412.47L780.16,412.84L780.54,413.25L780.88,413.61L781.18,413.93L781.43,414.2L781.65,414.43L781.91,414.72L782.23,415.07L782.6,415.48L783.02,415.95L783.38,416.34L783.67,416.66L783.88,416.9L784.03,417.07L784.27,417.33L784.59,417.69L784.99,418.15L785.47,418.71L785.86,419.15L786.13,419.47L786.31,419.67L786.37,419.74L786.56,419.96L786.86,420.32L787.28,420.82L787.82,421.45L788.23,421.94L788.51,422.28L788.67,422.46L788.7,422.5L788.85,422.68L789.1,423L789.48,423.46L789.96,424.05L790.37,424.55L790.68,424.94L790.92,425.23L791.07,425.42L791.27,425.68L791.52,425.99L791.82,426.38L792.17,426.82L792.5,427.25L792.82,427.66L793.12,428.06L793.41,428.43L793.67,428.77L793.91,429.09L794.13,429.38L794.33,429.65L794.59,429.99L794.91,430.42L795.29,430.93L795.72,431.53L796.06,431.99L796.29,432.3L796.42,432.48L796.45,432.52L796.59,432.71L796.83,433.05L797.17,433.54L797.62,434.17L798,434.71L798.3,435.14L798.53,435.47L798.69,435.7L798.88,435.97L799.09,436.29L799.34,436.65L799.62,437.06L799.92,437.5L800.23,437.98L800.57,438.49L800.93,439.03L801.21,439.46L801.42,439.78L801.56,439.99L801.62,440.08L801.76,440.31L801.99,440.67L802.31,441.17L802.71,441.81L803.06,442.35L803.35,442.81L803.58,443.19L803.75,443.47L803.94,443.77L804.13,444.09L804.33,444.42L804.55,444.78L804.8,445.2L805.09,445.69L805.43,446.26L805.8,446.89L806.09,447.39L806.3,447.76L806.43,447.98L806.48,448.07L806.59,448.27L806.77,448.59L807.02,449.02L807.32,449.57L807.64,450.13L807.95,450.71L808.28,451.31L808.61,451.92L808.86,452.39L809.03,452.7L809.12,452.87L809.13,452.9L809.22,453.08L809.39,453.41L809.64,453.89L809.97,454.53L810.29,455.15L810.6,455.77L810.91,456.38L811.2,456.98L811.43,457.44L811.58,457.76L811.67,457.94L811.69,457.97L811.77,458.16L811.93,458.49L812.16,458.98L812.46,459.61L812.75,460.25L813.04,460.89L813.33,461.52L813.61,462.16L813.84,462.66L814,463.02L814.09,463.24L814.13,463.33L814.22,463.53L814.35,463.85L814.54,464.29L814.77,464.83L815.01,465.4L815.25,466L815.5,466.61L815.75,467.25L815.98,467.82L816.18,468.34L816.36,468.79L816.51,469.19L816.64,469.55L816.76,469.87L816.87,470.14L816.96,470.38L817.08,470.72L817.24,471.16L817.43,471.7L817.66,472.33L817.88,472.97L818.1,473.61L818.31,474.24L818.52,474.88L818.71,475.44L818.87,475.94L819,476.36L819.11,476.71L819.22,477.05L819.31,477.37L819.41,477.67L819.49,477.95L819.61,478.32L819.74,478.78L819.9,479.33L820.08,479.97L820.26,480.6L820.43,481.24L820.6,481.87L820.77,482.51L820.93,483.15L821.09,483.78L821.25,484.42L821.4,485.05L821.53,485.59L821.63,486.01L821.7,486.34L821.75,486.56L821.81,486.83L821.88,487.15L821.95,487.51L822.04,487.93L822.14,488.4L822.25,488.93L822.36,489.51L822.48,490.14L822.6,490.78L822.72,491.41L822.83,492.05L822.93,492.69L823.04,493.32L823.14,493.96L823.23,494.59L823.32,495.23L823.41,495.87L823.49,496.5L823.57,497.14L823.65,497.77L823.72,498.41L823.78,499.05L823.85,499.68L823.91,500.32L823.96,500.95L824.01,501.59L824.06,502.23L824.1,502.86L824.14,503.5L824.17,504.13L824.21,504.77L824.23,505.41L824.25,506.04L824.27,506.68L824.28,507.31L824.29,507.95L824.3,508.59L824.3,509.22L824.29,509.86L824.29,510.49L824.27,511.13L824.26,511.77L824.23,512.4L824.21,513.04L824.18,513.67L824.14,514.31L824.1,514.95L824.06,515.58L824.01,516.22L823.96,516.85L823.9,517.49L823.83,518.13L823.77,518.76L823.69,519.4L823.61,520.03L823.53,520.67L823.44,521.31L823.35,521.94L823.25,522.58L823.15,523.21L823.04,523.85L822.93,524.49L822.81,525.12L822.69,525.76L822.56,526.39L822.42,527.03L822.28,527.67L822.14,528.3L822.02,528.8L821.94,529.17L821.88,529.4L821.86,529.5L821.8,529.71L821.72,530.02L821.61,530.45L821.46,530.99L821.31,531.56L821.14,532.14L820.96,532.75L820.77,533.39L820.57,534.03L820.37,534.66L820.16,535.3L819.95,535.93L819.76,536.47L819.61,536.9L819.49,537.23L819.41,537.47L819.3,537.74L819.18,538.06L819.04,538.42L818.89,538.82L818.71,539.29L818.49,539.81L818.25,540.39L817.98,541.02L817.73,541.61L817.49,542.16L817.26,542.66L817.05,543.12L816.87,543.51L816.72,543.83L816.6,544.07L816.52,544.25L816.37,544.55L816.17,544.95L815.9,545.47L815.57,546.11L815.27,546.69L814.99,547.2L814.75,547.66L814.52,548.06L814.32,548.42L814.14,548.73L813.98,549.01L813.84,549.25L813.64,549.59L813.38,550.03L813.05,550.56L812.65,551.2L812.33,551.71L812.08,552.11L811.9,552.39L811.8,552.54L811.64,552.78L811.42,553.09L811.15,553.49L810.82,553.98L810.49,554.44L810.18,554.89L809.86,555.32L809.56,555.74L809.29,556.1L809.05,556.42L808.85,556.69L808.68,556.91L808.44,557.22L808.12,557.62L807.73,558.11L807.26,558.68L806.89,559.13L806.64,559.45L806.48,559.64L806.43,559.7L806.25,559.9L805.94,560.25L805.5,560.74L804.94,561.37L804.51,561.86L804.21,562.18L804.06,562.36L804.04,562.38L803.87,562.55L803.56,562.86L803.1,563.33L802.5,563.95L802.04,564.42L801.72,564.74L801.55,564.92L801.51,564.95L801.33,565.12L801,565.43L800.51,565.88L799.88,566.47L799.4,566.92L799.07,567.22L798.9,567.38L798.88,567.39L798.71,567.54L798.39,567.81L797.93,568.2L797.31,568.73L796.81,569.15L796.43,569.47L796.17,569.68L796.03,569.79L795.81,569.97L795.49,570.22L795.08,570.54L794.58,570.92L794.12,571.28L793.7,571.59L793.33,571.88L792.98,572.13L792.66,572.37L792.34,572.6L792.03,572.82L791.74,573.03L791.35,573.29L790.89,573.61L790.34,573.98L789.7,574.41L789.22,574.73L788.91,574.94L788.74,575.05L788.74,575.05L788.58,575.15L788.27,575.34L787.79,575.64L787.15,576.03L786.57,576.38L786.05,576.7L785.57,576.98L785.15,577.23L784.78,577.44L784.46,577.62L784.19,577.77L783.98,577.89L783.66,578.07L783.24,578.3L782.71,578.58L782.07,578.92L781.5,579.22L781.01,579.47L780.58,579.69L780.23,579.87L779.89,580.04L779.57,580.19L779.27,580.34L778.99,580.48L778.62,580.65L778.16,580.87L777.62,581.12L776.98,581.41L776.38,581.68L775.82,581.93L775.29,582.16L774.81,582.37L774.4,582.54L774.09,582.67L773.85,582.77L773.7,582.83L773.44,582.94L773.04,583.1L772.53,583.3L771.89,583.55L771.26,583.8L770.62,584.04L769.99,584.27L769.35,584.5L768.8,584.7L768.35,584.86L767.98,584.99L767.7,585.08L767.4,585.18L767.09,585.29L766.75,585.4L766.39,585.52L765.96,585.66L765.46,585.82L764.9,585.99L764.26,586.19L763.63,586.38L762.99,586.57L762.35,586.75L761.72,586.93L761.1,587.1L760.51,587.27L759.95,587.42L759.4,587.56L758.97,587.67L758.65,587.75L758.45,587.8L758.36,587.83L758.13,587.88L757.77,587.97L757.27,588.09L756.63,588.24L755.99,588.38L755.36,588.52L754.72,588.66L754.09,588.8L753.45,588.93L752.81,589.06L752.18,589.18L751.54,589.3L750.91,589.42L750.27,589.54L749.63,589.65L749,589.76L748.36,589.86L747.73,589.96L747.09,590.06L746.45,590.16L745.97,590.23L745.64,590.28L745.47,590.31L745.45,590.31L745.28,590.33L744.96,590.37L744.49,590.43L743.88,590.51L743.26,590.59L742.63,590.67L742,590.74L741.36,590.81L740.73,590.88L740.09,590.94L739.46,591.01L738.82,591.07L738.18,591.12L737.55,591.18L736.91,591.23L736.28,591.27L735.64,591.32L735,591.36L734.37,591.4L733.73,591.44L733.1,591.47L732.46,591.5L731.82,591.53L731.19,591.56L730.55,591.58L729.92,591.6L729.28,591.62L728.64,591.64L728.01,591.65L727.37,591.66L726.74,591.67L726.1,591.67L725.46,591.67L724.83,591.67L724.19,591.67L723.56,591.67L722.92,591.66L722.28,591.65L721.65,591.63L721.01,591.62L720.38,591.6L719.74,591.58L719.1,591.56L718.47,591.53L717.83,591.51L717.2,591.48L716.56,591.44L715.92,591.41L715.29,591.37L714.65,591.33L714.02,591.29L713.38,591.25L712.74,591.2L712.11,591.15L711.47,591.1L710.84,591.04L710.2,590.99L709.56,590.93L708.93,590.87L708.29,590.8L707.66,590.74L707.02,590.67L706.38,590.6L705.75,590.53L705.22,590.47L704.8,590.42L704.48,590.38 M572.51,521.62L572.5,521.62 M523.35,483.67L522.81,483.59L522.38,483.52L522.06,483.47L521.86,483.44L521.76,483.43L521.54,483.39L521.17,483.33L520.67,483.25L520.03,483.14L519.4,483.03L518.76,482.92L518.13,482.81L517.49,482.69L516.85,482.57L516.22,482.46L515.58,482.34L514.95,482.21L514.31,482.09L513.67,481.96L513.04,481.83L512.4,481.7L511.77,481.57L511.13,481.43L510.49,481.3L509.86,481.16L509.37,481.05L509.04,480.98L508.86,480.94L508.83,480.93L508.65,480.89L508.34,480.81L507.87,480.71L507.27,480.56L506.66,480.42L506.03,480.27L505.41,480.11L504.77,479.95L504.13,479.79L503.5,479.63L502.86,479.47L502.23,479.3L501.6,479.13L500.97,478.97L500.35,478.8L499.74,478.63L499.27,478.5L498.95,478.41L498.78,478.37L498.76,478.36L498.59,478.31L498.26,478.22L497.77,478.08L497.14,477.89L496.5,477.7L495.87,477.51L495.23,477.32L494.59,477.13L493.96,476.94L493.32,476.74L492.69,476.54L492.05,476.34L491.53,476.18L491.14,476.05L490.87,475.96L490.71,475.91L490.48,475.83L490.16,475.73L489.76,475.59L489.28,475.43L488.76,475.26L488.2,475.07L487.6,474.87L486.96,474.65L486.33,474.42L485.69,474.2L485.05,473.98L484.42,473.75L483.92,473.57L483.56,473.44L483.35,473.36L483.27,473.33L483.07,473.26L482.76,473.14L482.32,472.98L481.76,472.77L481.18,472.55L480.58,472.32L479.97,472.09L479.33,471.84L478.74,471.61L478.2,471.4L477.7,471.2L477.25,471.02L476.87,470.86L476.55,470.73L476.3,470.63L476.11,470.56L475.81,470.44L475.4,470.27L474.88,470.05L474.24,469.79L473.61,469.52L472.97,469.25L472.33,468.98L471.7,468.7L471.21,468.49L470.86,468.34L470.67,468.26L470.61,468.23L470.43,468.15L470.11,468.01L469.66,467.81L469.08,467.55L468.48,467.28L467.87,467.01L467.25,466.72L466.61,466.43L466.09,466.19L465.68,466L465.4,465.86L465.22,465.78L464.98,465.66L464.66,465.51L464.27,465.33L463.81,465.11L463.3,464.86L462.75,464.6L462.16,464.31L461.52,464L460.99,463.74L460.57,463.53L460.26,463.37L460.06,463.27L459.8,463.13L459.48,462.97L459.1,462.78L458.67,462.57L458.19,462.32L457.65,462.04L457.07,461.74L456.43,461.41L455.92,461.14L455.52,460.93L455.24,460.78L455.09,460.7L454.85,460.57L454.53,460.4L454.13,460.18L453.65,459.92L453.14,459.64L452.58,459.34L451.98,459.01L451.35,458.65L450.86,458.38L450.52,458.19L450.33,458.09L450.28,458.06L450.1,457.96L449.79,457.78L449.33,457.51L448.74,457.18L448.17,456.85L447.62,456.53L447.09,456.22L446.59,455.92L446.18,455.68L445.86,455.5L445.64,455.36L445.5,455.28L445.24,455.13L444.86,454.9L444.35,454.59L443.71,454.2L443.17,453.87L442.71,453.59L442.35,453.37L442.07,453.19L441.78,453.01L441.46,452.81L441.12,452.6L440.76,452.37L440.33,452.1L439.83,451.78L439.26,451.42L438.63,451.01L438.15,450.7L437.83,450.5L437.67,450.39L437.67,450.39L437.51,450.29L437.19,450.08L436.71,449.76L436.08,449.34L435.52,448.97L435.05,448.65L434.65,448.39L434.33,448.17L434.02,447.95L433.7,447.74L433.38,447.52L433.06,447.3L432.67,447.04L432.22,446.72L431.69,446.35L431.09,445.93L430.64,445.61L430.32,445.39L430.14,445.26L430.1,445.23L429.91,445.1L429.57,444.85L429.09,444.5L428.45,444.04L427.92,443.66L427.5,443.36L427.19,443.13L426.99,442.98L426.73,442.79L426.42,442.55L426.04,442.27L425.6,441.95L425.18,441.63L424.75,441.31L424.34,440.99L423.93,440.68L423.57,440.4L423.25,440.16L422.98,439.95L422.75,439.78L422.43,439.53L422.03,439.21L421.53,438.82L420.95,438.36L420.5,438.01L420.18,437.76L419.99,437.61L419.94,437.57L419.74,437.41L419.4,437.13L418.91,436.73L418.27,436.21L417.77,435.81L417.41,435.51L417.18,435.32L417.08,435.24L416.88,435.07L416.56,434.81L416.13,434.45L415.59,433.99L415.13,433.6L414.75,433.29L414.46,433.04L414.25,432.85L413.98,432.63L413.66,432.35L413.29,432.03L412.87,431.66L412.47,431.32L412.11,431L411.78,430.71L411.47,430.44L411.16,430.17L410.84,429.88L410.52,429.59L410.19,429.29L409.84,428.99L409.49,428.67L409.13,428.34L408.76,428L408.42,427.69L408.1,427.39L407.81,427.12L407.54,426.88L407.24,426.59L406.9,426.28L406.52,425.92L406.11,425.53L405.75,425.19L405.43,424.89L405.16,424.63L404.93,424.41L404.66,424.15L404.33,423.83L403.95,423.46L403.52,423.04L403.14,422.67L402.83,422.36L402.56,422.1L402.36,421.9L402.1,421.64L401.78,421.32L401.41,420.95L400.98,420.51L400.61,420.14L400.29,419.81L400.03,419.54L399.82,419.33L399.56,419.07L399.26,418.75L398.9,418.38L398.5,417.95L398.13,417.58L397.81,417.24L397.54,416.95L397.31,416.71L397.05,416.43L396.75,416.11L396.42,415.75L396.06,415.36L395.72,414.99L395.4,414.65L395.11,414.32L394.83,414.02L394.55,413.71L394.27,413.39L393.97,413.07L393.67,412.73L393.37,412.39L393.05,412.03L392.72,411.65L392.38,411.27L392.08,410.92L391.8,410.6L391.55,410.31L391.34,410.06L391.07,409.75L390.75,409.38L390.38,408.94L389.96,408.44L389.62,408.04L389.35,407.72L389.16,407.49L389.04,407.35L388.83,407.09L388.51,406.7L388.09,406.19L387.58,405.55L387.19,405.08L386.93,404.76L386.8,404.59L386.79,404.59L386.67,404.43L386.42,404.11L386.05,403.64L385.55,403L385.14,402.48L384.82,402.08L384.59,401.78L384.46,401.6L384.26,401.35L384.02,401.03L383.73,400.65L383.39,400.19L383.06,399.75L382.74,399.33L382.43,398.91L382.14,398.52L381.88,398.16L381.65,397.84L381.44,397.56L381.27,397.32L381.03,396.99L380.72,396.55L380.34,396.01L379.89,395.38L379.55,394.89L379.31,394.57L379.19,394.39L379.18,394.37L379.06,394.21L378.85,393.89L378.53,393.42L378.11,392.8L377.74,392.26L377.42,391.79L377.15,391.39L376.94,391.06L376.73,390.73L376.52,390.42L376.31,390.1L376.11,389.8L375.86,389.41L375.56,388.93L375.21,388.38L374.8,387.74L374.49,387.25L374.28,386.91L374.15,386.71L374.12,386.66L374.01,386.47L373.81,386.15L373.54,385.7L373.19,385.12L372.85,384.56L372.53,384.03L372.23,383.52L371.95,383.04L371.72,382.64L371.53,382.32L371.39,382.08L371.3,381.93L371.15,381.66L370.93,381.26L370.64,380.75L370.28,380.11L369.96,379.55L369.69,379.05L369.46,378.63L369.27,378.27L369.09,377.93L368.92,377.62L368.76,377.32L368.61,377.04L368.41,376.67L368.17,376.21L367.89,375.66L367.56,375.02L367.28,374.47L367.04,373.99L366.84,373.59L366.68,373.26L366.52,372.94L366.36,372.62L366.21,372.31L366.06,372L365.87,371.6L365.64,371.13L365.38,370.57L365.08,369.94L364.81,369.36L364.57,368.83L364.36,368.36L364.17,367.94L364.01,367.57L363.87,367.25L363.75,366.98L363.65,366.77L363.51,366.44L363.33,366.02L363.1,365.48L362.83,364.85L362.57,364.21L362.31,363.58L362.05,362.94L361.8,362.3L361.6,361.82L361.47,361.48L361.39,361.28L361.38,361.24L361.31,361.06L361.19,360.74L361.02,360.28L360.79,359.69L360.57,359.09L360.35,358.48L360.12,357.85L359.9,357.22L359.68,356.6L359.48,355.99L359.28,355.41L359.09,354.83L358.94,354.39L358.84,354.07L358.77,353.88L358.75,353.82L358.69,353.61L358.58,353.26L358.43,352.76L358.23,352.13L358.04,351.49L357.85,350.86L357.67,350.22L357.48,349.58L357.31,348.95L357.13,348.31L356.96,347.68L356.8,347.04L356.66,346.49L356.54,346.02L356.44,345.63L356.37,345.33L356.3,345.02L356.22,344.7L356.14,344.38L356.06,344.04L355.97,343.63L355.86,343.15L355.74,342.59L355.6,341.95L355.47,341.32L355.34,340.68L355.22,340.04L355.09,339.41L354.98,338.77L354.86,338.14L354.75,337.5L354.65,336.86L354.55,336.23L354.45,335.59L354.35,334.96L354.26,334.32L354.18,333.68L354.1,333.05L354.02,332.41L353.94,331.78L353.88,331.22L353.83,330.75L353.79,330.35L353.76,330.04L353.73,329.72L353.7,329.41L353.67,329.09L353.64,328.76L353.61,328.36L353.58,327.88L353.54,327.32L353.49,326.69L353.46,326.05L353.42,325.42L353.39,324.78L353.37,324.14L353.35,323.51L353.33,322.87L353.32,322.24L353.31,321.6L353.31,320.96L353.31,320.33L353.31,319.69L353.32,319.06L353.33,318.42L353.35,317.78L353.37,317.15L353.4,316.51L353.43,315.88L353.47,315.24L353.51,314.6L353.56,313.97L353.6,313.43L353.63,313L353.66,312.66L353.68,312.43L353.71,312.15L353.74,311.83L353.78,311.47L353.82,311.07L353.87,310.61L353.93,310.09L354.01,309.52L354.09,308.88L354.18,308.24L354.27,307.61L354.37,306.97L354.48,306.34L354.59,305.7L354.7,305.06L354.82,304.43L354.94,303.79L355.08,303.16L355.21,302.52L355.35,301.88L355.5,301.25L355.64,300.64L355.78,300.07L355.92,299.52L356.06,299.01L356.17,298.59L356.25,298.27L356.31,298.05L356.34,297.93L356.42,297.68L356.53,297.3L356.68,296.8L356.87,296.16L357.07,295.52L357.28,294.89L357.49,294.25L357.71,293.62L357.92,293.01L358.12,292.44L358.32,291.9L358.52,291.39L358.67,290.97L358.79,290.66L358.88,290.43L358.93,290.31L359.03,290.05L359.19,289.67L359.41,289.16L359.68,288.53L359.96,287.89L360.24,287.26L360.53,286.62L360.83,285.98L361.06,285.5L361.22,285.16L361.31,284.98L361.32,284.94L361.41,284.77L361.58,284.45L361.82,283.99L362.13,283.39L362.45,282.79L362.76,282.21L363.08,281.63L363.41,281.06L363.66,280.61L363.84,280.3L363.95,280.1L363.99,280.04L364.12,279.83L364.33,279.48L364.64,278.99L365.04,278.35L365.39,277.8L365.69,277.33L365.94,276.95L366.14,276.65L366.35,276.35L366.56,276.03L366.79,275.7L367.03,275.36L367.3,274.97L367.62,274.53L367.98,274.04L368.38,273.51L368.7,273.08L368.94,272.76L369.09,272.55L369.17,272.45L369.36,272.22L369.65,271.86L370.06,271.36L370.58,270.72L370.98,270.23L371.27,269.89L371.43,269.7L371.47,269.65L371.63,269.47L371.91,269.15L372.32,268.7L372.85,268.11L373.28,267.64L373.6,267.29L373.81,267.06L373.91,266.95L374.12,266.73L374.43,266.41L374.85,265.99L375.37,265.47L375.79,265.04L376.11,264.73L376.33,264.51L376.44,264.4L376.67,264.19L377.02,263.87L377.47,263.45L378.05,262.92L378.49,262.51L378.81,262.22L379,262.05L379.06,262L379.27,261.82L379.62,261.53L380.11,261.12L380.75,260.58L381.24,260.17L381.59,259.88L381.79,259.71L381.85,259.66L382.04,259.52L382.36,259.27L382.81,258.93L383.38,258.49L383.88,258.11L384.3,257.79L384.65,257.53L384.92,257.34L385.21,257.13L385.53,256.9L385.87,256.66L386.24,256.4L386.66,256.12L387.13,255.8L387.65,255.45L388.22,255.07L388.67,254.78L388.99,254.57L389.18,254.44L389.24,254.4L389.45,254.27L389.8,254.06L390.29,253.76L390.92,253.37L391.49,253.03L391.99,252.73L392.42,252.48L392.79,252.27L393.13,252.08L393.45,251.9L393.74,251.73L394.01,251.58L394.38,251.38L394.83,251.14L395.38,250.85L396.01,250.52L396.57,250.23L397.04,249.99L397.43,249.79L397.73,249.64L398.04,249.49L398.36,249.33L398.69,249.18L399.02,249.02L399.42,248.83L399.91,248.6L400.46,248.35L401.1,248.06L401.69,247.8L402.23,247.56L402.73,247.35L403.19,247.16L403.57,246.99L403.89,246.86L404.14,246.76L404.32,246.68L404.62,246.56L405.03,246.4L405.55,246.2L406.19,245.95L406.82,245.71L407.46,245.47L408.1,245.24L408.73,245.01L409.27,244.82L409.72,244.66L410.08,244.54L410.34,244.46L410.63,244.36L410.94,244.25L411.29,244.14L411.67,244.02L412.11,243.88L412.61,243.72L413.18,243.54L413.82,243.35L414.46,243.16L415.09,242.98L415.73,242.8L416.36,242.62L416.98,242.45L417.58,242.29L418.16,242.14L418.73,242L419.17,241.88L419.48,241.8L419.68,241.75L419.75,241.74L419.97,241.68L420.32,241.6L420.82,241.49L421.45,241.34L422.09,241.2L422.73,241.06L423.36,240.92L424,240.79L424.63,240.66L425.27,240.53L425.91,240.41L426.54,240.29L427.18,240.18L427.81,240.07L428.45,239.96L429.09,239.85L429.72,239.75L430.36,239.65L430.99,239.55L431.63,239.46L432.15,239.38L432.54,239.33L432.82,239.29L432.98,239.27L433.22,239.24L433.54,239.2L433.94,239.15L434.41,239.09L434.93,239.02L435.49,238.96L436.08,238.89L436.72,238.82L437.35,238.76L437.99,238.7L438.63,238.64L439.26,238.58L439.9,238.52L440.53,238.47L441.17,238.42L441.81,238.38L442.44,238.33L443.08,238.29L443.71,238.26L444.35,238.22L444.99,238.19L445.62,238.16L446.26,238.13L446.89,238.11L447.53,238.09L448.17,238.07L448.8,238.05L449.44,238.04L450.07,238.03L450.71,238.02L451.35,238.02L451.98,238.01L452.62,238.01L453.25,238.02L453.89,238.02L454.53,238.03L455.16,238.04L455.8,238.05L456.43,238.06L457.07,238.08L457.71,238.1L458.34,238.12L458.98,238.15L459.61,238.17L460.25,238.2L460.89,238.24L461.52,238.27L462.16,238.31L462.79,238.35L463.43,238.39L464.07,238.43L464.7,238.48L465.34,238.53L465.97,238.58L466.61,238.63L467.25,238.69L467.88,238.74L468.52,238.8L469.15,238.87L469.79,238.93L470.38,238.99L470.92,239.05L471.41,239.11L471.86,239.16L472.24,239.2L472.56,239.24L472.81,239.27L473,239.29L473.3,239.33L473.72,239.38L474.24,239.45L474.88,239.53L475.51,239.62L476.15,239.71L476.79,239.8L477.42,239.89L478.06,239.98L478.69,240.08L479.33,240.18L479.97,240.28L480.6,240.38L481.24,240.49L481.87,240.6L482.51,240.71L483.15,240.82L483.78,240.93L484.42,241.05L485.05,241.17L485.67,241.28L486.25,241.4L486.82,241.51L487.36,241.62L487.79,241.7L488.1,241.77L488.31,241.81L488.41,241.83L488.64,241.88L489,241.96L489.51,242.06L490.14,242.2L490.78,242.34L491.41,242.48L492.05,242.62L492.69,242.77L493.32,242.91L493.96,243.06L494.59,243.21L495.23,243.37L495.87,243.52L496.5,243.68L497.14,243.84L497.77,244.01L498.27,244.13L498.62,244.22L498.83,244.28L498.9,244.3L499.09,244.35L499.41,244.43L499.85,244.55L500.42,244.71L501.01,244.87L501.61,245.03L502.23,245.2L502.86,245.38L503.5,245.57L504.13,245.75L504.77,245.94L505.41,246.13L505.98,246.3L506.48,246.45L506.92,246.58L507.29,246.7L507.63,246.8L507.95,246.9L508.24,246.99L508.51,247.08L508.86,247.19L509.31,247.33L509.86,247.51L510.49,247.71L511.13,247.92L511.77,248.13L512.4,248.35L513.04,248.56L513.61,248.76L514.12,248.93L514.56,249.08L514.93,249.21L515.28,249.34L515.6,249.45L515.89,249.55L516.15,249.64L516.5,249.77L516.95,249.93L517.49,250.13L518.13,250.36L518.76,250.6L519.4,250.83L520.03,251.07L520.67,251.31L521.19,251.51L521.6,251.67L521.89,251.78L522.07,251.85L522.32,251.95L522.64,252.07L523.02,252.23L523.48,252.41L523.98,252.61L524.53,252.83L525.12,253.07L525.76,253.33L526.35,253.57L526.9,253.8L527.41,254.01L527.87,254.21L528.26,254.37L528.58,254.51L528.82,254.61L529,254.68L529.29,254.81L529.69,254.99L530.21,255.21L530.85,255.49L531.48,255.77L532.11,256.05L532.74,256.33L533.37,256.62L533.85,256.83L534.16,256.98L534.33,257.05L534.33,257.05L534.5,257.13L534.82,257.28L535.3,257.5L535.93,257.8L536.57,258.1L537.21,258.4L537.84,258.71L538.48,259.02L538.97,259.25L539.32,259.42L539.52,259.52L539.58,259.55L539.76,259.64L540.08,259.8L540.53,260.02L541.11,260.31L541.7,260.61L542.31,260.92L542.93,261.23L543.57,261.56L544.05,261.81L544.39,261.98L544.58,262.08L544.62,262.1L544.8,262.2L545.12,262.37L545.57,262.61L546.17,262.92L546.76,263.24L547.36,263.56L547.94,263.88L548.53,264.2L548.98,264.44L549.3,264.62L549.49,264.72L549.53,264.75L549.73,264.86L550.07,265.05L550.56,265.32L551.2,265.68L551.78,266.01L552.32,266.32L552.81,266.6L553.24,266.85L553.62,267.06L553.93,267.25L554.19,267.4L554.4,267.52L554.7,267.7L555.12,267.95L555.65,268.26L556.29,268.64L556.82,268.96L557.25,269.22L557.58,269.42L557.81,269.56L558.08,269.72L558.4,269.92L558.77,270.14L559.17,270.4L559.63,270.68L560.14,271L560.7,271.35L561.3,271.73L561.77,272.03L562.09,272.23L562.26,272.34L562.29,272.35L562.47,272.47L562.8,272.69L563.28,273.01L563.92,273.42L564.47,273.78L564.94,274.09L565.33,274.35L565.64,274.55L565.95,274.76L566.27,274.97L566.59,275.19L566.92,275.41L567.32,275.68L567.78,276L568.32,276.37L568.92,276.78L569.37,277.09L569.69,277.31L569.87,277.44L569.91,277.46L570.09,277.59L570.43,277.83L570.91,278.18L571.55,278.63L572.08,279.01L572.51,279.32L572.83,279.55L573.05,279.71L573.32,279.9L573.64,280.13L574.01,280.4L574.42,280.71L574.85,281.03L575.27,281.34L575.71,281.67L576.15,281.99L576.53,282.28L576.84,282.52L577.1,282.71L577.3,282.86L577.6,283.1L578.01,283.42L578.53,283.82L579.16,284.3L579.63,284.67L579.95,284.91L580.11,285.04L580.12,285.05L580.29,285.18L580.61,285.44L581.09,285.82L581.73,286.33L582.24,286.75L582.63,287.06L582.9,287.28L583.05,287.4L583.29,287.59L583.6,287.85L584.01,288.18L584.49,288.59L584.93,288.95L585.31,289.27L585.64,289.54L585.92,289.77L586.22,290.02L586.53,290.29L586.87,290.58L587.23,290.9L587.59,291.21L587.96,291.53L588.34,291.85L588.72,292.17L589.06,292.48L589.38,292.75L589.67,293.01L589.93,293.24L590.23,293.52L590.59,293.84L590.99,294.2L591.45,294.6L591.83,294.95L592.15,295.23L592.4,295.46L592.58,295.63L592.85,295.88L593.19,296.2L593.61,296.59L594.12,297.05L594.53,297.43L594.85,297.73L595.07,297.94L595.2,298.07L595.44,298.29L595.77,298.61L596.2,299.02L596.73,299.53L597.16,299.94L597.47,300.25L597.69,300.45L597.79,300.56L598,300.77L598.32,301.09L598.75,301.51L599.29,302.04L599.72,302.47L600.03,302.78L600.24,302.99L600.34,303.1L600.55,303.31L600.86,303.63L601.27,304.05L601.79,304.58L602.21,305.01L602.53,305.34L602.75,305.57L602.86,305.7L603.07,305.92L603.37,306.24L603.76,306.65L604.24,307.16L604.65,307.59L604.96,307.93L605.2,308.18L605.35,308.35L605.57,308.6L605.86,308.92L606.22,309.31L606.65,309.77L607.02,310.18L607.34,310.54L607.6,310.84L607.81,311.08L608.05,311.36L608.33,311.68L608.65,312.03L609,312.43L609.34,312.81L609.66,313.17L609.96,313.53L610.24,313.87L610.52,314.2L610.79,314.52L611.05,314.82L611.31,315.12L611.6,315.46L611.92,315.84L612.26,316.26L612.64,316.73L612.96,317.12L613.22,317.44L613.43,317.68L613.57,317.85L613.8,318.13L614.12,318.53L614.52,319.03L615.02,319.65L615.39,320.12L615.64,320.44L615.77,320.61L615.79,320.62L615.92,320.79L616.17,321.12L616.54,321.6L617.03,322.24L617.43,322.76L617.74,323.18L617.96,323.48L618.1,323.68L618.28,323.93L618.52,324.25L618.81,324.63L619.15,325.07L619.47,325.51L619.79,325.95L620.1,326.38L620.4,326.82L620.66,327.19L620.89,327.51L621.08,327.77L621.24,327.97L621.46,328.29L621.76,328.7L622.13,329.23L622.57,329.87L622.91,330.36L623.15,330.72L623.29,330.93L623.33,331L623.45,331.19L623.66,331.51L623.96,331.95L624.35,332.52L624.7,333.05L625.02,333.55L625.3,334.01L625.55,334.44L625.78,334.81L625.99,335.13L626.17,335.39L626.32,335.6L626.54,335.91L626.81,336.33L627.15,336.86L627.54,337.5L627.86,338.03L628.1,338.46L628.26,338.78L628.35,339L628.48,339.27L628.67,339.59L628.91,339.95L629.21,340.37L629.51,340.84L629.83,341.36L630.16,341.93L630.5,342.56L630.77,343.03L630.96,343.35L631.08,343.51L631.16,343.54L631.08,343.58L630.89,343.61L630.55,343.66L630.06,343.71L629.43,343.78L628.79,343.84L628.16,343.88L627.52,343.91L626.88,343.93L626.25,343.95L625.61,343.97L624.98,343.98L624.34,344L623.7,344.02L623.07,344.05L622.43,344.07L621.8,344.1L621.16,344.12L620.52,344.16L619.89,344.19L619.25,344.22L618.62,344.26L617.98,344.3L617.34,344.35L616.71,344.39L616.07,344.44L615.44,344.49L614.8,344.55L614.16,344.6L613.53,344.67L612.89,344.73L612.26,344.8L611.62,344.87L610.98,344.94L610.35,345.01L609.71,345.09L609.08,345.18L608.44,345.26L607.8,345.35L607.17,345.44L606.53,345.54L605.91,345.64L605.31,345.74L604.73,345.84L604.16,345.94L603.72,346.01L603.4,346.07L603.21,346.1L603.14,346.11L602.93,346.15L602.57,346.21L602.08,346.29L601.44,346.4L600.81,346.51L600.17,346.63L599.54,346.75L598.9,346.88L598.26,347.01L597.63,347.14L596.99,347.28L596.36,347.43L595.72,347.57L595.08,347.73L594.45,347.88L593.81,348.05L593.26,348.19L592.8,348.31L592.42,348.42L592.13,348.5L591.83,348.59L591.51,348.67L591.18,348.76L590.83,348.85L590.41,348.96L589.92,349.09L589.36,349.25L588.72,349.43L588.09,349.62L587.45,349.81L586.82,350.01L586.18,350.22L585.59,350.41L585.05,350.6L584.56,350.77L584.11,350.93L583.73,351.07L583.41,351.18L583.16,351.27L582.97,351.33L582.66,351.43L582.25,351.58L581.73,351.77L581.09,352L580.45,352.24L579.82,352.49L579.18,352.74L578.55,353L578.03,353.22L577.62,353.39L577.33,353.51L577.15,353.6L576.9,353.7L576.58,353.84L576.2,354.01L575.74,354.2L575.23,354.42L574.69,354.66L574.09,354.93L573.46,355.23L572.91,355.49L572.46,355.72L572.09,355.9L571.81,356.04L571.52,356.2L571.2,356.36L570.86,356.52L570.5,356.7L570.07,356.92L569.57,357.18L569.01,357.48L568.37,357.83L567.85,358.12L567.44,358.35L567.14,358.52L566.95,358.64L566.69,358.79L566.38,358.97L565.99,359.19L565.55,359.45L565.06,359.74L564.54,360.05L563.99,360.4L563.39,360.78L562.94,361.07L562.62,361.28L562.44,361.39L562.4,361.42L562.2,361.55L561.86,361.78L561.37,362.11L560.74,362.54L560.2,362.91L559.77,363.21L559.43,363.45L559.2,363.63L558.92,363.84L558.6,364.07L558.24,364.34L557.84,364.63L557.44,364.94L557.02,365.25L556.61,365.58L556.18,365.93L555.81,366.22L555.5,366.48L555.23,366.7L555.02,366.87L554.72,367.11L554.35,367.43L553.9,367.82L553.37,368.29L552.95,368.66L552.63,368.94L552.42,369.12L552.31,369.22L552.09,369.43L551.76,369.74L551.31,370.17L550.74,370.71L550.3,371.14L549.99,371.44L549.79,371.63L549.72,371.71L549.53,371.9L549.23,372.22L548.81,372.66L548.27,373.22L547.85,373.68L547.53,374.01L547.32,374.24L547.22,374.35L547.03,374.56L546.75,374.88L546.39,375.3L545.94,375.83L545.56,376.28L545.24,376.66L544.99,376.96L544.8,377.19L544.58,377.46L544.33,377.78L544.05,378.14L543.73,378.55L543.42,378.96L543.1,379.39L542.78,379.82L542.46,380.26L542.18,380.64L541.95,380.96L541.77,381.22L541.64,381.41L541.43,381.72L541.16,382.13L540.81,382.66L540.4,383.29L540.07,383.81L539.82,384.19L539.65,384.46L539.56,384.6L539.42,384.83L539.24,385.15L539,385.56L538.71,386.05L538.4,386.58L538.09,387.14L537.76,387.74L537.42,388.38L537.16,388.86L536.99,389.18L536.9,389.35L536.9,389.36L536.82,389.53L536.66,389.84L536.43,390.32L536.13,390.94L535.83,391.57L535.54,392.2L535.26,392.83L534.98,393.47L534.76,393.98L534.6,394.37L534.49,394.64L534.43,394.79L534.34,395.02L534.21,395.34L534.06,395.74L533.86,396.23L533.66,396.76L533.46,397.32L533.24,397.92L533.02,398.56L532.81,399.19L532.6,399.83L532.4,400.46L532.21,401.1L532.06,401.61L531.94,401.98L531.87,402.22L531.84,402.34L531.79,402.55L531.7,402.87L531.59,403.29L531.44,403.81L531.3,404.37L531.16,404.95L531.01,405.55L530.86,406.19L530.72,406.82L530.58,407.46L530.45,408.1L530.33,408.73L530.21,409.37L530.1,410L529.99,410.64L529.89,411.28L529.79,411.91L529.7,412.55L529.61,413.18L529.53,413.82L529.46,414.4L529.4,414.92L529.35,415.37L529.31,415.77L529.28,416.13L529.25,416.45L529.22,416.73L529.2,416.96L529.17,417.3L529.13,417.74L529.09,418.27L529.05,418.91L529.01,419.55L528.97,420.18L528.94,420.82L528.91,421.45L528.89,422.09L528.88,422.73L528.86,423.36L528.86,424L528.85,424.63L528.85,425.27L528.86,425.91L528.87,426.54L528.88,427.18L528.9,427.81L528.92,428.45L528.95,429.09L528.98,429.72L529.02,430.36L529.06,430.99L529.1,431.63L529.14,432.17L529.17,432.6L529.2,432.94L529.22,433.18L529.25,433.45L529.28,433.77L529.31,434.13L529.35,434.53L529.39,434.99L529.45,435.5L529.51,436.08L529.59,436.72L529.67,437.35L529.75,437.99L529.83,438.63L529.92,439.26L530.01,439.9L530.11,440.53L530.21,441.17L530.32,441.81L530.43,442.44L530.54,443.08L530.66,443.71L530.78,444.35L530.9,444.99L531.03,445.62L531.16,446.26L531.3,446.89L531.42,447.45L531.53,447.93L531.62,448.32L531.69,448.64L531.76,448.96L531.84,449.28L531.92,449.59L531.99,449.91L532.09,450.31L532.21,450.79L532.35,451.35L532.51,451.98L532.68,452.62L532.85,453.25L533.02,453.89L533.2,454.53L533.38,455.16L533.57,455.8L533.76,456.43L533.96,457.07L534.11,457.57L534.22,457.92L534.29,458.14L534.31,458.21L534.37,458.41L534.47,458.73L534.62,459.17L534.8,459.73L534.99,460.31L535.19,460.9L535.4,461.52L535.62,462.16L535.84,462.79L536.07,463.42L536.3,464.05L536.54,464.68L536.71,465.15L536.83,465.47L536.89,465.63L536.9,465.64L536.96,465.81L537.09,466.13L537.27,466.61L537.52,467.25L537.77,467.88L538.02,468.52L538.28,469.15L538.55,469.79L538.78,470.34L538.97,470.82L539.13,471.21L539.25,471.52L539.38,471.83L539.52,472.15L539.66,472.47L539.82,472.8L540.01,473.2L540.23,473.68L540.48,474.24L540.77,474.88L541.04,475.46L541.28,476L541.5,476.49L541.69,476.93L541.86,477.31L542.01,477.63L542.15,477.88L542.26,478.08L542.43,478.39L542.65,478.8L542.91,479.33L543.23,479.97L543.52,480.56L543.78,481.13L544.01,481.65L544.22,482.14L544.4,482.54L544.57,482.86L544.72,483.09L544.86,483.24L544.92,483.45L544.92,483.72L544.86,484.05L544.72,484.43L544.46,484.75L544.08,484.98L543.57,485.14L542.93,485.22L542.29,485.28L541.66,485.31L541.02,485.32L540.39,485.3L539.75,485.28L539.11,485.25L538.48,485.21L537.84,485.18L537.21,485.14L536.57,485.1L535.93,485.05L535.3,485L534.66,484.95L534.03,484.9L533.39,484.84L532.75,484.79L532.12,484.73L531.48,484.66L530.85,484.6L530.21,484.53L529.57,484.46L528.94,484.39L528.3,484.32L527.67,484.24L527.03,484.16L526.39,484.08L525.76,484L525.12,483.92L524.51,483.83L523.92,483.75L523.35,483.67" fill="none" stroke="#ffffff" stroke-width="2.50" stroke-linejoin="round" stroke-linecap="round"/>
</svg>