<svg xmlns="http://www.w3.org/2000/svg" width="1000" height="1000" viewBox="0 0 1000 1000">
<rect width="1000" height="1000" fill="#c8102e"/>
<path d="M847.44,563.41L847.12,563.16L846.75,562.86L846.33,562.51L845.85,562.1L845.32,561.64L844.81,561.2L844.34,560.77L843.9,560.37L843.49,559.98L843.07,559.58L842.65,559.17L842.22,558.75L841.78,558.31L841.35,557.88L840.93,557.46L840.52,557.04L840.12,556.63L839.7,556.2L839.28,555.75L838.84,555.3L838.4,554.82L837.98,554.37L837.58,553.95L837.21,553.55L836.86,553.17L836.48,552.75L836.05,552.29L835.59,551.78L835.09,551.22L834.65,550.73L834.26,550.31L833.94,549.95L833.68,549.66L833.34,549.27L832.91,548.79L832.41,548.22L831.82,547.55L831.34,547.01L830.97,546.58L830.7,546.28L830.54,546.1L830.25,545.76L829.82,545.27L829.27,544.63L828.58,543.84L828.05,543.23L827.68,542.81L827.47,542.57L827.43,542.51L827.21,542.26L826.82,541.81L826.26,541.16L825.53,540.31L824.97,539.65L824.57,539.18L824.33,538.91L824.26,538.82L824.04,538.57L823.68,538.14L823.17,537.55L822.52,536.79L821.98,536.16L821.56,535.66L821.25,535.3L821.05,535.07L820.77,534.74L820.41,534.31L819.97,533.79L819.44,533.17L818.96,532.62L818.54,532.12L818.17,531.68L817.84,531.31L817.5,530.91L817.14,530.48L816.76,530.03L816.35,529.56L815.94,529.08L815.52,528.58L815.08,528.07L814.64,527.55L814.23,527.08L813.87,526.65L813.55,526.28L813.26,525.95L812.91,525.54L812.49,525.05L811.99,524.47L811.42,523.81L810.96,523.27L810.59,522.84L810.33,522.54L810.16,522.35L809.87,522.01L809.45,521.52L808.89,520.88L808.21,520.09L807.68,519.48L807.31,519.06L807.1,518.82L807.05,518.76L806.83,518.5L806.43,518.05L805.86,517.4L805.11,516.55L804.54,515.9L804.14,515.44L803.92,515.18L803.87,515.12L803.65,514.88L803.28,514.46L802.74,513.85L802.04,513.06L801.48,512.43L801.05,511.95L800.77,511.63L800.62,511.46L800.35,511.17L799.97,510.74L799.47,510.19L798.86,509.51L798.34,508.93L797.92,508.46L797.59,508.1L797.35,507.84L797.04,507.49L796.65,507.07L796.19,506.56L795.65,505.97L795.17,505.45L794.75,504.99L794.38,504.59L794.07,504.25L793.72,503.87L793.32,503.45L792.89,502.98L792.41,502.47L791.96,501.98L791.53,501.53L791.14,501.11L790.77,500.71L790.38,500.3L789.98,499.88L789.56,499.44L789.13,498.98L788.7,498.54L788.27,498.09L787.85,497.66L787.44,497.22L787.02,496.8L786.61,496.37L786.2,495.95L785.8,495.53L785.38,495.11L784.96,494.68L784.52,494.24L784.08,493.79L783.65,493.36L783.23,492.93L782.82,492.52L782.41,492.12L782,491.71L781.58,491.29L781.14,490.86L780.7,490.42L780.25,489.99L779.82,489.56L779.39,489.15L778.97,488.74L778.54,488.33L778.12,487.92L777.69,487.51L777.27,487.11L776.83,486.69L776.38,486.27L775.92,485.84L775.44,485.39L774.99,484.97L774.57,484.58L774.17,484.21L773.8,483.87L773.38,483.48L772.91,483.06L772.39,482.6L771.83,482.09L771.34,481.65L770.91,481.27L770.56,480.95L770.27,480.7L769.88,480.36L769.39,479.94L768.8,479.43L768.11,478.83L767.55,478.35L767.12,477.99L766.83,477.74L766.68,477.61L766.35,477.34L765.85,476.93L765.18,476.38L764.33,475.69L763.68,475.16L763.24,474.8L763,474.61L762.97,474.58L762.74,474.41L762.32,474.08L761.7,473.6L760.88,472.97L760.2,472.44L759.64,472.02L759.22,471.7L758.92,471.48L758.57,471.21L758.14,470.9L757.65,470.55L757.1,470.15L756.52,469.74L755.92,469.31L755.29,468.88L754.64,468.43L754.1,468.06L753.68,467.77L753.37,467.56L753.17,467.43L752.81,467.19L752.29,466.86L751.6,466.42L750.75,465.88L750.04,465.43L749.47,465.07L749.04,464.8L748.75,464.63L748.39,464.41L747.96,464.16L747.47,463.88L746.92,463.56L746.29,463.2L745.59,462.81L744.81,462.39L743.96,461.93L743.29,461.57L742.8,461.3L742.49,461.14L742.35,461.07L742.07,460.93L741.65,460.72L741.08,460.44L740.37,460.1L739.62,459.74L738.84,459.38L738.02,459.01L737.17,458.63L736.46,458.32L735.89,458.07L735.46,457.88L735.16,457.76L734.8,457.61L734.37,457.44L733.89,457.25L733.33,457.03L732.71,456.79L732.01,456.53L731.23,456.24L730.39,455.94L729.54,455.64L728.69,455.34L727.84,455.06L726.99,454.78L726.32,454.56L725.81,454.4L725.48,454.3L725.33,454.25L725.04,454.16L724.61,454.04L724.05,453.87L723.36,453.67L722.63,453.46L721.86,453.24L721.05,453.02L720.2,452.79L719.35,452.57L718.51,452.34L717.66,452.13L716.81,451.91L715.96,451.7L715.12,451.49L714.27,451.29L713.43,451.09L712.8,450.93L712.37,450.83L712.16,450.78L712.15,450.78L711.93,450.73L711.51,450.63L710.87,450.48L710.02,450.28L709.17,450.09L708.32,449.89L707.47,449.69L706.63,449.5L705.78,449.3L704.93,449.1L704.08,448.9L703.23,448.7L702.38,448.5L701.53,448.3L700.69,448.09L699.84,447.89L699.15,447.72L698.64,447.59L698.29,447.51L698.1,447.46L697.8,447.38L697.37,447.27L696.83,447.13L696.17,446.96L695.46,446.77L694.7,446.57L693.9,446.35L693.05,446.11L692.2,445.87L691.35,445.63L690.5,445.38L689.65,445.13L688.87,444.89L688.15,444.67L687.5,444.47L686.91,444.28L686.4,444.11L685.98,443.98L685.64,443.86L685.38,443.78L684.97,443.64L684.42,443.44L683.71,443.2L682.87,442.89L682.02,442.59L681.17,442.27L680.32,441.95L679.47,441.62L678.76,441.34L678.18,441.1L677.73,440.92L677.42,440.8L677.05,440.64L676.63,440.46L676.14,440.25L675.61,440.02L674.99,439.74L674.3,439.42L673.53,439.06L672.68,438.66L671.94,438.31L671.31,438L670.78,437.74L670.35,437.53L669.93,437.31L669.51,437.09L669.08,436.87L668.66,436.64L668.12,436.35L667.49,435.99L666.74,435.57L665.89,435.08L665.2,434.68L664.67,434.37L664.29,434.15L664.08,434.01L663.76,433.81L663.33,433.54L662.8,433.2L662.17,432.8L661.54,432.38L660.91,431.96L660.28,431.52L659.64,431.08L659.11,430.71L658.69,430.41L658.37,430.18L658.15,430.02L657.78,429.74L657.25,429.32L656.56,428.78L655.71,428.11L655.07,427.61L654.63,427.26L654.4,427.08L654.37,427.06L654.15,426.86L653.72,426.48L653.1,425.93L652.28,425.2L651.63,424.63L651.15,424.2L650.85,423.93L650.73,423.81L650.45,423.54L650.03,423.11L649.45,422.54L648.73,421.81L648.16,421.23L647.75,420.81L647.48,420.53L647.37,420.41L647.11,420.11L646.69,419.63L646.11,418.96L645.38,418.11L644.83,417.48L644.46,417.05L644.27,416.83L644.27,416.82L644.1,416.61L643.78,416.18L643.3,415.55L642.66,414.71L642.13,414L641.71,413.43L641.39,412.99L641.18,412.68L640.93,412.32L640.65,411.89L640.33,411.41L639.98,410.87L639.59,410.25L639.17,409.55L638.72,408.78L638.23,407.93L637.86,407.29L637.61,406.86L637.48,406.64L637.48,406.63L637.37,406.41L637.16,405.99L636.84,405.36L636.43,404.52L636.03,403.68L635.64,402.84L635.27,401.99L634.91,401.14L634.62,400.46L634.41,399.93L634.26,399.57L634.19,399.37L634.08,399.05L633.93,398.63L633.75,398.09L633.53,397.45L633.31,396.75L633.08,396L632.85,395.2L632.62,394.35L632.41,393.51L632.21,392.66L632.02,391.81L631.86,390.96L631.7,390.11L631.57,389.26L631.45,388.41L631.35,387.57L631.26,386.72L631.2,385.87L631.15,385.02L631.12,384.17L631.11,383.32L631.12,382.47L631.14,381.63L631.19,380.78L631.27,379.93L631.36,379.08L631.49,378.23L631.63,377.38L631.81,376.53L632.03,375.69L632.28,374.84L632.57,373.99L632.85,373.23L633.13,372.57L633.4,372L633.67,371.52L634.08,371.27L634.64,371.24L635.35,371.44L636.19,371.86L636.83,372.18L637.26,372.42L637.48,372.57L637.48,372.63L637.5,372.88L637.54,373.34L637.59,373.99L637.66,374.84L637.73,375.69L637.8,376.53L637.88,377.38L637.96,378.23L638.05,379.08L638.14,379.93L638.25,380.78L638.37,381.63L638.5,382.47L638.64,383.32L638.8,384.17L638.97,385.02L639.15,385.87L639.35,386.72L639.56,387.57L639.79,388.41L640,389.19L640.21,389.9L640.4,390.54L640.58,391.11L640.75,391.61L640.89,392.03L641.01,392.38L641.11,392.66L641.28,393.08L641.5,393.65L641.79,394.35L642.14,395.2L642.5,396.04L642.88,396.87L643.26,397.69L643.66,398.5L643.96,399.12L644.17,399.54L644.29,399.77L644.31,399.81L644.45,400.05L644.7,400.5L645.08,401.14L645.57,401.99L646.03,402.75L646.44,403.43L646.81,404.02L647.15,404.53L647.46,405L647.75,405.42L648.01,405.8L648.26,406.15L648.59,406.59L649.01,407.15L649.53,407.82L650.14,408.59L650.61,409.18L650.94,409.61L651.14,409.86L651.21,409.94L651.45,410.21L651.87,410.67L652.48,411.33L653.26,412.17L653.84,412.81L654.23,413.23L654.64,413.65L655.07,414.04L655.71,414.64L656.56,415.43L657.21,416.04L657.67,416.47L657.93,416.71L657.99,416.76L658.23,416.96L658.66,417.3L659.26,417.79L660.05,418.42L660.71,418.94L661.25,419.37L661.67,419.69L661.97,419.91L662.33,420.17L662.76,420.46L663.25,420.8L663.8,421.18L664.4,421.58L665.06,422L665.77,422.45L666.54,422.92L667.14,423.29L667.56,423.55L667.82,423.7L667.9,423.74L668.17,423.89L668.63,424.14L669.29,424.49L670.14,424.94L670.96,425.37L671.77,425.77L672.55,426.14L673.3,426.5L673.9,426.77L674.32,426.96L674.58,427.08L674.67,427.12L674.95,427.23L675.42,427.42L676.08,427.68L676.93,428.02L677.77,428.34L678.62,428.65L679.47,428.95L680.32,429.23L681.12,429.49L681.88,429.73L682.6,429.94L683.26,430.13L683.81,430.29L684.23,430.4L684.54,430.49L684.72,430.53L685.06,430.62L685.58,430.73L686.26,430.89L687.11,431.08L687.96,431.26L688.81,431.43L689.65,431.59L690.5,431.74L691.35,431.88L692.2,432L693.05,432.12L693.9,432.23L694.75,432.32L695.59,432.41L696.44,432.49L697.29,432.55L698.14,432.61L698.99,432.66L699.84,432.69L700.69,432.72L701.53,432.74L702.38,432.75L703.23,432.75L704.08,432.74L704.93,432.72L705.78,432.69L706.63,432.66L707.47,432.61L708.32,432.56L709.17,432.49L710.02,432.42L710.87,432.34L711.72,432.25L712.57,432.15L713.41,432.05L714.26,431.93L715.11,431.81L715.96,431.68L716.81,431.54L717.66,431.39L718.51,431.24L719.35,431.08L720.2,430.91L721.05,430.73L721.7,430.6L722.16,430.5L722.41,430.45L722.47,430.44L722.71,430.38L723.14,430.28L723.74,430.14L724.53,429.95L725.34,429.75L726.16,429.55L726.99,429.34L727.84,429.12L728.69,428.9L729.54,428.67L730.39,428.45L731.23,428.22L732.07,427.99L732.89,427.77L733.69,427.55L734.49,427.34L735.09,427.18L735.52,427.07L735.76,427L735.82,426.99L736.07,426.92L736.52,426.81L737.17,426.66L738.02,426.45L738.87,426.26L739.72,426.08L740.57,425.9L741.42,425.75L742.27,425.61L743.11,425.48L743.96,425.38L744.81,425.3L745.66,425.24L746.51,425.21L747.36,425.21L748.2,425.23L749.05,425.29L749.9,425.38L750.75,425.5L751.6,425.65L752.45,425.83L753.3,426.05L754.14,426.31L754.99,426.59L755.84,426.91L756.69,427.26L757.54,427.65L758.39,428.06L759.2,428.48L759.98,428.9L760.72,429.33L761.43,429.77L762,430.12L762.42,430.38L762.71,430.56L762.85,430.65L763.16,430.88L763.66,431.24L764.33,431.72L765.18,432.35L765.86,432.84L766.36,433.22L766.7,433.48L766.87,433.61L767.17,433.85L767.59,434.2L768.15,434.66L768.83,435.22L769.42,435.72L769.92,436.14L770.33,436.49L770.66,436.78L771.03,437.11L771.45,437.49L771.93,437.92L772.45,438.4L772.94,438.85L773.4,439.27L773.83,439.67L774.22,440.04L774.63,440.43L775.05,440.84L775.49,441.26L775.95,441.71L776.39,442.14L776.82,442.57L777.24,442.98L777.65,443.39L778.06,443.8L778.48,444.23L778.92,444.68L779.36,445.13L779.79,445.57L780.2,446L780.59,446.4L780.97,446.8L781.37,447.22L781.79,447.67L782.24,448.15L782.71,448.66L783.14,449.12L783.54,449.55L783.89,449.93L784.2,450.27L784.57,450.68L785,451.14L785.48,451.68L786.01,452.27L786.47,452.78L786.85,453.2L787.15,453.54L787.38,453.8L787.7,454.17L788.13,454.65L788.65,455.25L789.27,455.97L789.77,456.54L790.14,456.96L790.38,457.24L790.49,457.37L790.76,457.68L791.17,458.18L791.74,458.84L792.46,459.69L793,460.33L793.37,460.77L793.56,461L793.58,461.02L793.76,461.24L794.11,461.67L794.63,462.29L795.31,463.12L795.86,463.79L796.29,464.31L796.58,464.67L796.75,464.87L797,465.19L797.34,465.61L797.77,466.15L798.29,466.79L798.76,467.38L799.19,467.91L799.56,468.38L799.89,468.8L800.23,469.22L800.56,469.65L800.9,470.07L801.23,470.5L801.62,470.99L802.04,471.54L802.51,472.14L803.02,472.8L803.44,473.34L803.77,473.77L804,474.07L804.14,474.26L804.41,474.61L804.8,475.13L805.32,475.82L805.96,476.66L806.46,477.32L806.81,477.79L807.02,478.07L807.08,478.15L807.27,478.4L807.59,478.83L808.03,479.42L808.59,480.19L809.09,480.86L809.51,481.43L809.87,481.91L810.15,482.3L810.45,482.71L810.75,483.13L811.07,483.57L811.41,484.03L811.79,484.56L812.21,485.15L812.68,485.81L813.2,486.53L813.6,487.1L813.91,487.53L814.1,487.8L814.19,487.93L814.41,488.24L814.75,488.72L815.22,489.39L815.81,490.24L816.3,490.94L816.68,491.48L816.95,491.87L817.12,492.11L817.34,492.44L817.63,492.87L817.99,493.38L818.41,493.99L818.83,494.61L819.25,495.24L819.68,495.87L820.11,496.51L820.47,497.04L820.75,497.46L820.97,497.78L821.11,497.99L821.35,498.36L821.7,498.89L822.16,499.58L822.72,500.42L823.18,501.12L823.53,501.66L823.78,502.04L823.93,502.27L824.14,502.59L824.42,503.02L824.75,503.54L825.15,504.16L825.57,504.8L825.99,505.46L826.43,506.15L826.87,506.85L827.23,507.41L827.5,507.84L827.68,508.12L827.77,508.27L827.97,508.59L828.28,509.09L828.7,509.76L829.23,510.61L829.68,511.34L830.06,511.95L830.37,512.44L830.6,512.82L830.84,513.22L831.1,513.64L831.37,514.09L831.66,514.56L832,515.13L832.39,515.79L832.84,516.55L833.35,517.4L833.74,518.06L834.02,518.53L834.19,518.81L834.25,518.91L834.4,519.17L834.65,519.59L834.99,520.18L835.43,520.93L835.86,521.68L836.28,522.42L836.7,523.15L837.11,523.87L837.44,524.45L837.68,524.87L837.83,525.15L837.9,525.27L838.07,525.58L838.34,526.06L838.71,526.73L839.18,527.58L839.61,528.36L840,529.07L840.35,529.72L840.66,530.29L840.93,530.79L841.15,531.22L841.34,531.56L841.48,531.84L841.7,532.25L842,532.81L842.36,533.52L842.8,534.37L843.2,535.13L843.55,535.82L843.86,536.42L844.12,536.94L844.36,537.42L844.57,537.84L844.76,538.22L844.92,538.54L845.15,539L845.43,539.59L845.78,540.31L846.18,541.16L846.56,541.94L846.9,542.67L847.21,543.34L847.49,543.94L847.73,544.46L847.92,544.88L848.07,545.22L848.18,545.46L848.36,545.85L848.59,546.4L848.89,547.1L849.26,547.94L849.61,548.79L849.96,549.64L850.3,550.49L850.64,551.34L850.9,552L851.09,552.48L851.2,552.78L851.24,552.89L851.34,553.16L851.48,553.59L851.68,554.17L851.94,554.9L852.19,555.67L852.43,556.46L852.67,557.28L852.91,558.13L853.11,558.98L853.29,559.82L853.44,560.67L853.57,561.52L853.51,562.33L853.26,563.11L852.83,563.85L852.22,564.56L851.55,564.97L850.82,565.09L850.03,564.93L849.18,564.47L848.47,564.06L847.89,563.71L847.44,563.41 M756.27,427.02L756.27,427.02 M738.56,383.67L738.08,383.36L737.62,383.03L737.2,382.68L736.8,382.31L736.44,381.91L736.15,381.5L735.92,381.08L735.76,380.64L735.66,380.19L735.61,379.79L735.61,379.45L735.66,379.16L735.76,378.94L735.95,378.61L736.24,378.19L736.63,377.66L737.12,377.04L737.58,376.48L738,375.98L738.4,375.54L738.76,375.15L739.13,374.75L739.51,374.33L739.91,373.88L740.32,373.42L740.74,372.92L741.17,372.41L741.6,371.86L742.03,371.3L742.41,370.8L742.72,370.38L742.97,370.02L743.17,369.74L743.43,369.32L743.76,368.76L744.17,368.05L744.65,367.2L745.06,366.47L745.39,365.85L745.64,365.35L745.82,364.96L746,364.56L746.18,364.13L746.36,363.69L746.54,363.23L746.75,362.67L746.97,362.01L747.22,361.26L747.48,360.41L747.72,359.56L747.94,358.71L748.14,357.87L748.32,357.02L748.48,356.17L748.62,355.32L748.75,354.47L748.85,353.62L748.94,352.77L749.01,351.93L749.07,351.08L749.1,350.23L749.12,349.38L749.13,348.53L749.12,347.68L749.09,346.83L749.05,345.99L748.99,345.14L748.92,344.29L748.83,343.44L748.72,342.59L748.61,341.74L748.47,340.89L748.33,340.05L748.16,339.2L747.98,338.35L747.79,337.5L747.58,336.65L747.36,335.8L747.12,334.95L746.87,334.11L746.6,333.26L746.39,332.6L746.25,332.13L746.16,331.86L746.13,331.78L746.03,331.53L745.87,331.1L745.63,330.51L745.33,329.74L745.01,328.95L744.66,328.15L744.29,327.32L743.89,326.47L743.56,325.76L743.29,325.19L743.07,324.75L742.92,324.46L742.73,324.1L742.49,323.68L742.22,323.19L741.91,322.63L741.54,322.01L741.12,321.3L740.64,320.53L740.1,319.68L739.7,319.05L739.43,318.62L739.29,318.41L739.29,318.41L739.14,318.2L738.83,317.77L738.36,317.13L737.74,316.29L737.22,315.58L736.79,315.01L736.47,314.59L736.24,314.3L735.95,313.95L735.59,313.53L735.17,313.03L734.69,312.47L734.23,311.95L733.81,311.47L733.41,311.03L733.05,310.65L732.66,310.24L732.25,309.81L731.82,309.37L731.36,308.91L730.92,308.48L730.49,308.07L730.09,307.68L729.7,307.32L729.26,306.92L728.79,306.5L728.27,306.04L727.71,305.56L727.22,305.14L726.79,304.78L726.44,304.48L726.15,304.25L725.73,303.92L725.17,303.49L724.48,302.97L723.66,302.36L723.03,301.89L722.61,301.58L722.39,301.41L722.36,301.39L722.13,301.24L721.69,300.95L721.05,300.53L720.2,299.97L719.45,299.48L718.8,299.07L718.25,298.72L717.79,298.45L717.35,298.19L716.93,297.94L716.52,297.71L716.13,297.49L715.62,297.21L715,296.88L714.26,296.5L713.41,296.06L712.68,295.69L712.05,295.37L711.54,295.12L711.13,294.93L710.72,294.74L710.3,294.55L709.86,294.35L709.42,294.16L708.87,293.92L708.22,293.66L707.47,293.35L706.63,293.02L705.78,292.69L704.93,292.37L704.08,292.07L703.23,291.77L702.58,291.55L702.13,291.39L701.87,291.3L701.81,291.28L701.57,291.21L701.14,291.08L700.54,290.9L699.75,290.67L698.94,290.43L698.12,290.21L697.29,289.99L696.44,289.77L695.59,289.57L694.75,289.37L693.9,289.18L693.05,289L692.2,288.83L691.35,288.66L690.5,288.51L689.65,288.36L688.89,288.23L688.22,288.12L687.64,288.03L687.15,287.96L686.69,287.9L686.27,287.84L685.88,287.79L685.52,287.75L685.04,287.69L684.44,287.63L683.71,287.55L682.87,287.47L682.02,287.39L681.17,287.32L680.32,287.26L679.47,287.2L678.62,287.15L677.77,287.11L676.93,287.07L676.08,287.04L675.23,287.02L674.38,287L673.53,286.99L672.68,286.99L671.83,286.99L670.99,286.99L670.14,287.01L669.29,287.02L668.44,287.05L667.59,287.08L666.74,287.11L665.89,287.15L665.05,287.19L664.2,287.24L663.35,287.29L662.5,287.34L661.65,287.4L660.8,287.46L659.95,287.53L659.11,287.6L658.37,287.66L657.73,287.72L657.21,287.76L656.8,287.8L656.38,287.84L655.95,287.88L655.52,287.92L655.09,287.96L654.55,288.02L653.91,288.08L653.17,288.16L652.32,288.25L651.47,288.33L650.62,288.42L649.77,288.51L648.92,288.6L648.07,288.69L647.23,288.77L646.38,288.86L645.53,288.94L644.68,289.02L643.83,289.1L642.98,289.18L642.13,289.25L641.29,289.33L640.44,289.39L639.59,289.45L638.74,289.51L637.89,289.56L637.04,289.61L636.19,289.65L635.35,289.69L634.5,289.72L633.65,289.74L632.8,289.76L631.95,289.77L631.1,289.77L630.25,289.76L629.41,289.74L628.56,289.72L627.71,289.69L626.86,289.65L626.01,289.6L625.16,289.54L624.31,289.47L623.47,289.39L622.62,289.31L621.77,289.21L620.92,289.11L620.07,288.99L619.22,288.87L618.37,288.74L617.53,288.6L616.68,288.45L615.83,288.29L614.98,288.12L614.34,288L613.91,287.91L613.69,287.87L613.67,287.86L613.45,287.81L613.03,287.71L612.4,287.56L611.56,287.36L610.73,287.16L609.89,286.94L609.04,286.72L608.19,286.49L607.34,286.25L606.49,286L605.65,285.75L604.8,285.49L604.04,285.25L603.38,285.05L602.8,284.86L602.32,284.7L601.87,284.55L601.44,284.41L601.05,284.28L600.68,284.15L600.19,283.98L599.59,283.76L598.86,283.5L598.01,283.2L597.16,282.89L596.31,282.57L595.46,282.25L594.61,281.93L593.92,281.66L593.38,281.45L592.99,281.3L592.76,281.21L592.43,281.08L592,280.91L591.48,280.7L590.87,280.45L590.2,280.18L589.46,279.88L588.67,279.55L587.83,279.19L587.05,278.87L586.33,278.57L585.69,278.29L585.12,278.05L584.62,277.83L584.19,277.65L583.84,277.5L583.57,277.38L583.15,277.2L582.59,276.95L581.89,276.64L581.04,276.26L580.21,275.89L579.39,275.53L578.59,275.17L577.8,274.81L577.2,274.54L576.77,274.35L576.53,274.24L576.47,274.21L576.21,274.09L575.75,273.88L575.1,273.58L574.25,273.19L573.4,272.8L572.55,272.41L571.7,272.01L570.86,271.62L570.2,271.31L569.74,271.1L569.47,270.97L569.4,270.94L569.15,270.82L568.73,270.62L568.13,270.34L567.35,269.97L566.56,269.6L565.75,269.21L564.92,268.82L564.07,268.41L563.39,268.09L562.88,267.85L562.55,267.69L562.38,267.61L562.09,267.47L561.66,267.27L561.11,267L560.42,266.68L559.7,266.33L558.93,265.96L558.13,265.57L557.28,265.16L556.58,264.83L556.04,264.57L555.65,264.38L555.42,264.27L555.09,264.11L554.67,263.9L554.15,263.65L553.53,263.36L552.86,263.03L552.13,262.68L551.34,262.29L550.49,261.88L549.78,261.54L549.21,261.26L548.78,261.06L548.49,260.92L548.14,260.74L547.71,260.54L547.22,260.3L546.66,260.03L546.03,259.72L545.33,259.38L544.55,259L543.7,258.59L542.98,258.24L542.39,257.95L541.92,257.72L541.58,257.56L541.19,257.37L540.77,257.17L540.3,256.94L539.8,256.69L539.2,256.41L538.52,256.08L537.76,255.71L536.91,255.3L536.18,254.94L535.56,254.64L535.05,254.39L534.66,254.2L534.25,254L533.83,253.8L533.39,253.59L532.93,253.36L532.38,253.1L531.72,252.78L530.97,252.42L530.12,252.01L529.38,251.65L528.73,251.33L528.18,251.07L527.73,250.85L527.29,250.64L526.86,250.43L526.45,250.23L526.05,250.04L525.54,249.8L524.92,249.5L524.18,249.14L523.34,248.73L522.57,248.36L521.89,248.04L521.29,247.75L520.77,247.5L520.3,247.27L519.88,247.07L519.5,246.89L519.17,246.73L518.71,246.51L518.12,246.22L517.4,245.88L516.55,245.47L515.76,245.1L515.04,244.75L514.39,244.44L513.8,244.16L513.29,243.91L512.86,243.71L512.52,243.55L512.27,243.43L511.86,243.23L511.31,242.97L510.61,242.64L509.76,242.23L508.95,241.85L508.19,241.49L507.47,241.14L506.79,240.82L506.24,240.56L505.81,240.36L505.52,240.22L505.35,240.14L505.01,239.98L504.5,239.74L503.82,239.41L502.97,239.01L502.14,238.62L501.33,238.24L500.53,237.86L499.76,237.49L499.16,237.21L498.73,237.01L498.48,236.89L498.41,236.86L498.14,236.73L497.68,236.52L497.03,236.21L496.18,235.81L495.33,235.41L494.48,235.01L493.64,234.62L492.79,234.22L492.14,233.91L491.7,233.71L491.46,233.59L491.42,233.58L491.19,233.47L490.77,233.27L490.15,232.98L489.34,232.6L488.52,232.22L487.69,231.83L486.85,231.44L486,231.04L485.32,230.72L484.82,230.49L484.49,230.34L484.34,230.26L484.05,230.13L483.63,229.93L483.07,229.67L482.37,229.35L481.64,229.01L480.87,228.65L480.06,228.27L479.21,227.87L478.5,227.54L477.94,227.28L477.52,227.09L477.24,226.96L476.89,226.79L476.47,226.6L475.97,226.36L475.4,226.1L474.76,225.8L474.05,225.47L473.27,225.11L472.42,224.71L471.68,224.37L471.06,224.08L470.55,223.84L470.15,223.65L469.73,223.46L469.31,223.26L468.87,223.05L468.43,222.85L467.88,222.59L467.23,222.29L466.48,221.94L465.63,221.54L464.87,221.18L464.18,220.86L463.58,220.58L463.07,220.34L462.59,220.12L462.17,219.92L461.79,219.74L461.46,219.59L461,219.37L460.41,219.09L459.69,218.75L458.84,218.35L458.05,217.98L457.32,217.63L456.65,217.31L456.03,217.02L455.51,216.77L455.09,216.57L454.76,216.41L454.53,216.3L454.14,216.12L453.6,215.86L452.9,215.52L452.06,215.11L451.25,214.73L450.49,214.36L449.77,214.01L449.09,213.68L448.54,213.41L448.12,213.2L447.82,213.06L447.65,212.97L447.31,212.8L446.8,212.55L446.12,212.21L445.27,211.79L444.46,211.38L443.71,211L443,210.64L442.33,210.3L441.78,210.02L441.36,209.8L441.06,209.65L440.87,209.55L440.53,209.37L440.01,209.09L439.33,208.73L438.48,208.27L437.71,207.85L437.02,207.48L436.42,207.14L435.89,206.84L435.42,206.57L434.99,206.33L434.62,206.11L434.3,205.92L433.84,205.63L433.26,205.24L432.54,204.76L431.69,204.18L431.03,203.73L430.55,203.4L430.27,203.2L430.17,203.12L430.12,202.87L430.12,202.44L430.17,201.84L430.27,201.06L430.55,200.48L431.03,200.09L431.69,199.9L432.54,199.91L433.39,199.94L434.24,199.99L435.08,200.07L435.93,200.17L436.78,200.28L437.63,200.4L438.48,200.52L439.33,200.66L440.18,200.81L441.02,200.96L441.87,201.12L442.72,201.29L443.57,201.46L444.42,201.63L445.27,201.81L446.12,201.99L446.95,202.18L447.76,202.36L448.56,202.54L449.35,202.73L449.95,202.87L450.38,202.97L450.62,203.03L450.69,203.04L450.95,203.11L451.4,203.22L452.06,203.38L452.9,203.59L453.75,203.81L454.6,204.02L455.45,204.24L456.3,204.47L457.15,204.69L458,204.92L458.84,205.15L459.69,205.38L460.48,205.59L461.2,205.79L461.86,205.98L462.46,206.14L462.97,206.29L463.39,206.41L463.73,206.5L463.98,206.58L464.38,206.69L464.93,206.85L465.63,207.06L466.48,207.3L467.33,207.55L468.18,207.8L469.03,208.06L469.88,208.31L470.72,208.57L471.57,208.83L472.42,209.09L473.27,209.35L473.92,209.55L474.36,209.68L474.61,209.76L474.65,209.77L474.88,209.85L475.3,209.98L475.92,210.17L476.73,210.43L477.54,210.69L478.37,210.95L479.21,211.22L480.06,211.49L480.91,211.77L481.76,212.05L482.6,212.32L483.45,212.6L484.12,212.82L484.6,212.98L484.91,213.08L485.03,213.12L485.3,213.22L485.73,213.36L486.3,213.55L487.03,213.8L487.79,214.05L488.57,214.32L489.39,214.6L490.24,214.89L491.09,215.18L491.94,215.47L492.79,215.77L493.64,216.06L494.29,216.29L494.74,216.44L494.99,216.53L495.04,216.55L495.28,216.64L495.71,216.79L496.32,217L497.11,217.28L497.92,217.57L498.74,217.86L499.58,218.16L500.42,218.46L501.24,218.76L502.03,219.04L502.78,219.32L503.51,219.58L504.08,219.79L504.5,219.94L504.78,220.04L504.9,220.09L505.21,220.2L505.7,220.38L506.36,220.63L507.21,220.94L508.06,221.25L508.91,221.57L509.76,221.89L510.61,222.2L511.36,222.49L512.01,222.73L512.56,222.94L513.02,223.11L513.46,223.28L513.88,223.44L514.29,223.59L514.68,223.74L515.19,223.94L515.81,224.17L516.55,224.45L517.4,224.78L518.24,225.11L519.09,225.43L519.94,225.76L520.79,226.09L521.45,226.35L521.94,226.54L522.23,226.65L522.35,226.7L522.62,226.8L523.04,226.97L523.62,227.19L524.36,227.48L525.12,227.78L525.91,228.09L526.73,228.42L527.58,228.75L528.36,229.06L529.06,229.34L529.69,229.6L530.26,229.82L530.75,230.02L531.18,230.19L531.53,230.33L531.82,230.44L532.24,230.61L532.81,230.84L533.52,231.13L534.37,231.47L535.22,231.81L536.06,232.16L536.91,232.5L537.76,232.85L538.43,233.12L538.91,233.31L539.21,233.43L539.32,233.48L539.59,233.59L540.01,233.76L540.59,234L541.33,234.3L542.09,234.62L542.88,234.94L543.7,235.28L544.55,235.63L545.31,235.94L545.97,236.21L546.54,236.45L547.02,236.65L547.47,236.84L547.89,237.01L548.29,237.18L548.66,237.33L549.15,237.53L549.76,237.79L550.49,238.09L551.34,238.45L552.18,238.8L553.01,239.14L553.83,239.49L554.64,239.83L555.26,240.09L555.69,240.27L555.92,240.36L555.95,240.38L556.19,240.48L556.63,240.66L557.28,240.93L558.13,241.29L558.98,241.65L559.82,242L560.67,242.36L561.52,242.72L562.23,243.02L562.79,243.25L563.22,243.43L563.5,243.55L563.86,243.7L564.28,243.88L564.78,244.09L565.34,244.33L565.98,244.6L566.68,244.89L567.46,245.22L568.31,245.58L569.1,245.91L569.82,246.22L570.48,246.5L571.08,246.75L571.59,246.96L572.02,247.14L572.35,247.28L572.6,247.39L573,247.56L573.55,247.79L574.25,248.08L575.1,248.44L575.95,248.79L576.8,249.15L577.64,249.5L578.49,249.86L579.15,250.13L579.61,250.33L579.88,250.44L579.96,250.47L580.21,250.58L580.64,250.75L581.23,251L582,251.32L582.79,251.65L583.6,251.98L584.43,252.33L585.28,252.68L586.03,252.98L586.67,253.25L587.21,253.47L587.65,253.65L588.08,253.82L588.5,254L588.92,254.17L589.33,254.33L589.85,254.55L590.48,254.8L591.22,255.1L592.07,255.44L592.92,255.78L593.77,256.12L594.61,256.46L595.46,256.79L596.1,257.04L596.53,257.21L596.75,257.3L596.76,257.31L596.98,257.39L597.4,257.55L598.03,257.8L598.87,258.13L599.71,258.45L600.56,258.77L601.4,259.1L602.25,259.42L603.02,259.71L603.72,259.97L604.33,260.2L604.87,260.4L605.35,260.58L605.78,260.74L606.15,260.87L606.45,260.99L606.9,261.15L607.48,261.36L608.19,261.61L609.04,261.92L609.89,262.22L610.74,262.52L611.59,262.81L612.43,263.11L613.17,263.36L613.81,263.58L614.33,263.75L614.74,263.89L615.16,264.03L615.58,264.17L616.01,264.31L616.45,264.46L616.99,264.63L617.63,264.83L618.37,265.07L619.22,265.34L620.07,265.6L620.92,265.86L621.77,266.12L622.62,266.37L623.42,266.61L624.17,266.83L624.87,267.03L625.52,267.22L626.06,267.37L626.49,267.49L626.8,267.57L626.99,267.63L627.35,267.72L627.87,267.86L628.56,268.04L629.41,268.26L630.25,268.48L631.1,268.7L631.95,268.91L632.8,269.11L633.65,269.31L634.5,269.51L635.35,269.71L636.19,269.9L637.04,270.08L637.89,270.26L638.74,270.44L639.59,270.61L640.23,270.75L640.66,270.83L640.89,270.88L640.9,270.88L641.12,270.92L641.55,271L642.17,271.12L643.01,271.28L643.84,271.43L644.68,271.58L645.53,271.72L646.38,271.87L647.23,272.01L648.07,272.15L648.92,272.28L649.77,272.41L650.62,272.54L651.47,272.67L652.32,272.79L653.17,272.91L654.01,273.03L654.86,273.15L655.71,273.26L656.56,273.38L657.41,273.49L658.26,273.6L659.11,273.71L659.95,273.81L660.75,273.91L661.48,274.01L662.16,274.09L662.79,274.17L663.31,274.23L663.74,274.28L664.06,274.32L664.29,274.35L664.67,274.4L665.2,274.46L665.89,274.55L666.74,274.65L667.59,274.76L668.44,274.86L669.29,274.97L670.14,275.08L670.99,275.19L671.83,275.3L672.68,275.41L673.53,275.52L674.38,275.63L675.23,275.75L676.08,275.87L676.93,275.99L677.77,276.12L678.62,276.24L679.47,276.37L680.32,276.51L681.17,276.64L682.02,276.78L682.87,276.93L683.71,277.07L684.48,277.21L685.16,277.33L685.75,277.44L686.26,277.53L686.73,277.62L687.15,277.7L687.53,277.78L687.87,277.84L688.34,277.94L688.93,278.07L689.65,278.22L690.5,278.4L691.35,278.59L692.2,278.78L693.05,278.98L693.9,279.18L694.75,279.39L695.59,279.61L696.44,279.83L697.29,280.05L698.07,280.27L698.79,280.46L699.43,280.65L700.01,280.82L700.51,280.96L700.93,281.09L701.28,281.2L701.55,281.28L701.97,281.41L702.53,281.59L703.23,281.83L704.08,282.11L704.93,282.4L705.78,282.69L706.63,283L707.47,283.31L708.22,283.58L708.86,283.83L709.4,284.03L709.83,284.21L710.26,284.38L710.69,284.55L711.11,284.72L711.52,284.9L712.04,285.12L712.67,285.4L713.41,285.73L714.26,286.11L715.05,286.47L715.77,286.81L716.44,287.12L717.04,287.42L717.55,287.67L717.98,287.88L718.31,288.05L718.56,288.18L718.96,288.39L719.5,288.68L720.2,289.06L721.05,289.53L721.8,289.94L722.44,290.3L722.98,290.61L723.41,290.87L723.84,291.12L724.27,291.38L724.69,291.64L725.1,291.89L725.62,292.22L726.25,292.63L726.99,293.12L727.84,293.69L728.49,294.12L728.93,294.42L729.17,294.58L729.21,294.61L729.44,294.78L729.87,295.09L730.48,295.54L731.29,296.14L731.98,296.65L732.54,297.08L732.98,297.41L733.3,297.67L733.67,297.96L734.1,298.31L734.57,298.71L735.1,299.15L735.62,299.58L736.11,300.01L736.59,300.42L737.05,300.83L737.49,301.22L737.91,301.61L738.32,301.98L738.71,302.35L739.12,302.75L739.56,303.17L740.02,303.62L740.51,304.11L740.96,304.56L741.39,305L741.78,305.4L742.14,305.79L742.52,306.19L742.91,306.62L743.31,307.06L743.73,307.53L744.15,308L744.58,308.49L745,309L745.44,309.51L745.83,309.98L746.17,310.41L746.48,310.79L746.74,311.12L747.09,311.57L747.51,312.13L748.02,312.81L748.6,313.6L749.05,314.21L749.36,314.64L749.53,314.88L749.57,314.93L749.74,315.18L750.04,315.64L750.46,316.29L751.02,317.13L751.5,317.88L751.9,318.52L752.23,319.05L752.49,319.48L752.74,319.9L752.99,320.32L753.23,320.75L753.47,321.17L753.75,321.7L754.09,322.33L754.48,323.07L754.92,323.92L755.29,324.65L755.59,325.26L755.83,325.75L756.01,326.12L756.19,326.52L756.38,326.94L756.58,327.39L756.79,327.87L757.03,328.44L757.3,329.11L757.61,329.86L757.94,330.71L758.26,331.56L758.57,332.41L758.87,333.26L759.15,334.11L759.37,334.76L759.52,335.22L759.61,335.48L759.63,335.54L759.7,335.79L759.82,336.21L759.99,336.81L760.21,337.6L760.42,338.4L760.62,339.21L760.82,340.05L761.01,340.89L761.2,341.74L761.37,342.59L761.52,343.44L761.67,344.29L761.81,345.14L761.93,345.99L762.05,346.83L762.15,347.68L762.24,348.53L762.32,349.38L762.39,350.23L762.45,351.08L762.49,351.93L762.52,352.77L762.55,353.62L762.56,354.47L762.56,355.32L762.54,356.17L762.52,357.02L762.48,357.87L762.43,358.71L762.36,359.56L762.29,360.41L762.2,361.26L762.1,362.11L761.98,362.96L761.85,363.81L761.7,364.65L761.54,365.5L761.37,366.35L761.18,367.2L760.97,368.05L760.75,368.88L760.52,369.68L760.28,370.46L760.03,371.23L759.84,371.82L759.7,372.24L759.61,372.5L759.58,372.59L759.46,372.86L759.26,373.33L758.97,373.99L758.59,374.84L758.2,375.66L757.79,376.46L757.37,377.23L756.93,377.97L756.58,378.56L756.32,378.98L756.16,379.25L756.09,379.35L755.84,379.64L755.42,380.11L754.83,380.78L754.06,381.63L753.48,382.26L753.09,382.69L752.89,382.91L752.88,382.92L752.67,383.05L752.24,383.31L751.6,383.7L750.75,384.22L749.9,384.65L749.05,385L748.2,385.27L747.36,385.46L746.51,385.58L745.66,385.63L744.81,385.61L743.96,385.53L743.11,385.39L742.27,385.19L741.42,384.93L740.57,384.62L739.81,384.3L739.14,383.99L738.56,383.67" fill="#ffffff" fill-opacity="0.9" fill-rule="evenodd" stroke="#ffffff" stroke-width="2.50" stroke-linejoin="round" stroke-linecap="round"/>
</svg>