<svg xmlns="http://www.w3.org/2000/svg" width="1000" height="1000" viewBox="0 0 1000 1000">
<rect width="1000" height="1000" fill="#c8102e"/>
<path d="M901.65,682.11L901.28,681.9L901.02,681.54L900.87,681.01L900.83,680.32L900.91,679.47L901.01,678.62L901.15,677.77L901.3,676.93L901.49,676.08L901.66,675.33L901.81,674.67L901.94,674.12L902.05,673.67L902.16,673.23L902.27,672.8L902.37,672.39L902.48,672L902.61,671.49L902.78,670.87L902.98,670.14L903.21,669.29L903.44,668.44L903.68,667.59L903.92,666.74L904.15,665.89L904.39,665.05L904.63,664.2L904.88,663.35L905.12,662.5L905.31,661.83L905.44,661.35L905.53,661.05L905.56,660.94L905.64,660.66L905.76,660.24L905.93,659.66L906.14,658.93L906.36,658.17L906.59,657.38L906.82,656.56L907.06,655.71L907.31,654.86L907.55,654.01L907.79,653.17L908.04,652.32L908.26,651.55L908.45,650.85L908.63,650.24L908.78,649.7L908.92,649.22L909.04,648.8L909.14,648.43L909.23,648.12L909.35,647.67L909.52,647.09L909.72,646.38L909.95,645.53L910.19,644.68L910.43,643.83L910.66,642.98L910.89,642.13L911.13,641.29L911.36,640.44L911.59,639.59L911.82,638.74L912.01,638.05L912.15,637.51L912.25,637.14L912.31,636.91L912.4,636.59L912.51,636.17L912.65,635.64L912.82,635.01L913,634.33L913.19,633.59L913.4,632.8L913.62,631.95L913.84,631.1L914.06,630.25L914.28,629.41L914.5,628.56L914.71,627.71L914.93,626.86L915.14,626.01L915.35,625.16L915.52,624.49L915.64,624L915.72,623.69L915.75,623.56L915.82,623.29L915.92,622.86L916.06,622.29L916.23,621.57L916.41,620.82L916.6,620.04L916.8,619.22L917,618.37L917.2,617.53L917.4,616.68L917.59,615.83L917.79,614.98L917.98,614.13L918.18,613.28L918.37,612.43L918.56,611.59L918.72,610.85L918.86,610.23L918.98,609.72L919.06,609.33L919.15,608.92L919.24,608.5L919.34,608.06L919.44,607.6L919.56,607.05L919.69,606.4L919.85,605.65L920.03,604.8L920.21,603.95L920.39,603.1L920.56,602.25L920.73,601.4L920.91,600.55L921.08,599.71L921.25,598.86L921.41,598.01L921.58,597.16L921.74,596.31L921.91,595.46L922.07,594.61L922.21,593.89L922.32,593.28L922.41,592.79L922.48,592.41L922.56,592.02L922.63,591.59L922.71,591.14L922.8,590.66L922.9,590.09L923.02,589.43L923.16,588.67L923.31,587.83L923.45,586.98L923.6,586.13L923.74,585.28L923.89,584.43L924.03,583.58L924.17,582.73L924.31,581.89L924.45,581.04L924.58,580.19L924.72,579.34L924.85,578.49L924.98,577.64L925.11,576.8L925.24,575.95L925.36,575.1L925.49,574.25L925.6,573.48L925.7,572.78L925.79,572.17L925.87,571.62L925.93,571.14L925.99,570.72L926.04,570.35L926.08,570.04L926.14,569.6L926.22,569.02L926.32,568.31L926.43,567.46L926.54,566.61L926.65,565.76L926.75,564.92L926.86,564.07L926.96,563.22L927.07,562.37L927.17,561.52L927.27,560.67L927.37,559.82L927.46,558.98L927.56,558.13L927.65,557.28L927.74,556.43L927.83,555.58L927.92,554.73L928,553.88L928.09,553.04L928.17,552.19L928.25,551.34L928.33,550.49L928.41,549.64L928.49,548.79L928.56,547.94L928.63,547.1L928.71,546.25L928.77,545.4L928.84,544.55L928.91,543.7L928.97,542.85L929.04,542L929.1,541.16L929.16,540.31L929.21,539.54L929.25,538.87L929.29,538.28L929.33,537.77L929.35,537.31L929.38,536.88L929.4,536.5L929.42,536.15L929.45,535.68L929.48,535.09L929.52,534.37L929.57,533.52L929.61,532.67L929.66,531.82L929.7,530.97L929.73,530.12L929.77,529.28L929.81,528.43L929.84,527.58L929.87,526.73L929.9,525.88L929.93,525.03L929.95,524.18L929.98,523.34L930,522.49L930.02,521.64L930.04,520.79L930.06,519.94L930.07,519.09L930.08,518.24L930.09,517.4L930.1,516.55L930.11,515.7L930.12,514.85L930.12,514L930.12,513.15L930.12,512.3L930.12,511.46L930.11,510.61L930.11,509.76L930.1,508.91L930.09,508.06L930.08,507.21L930.06,506.36L930.05,505.52L930.03,504.67L930.01,503.82L929.99,502.97L929.96,502.12L929.93,501.27L929.91,500.42L929.88,499.58L929.84,498.73L929.81,497.88L929.77,497.03L929.73,496.18L929.69,495.33L929.65,494.48L929.6,493.64L929.55,492.79L929.51,492.05L929.47,491.42L929.44,490.89L929.41,490.48L929.39,490.06L929.36,489.63L929.33,489.2L929.3,488.77L929.26,488.23L929.21,487.59L929.16,486.85L929.09,486L929.02,485.15L928.95,484.3L928.88,483.45L928.8,482.6L928.73,481.76L928.65,480.91L928.57,480.06L928.48,479.21L928.39,478.36L928.3,477.51L928.21,476.66L928.12,475.82L928.02,474.97L927.92,474.12L927.82,473.27L927.72,472.42L927.61,471.57L927.5,470.72L927.39,469.88L927.28,469.03L927.16,468.18L927.05,467.33L926.92,466.48L926.8,465.63L926.68,464.78L926.55,463.94L926.42,463.09L926.29,462.24L926.18,461.56L926.1,461.05L926.05,460.72L926.02,460.55L925.97,460.26L925.9,459.83L925.81,459.28L925.69,458.6L925.57,457.87L925.43,457.11L925.29,456.3L925.14,455.45L924.99,454.6L924.83,453.75L924.67,452.9L924.51,452.06L924.34,451.21L924.18,450.36L924.01,449.51L923.84,448.66L923.66,447.81L923.49,446.96L923.31,446.12L923.13,445.27L922.98,444.55L922.85,443.98L922.76,443.53L922.69,443.22L922.61,442.86L922.51,442.43L922.4,441.95L922.28,441.41L922.14,440.79L921.98,440.1L921.8,439.33L921.6,438.48L921.4,437.63L921.19,436.78L920.99,435.93L920.78,435.08L920.57,434.24L920.35,433.39L920.14,432.54L919.92,431.69L919.73,430.96L919.57,430.34L919.44,429.85L919.34,429.46L919.23,429.06L919.12,428.64L919,428.19L918.88,427.72L918.72,427.16L918.54,426.5L918.33,425.75L918.1,424.9L917.86,424.05L917.62,423.2L917.38,422.36L917.13,421.51L916.89,420.67L916.64,419.84L916.4,419.02L916.16,418.21L915.97,417.59L915.85,417.17L915.78,416.94L915.77,416.9L915.69,416.66L915.56,416.21L915.36,415.57L915.09,414.72L914.83,413.87L914.56,413.02L914.29,412.17L914.02,411.33L913.75,410.48L913.47,409.63L913.19,408.78L912.92,407.93L912.7,407.28L912.55,406.82L912.46,406.55L912.44,406.48L912.35,406.24L912.21,405.81L912,405.21L911.74,404.43L911.47,403.64L911.19,402.82L910.9,401.99L910.6,401.14L910.31,400.31L910.01,399.48L909.72,398.67L909.44,397.88L909.22,397.27L909.07,396.84L908.98,396.6L908.96,396.55L908.87,396.3L908.7,395.85L908.46,395.2L908.15,394.35L907.83,393.51L907.51,392.66L907.19,391.81L906.87,390.96L906.58,390.2L906.32,389.52L906.1,388.94L905.9,388.44L905.72,387.97L905.56,387.55L905.41,387.16L905.27,386.81L905.09,386.34L904.85,385.74L904.56,385.02L904.22,384.17L903.88,383.32L903.54,382.47L903.19,381.63L902.84,380.78L902.58,380.12L902.39,379.67L902.28,379.41L902.26,379.35L902.16,379.1L901.98,378.68L901.73,378.07L901.4,377.29L901.06,376.49L900.71,375.67L900.36,374.84L899.99,373.99L899.68,373.26L899.42,372.66L899.22,372.18L899.06,371.82L898.89,371.43L898.7,371L898.5,370.55L898.29,370.06L898.03,369.48L897.73,368.81L897.39,368.05L897.01,367.2L896.67,366.42L896.35,365.72L896.06,365.09L895.81,364.53L895.59,364.04L895.39,363.62L895.23,363.26L895.1,362.97L894.9,362.54L894.63,361.97L894.3,361.26L893.91,360.41L893.53,359.61L893.17,358.85L892.83,358.13L892.51,357.46L892.25,356.91L892.05,356.49L891.91,356.19L891.82,356.01L891.66,355.66L891.41,355.15L891.08,354.47L890.67,353.62L890.27,352.81L889.89,352.03L889.52,351.28L889.17,350.57L888.89,350L888.68,349.57L888.54,349.29L888.47,349.16L888.32,348.84L888.07,348.35L887.73,347.68L887.31,346.83L886.9,346.02L886.51,345.25L886.13,344.52L885.78,343.83L885.49,343.27L885.28,342.85L885.13,342.56L885.05,342.4L884.88,342.07L884.61,341.57L884.26,340.89L883.82,340.05L883.41,339.26L883.02,338.52L882.67,337.85L882.34,337.24L882.07,336.72L881.84,336.29L881.67,335.96L881.54,335.73L881.33,335.34L881.04,334.8L880.67,334.11L880.21,333.26L879.8,332.5L879.44,331.83L879.13,331.25L878.86,330.77L878.61,330.31L878.38,329.88L878.16,329.49L877.96,329.13L877.7,328.65L877.36,328.04L876.96,327.32L876.48,326.47L876.09,325.75L875.76,325.17L875.51,324.72L875.33,324.41L875.12,324.04L874.88,323.61L874.61,323.13L874.31,322.6L873.96,321.99L873.57,321.3L873.13,320.53L872.64,319.68L872.26,319.02L871.99,318.54L871.82,318.25L871.76,318.15L871.61,317.89L871.36,317.46L871.02,316.88L870.59,316.13L870.16,315.4L869.73,314.67L869.31,313.96L868.9,313.25L868.57,312.69L868.32,312.27L868.15,311.98L868.06,311.84L867.87,311.52L867.57,311.02L867.17,310.35L866.66,309.5L866.22,308.76L865.84,308.12L865.52,307.59L865.27,307.17L865.01,306.74L864.75,306.32L864.49,305.9L864.24,305.47L863.91,304.94L863.52,304.3L863.07,303.56L862.55,302.71L862.14,302.04L861.84,301.56L861.66,301.27L861.59,301.15L861.43,300.89L861.16,300.46L860.8,299.88L860.35,299.15L859.9,298.44L859.48,297.76L859.07,297.1L858.68,296.48L858.35,295.96L858.09,295.53L857.88,295.21L857.74,294.98L857.5,294.6L857.16,294.07L856.72,293.37L856.18,292.53L855.74,291.82L855.38,291.27L855.12,290.86L854.95,290.59L854.73,290.25L854.46,289.82L854.14,289.32L853.76,288.74L853.36,288.11L852.94,287.46L852.49,286.76L852.02,286.03L851.64,285.45L851.37,285.03L851.19,284.76L851.12,284.64L850.92,284.34L850.61,283.86L850.17,283.19L849.62,282.34L849.15,281.62L848.76,281.03L848.46,280.57L848.24,280.24L847.99,279.86L847.71,279.44L847.4,278.97L847.06,278.45L846.68,277.87L846.25,277.23L845.79,276.53L845.28,275.76L844.88,275.17L844.6,274.74L844.43,274.49L844.38,274.41L844.2,274.13L843.88,273.67L843.45,273.01L842.88,272.16L842.4,271.44L842,270.85L841.69,270.38L841.46,270.05L841.21,269.67L840.92,269.24L840.61,268.77L840.26,268.26L839.88,267.69L839.45,267.06L838.99,266.38L838.48,265.63L838.09,265.05L837.8,264.62L837.62,264.36L837.55,264.26L837.36,263.97L837.03,263.49L836.58,262.83L836,261.98L835.52,261.27L835.13,260.7L834.84,260.26L834.64,259.97L834.39,259.61L834.1,259.18L833.77,258.69L833.39,258.14L832.99,257.55L832.56,256.93L832.12,256.28L831.65,255.59L831.27,255.04L830.98,254.61L830.77,254.32L830.66,254.16L830.44,253.82L830.09,253.32L829.63,252.64L829.04,251.8L828.57,251.1L828.2,250.56L827.94,250.18L827.78,249.95L827.56,249.63L827.27,249.2L826.91,248.68L826.48,248.06L826.06,247.44L825.63,246.82L825.21,246.2L824.79,245.59L824.43,245.07L824.14,244.64L823.91,244.31L823.75,244.08L823.49,243.7L823.12,243.16L822.64,242.46L822.06,241.61L821.6,240.94L821.25,240.43L821.03,240.1L820.92,239.94L820.72,239.65L820.43,239.23L820.05,238.67L819.58,237.98L819.13,237.32L818.71,236.7L818.31,236.11L817.93,235.56L817.6,235.07L817.31,234.64L817.07,234.28L816.87,233.99L816.57,233.56L816.19,232.99L815.71,232.28L815.14,231.43L814.69,230.76L814.36,230.28L814.16,229.98L814.08,229.87L813.9,229.6L813.62,229.18L813.23,228.6L812.74,227.86L812.28,227.18L811.86,226.54L811.47,225.95L811.11,225.41L810.79,224.93L810.51,224.51L810.27,224.14L810.06,223.83L809.77,223.39L809.39,222.81L808.93,222.1L808.37,221.25L807.93,220.58L807.61,220.08L807.4,219.77L807.31,219.63L807.13,219.35L806.86,218.92L806.5,218.36L806.04,217.65L805.6,216.96L805.17,216.29L804.77,215.65L804.37,215.03L804.04,214.51L803.78,214.09L803.57,213.76L803.43,213.53L803.19,213.15L802.85,212.61L802.42,211.91L801.9,211.06L801.46,210.35L801.11,209.78L800.84,209.35L800.66,209.05L800.44,208.69L800.19,208.27L799.89,207.78L799.56,207.23L799.19,206.6L798.78,205.9L798.32,205.12L797.83,204.28L797.45,203.63L797.19,203.19L797.05,202.94L797.03,202.91L796.9,202.68L796.66,202.25L796.31,201.63L795.86,200.82L795.42,200.03L795,199.26L794.59,198.52L794.19,197.79L793.88,197.21L793.65,196.79L793.51,196.51L793.44,196.39L793.29,196.09L793.04,195.61L792.7,194.94L792.27,194.09L791.85,193.27L791.46,192.48L791.09,191.72L790.74,190.99L790.46,190.41L790.26,189.98L790.13,189.71L790.08,189.6L789.94,189.3L789.73,188.82L789.44,188.15L789.06,187.3L788.7,186.46L788.34,185.61L788,184.76L787.66,183.91L787.39,183.22L787.17,182.67L787.03,182.29L786.94,182.06L786.83,181.73L786.68,181.3L786.5,180.78L786.3,180.17L786.08,179.49L785.86,178.76L785.62,177.97L785.38,177.12L785.16,176.27L784.96,175.42L784.77,174.58L784.59,173.73L784.44,172.88L784.31,172.03L784.2,171.18L784.12,170.33L784.06,169.48L784.03,168.64L784.04,167.79L784.07,166.94L784.16,166.09L784.29,165.24L784.47,164.39L784.7,163.54L784.99,162.75L785.32,162L785.71,161.3L786.15,160.66L786.54,160.12L786.89,159.7L787.18,159.38L787.43,159.18L787.76,158.96L788.19,158.72L788.7,158.46L789.3,158.18L789.97,157.94L790.69,157.76L791.48,157.61L792.33,157.52L793.18,157.47L794.03,157.48L794.88,157.54L795.72,157.65L796.57,157.8L797.42,157.98L798.27,158.2L799.12,158.46L799.76,158.65L800.2,158.78L800.43,158.85L800.45,158.86L800.68,158.96L801.1,159.14L801.73,159.41L802.55,159.77L803.38,160.16L804.22,160.57L805.06,161L805.91,161.46L806.56,161.81L807.01,162.06L807.25,162.2L807.3,162.23L807.54,162.38L807.97,162.65L808.58,163.04L809.38,163.55L810.09,164.02L810.73,164.44L811.29,164.82L811.76,165.16L812.21,165.48L812.64,165.79L813.04,166.08L813.41,166.36L813.87,166.71L814.41,167.14L815.04,167.64L815.75,168.21L816.32,168.66L816.75,169L817.03,169.23L817.16,169.34L817.47,169.61L817.96,170.03L818.62,170.61L819.46,171.35L820.09,171.9L820.51,172.28L820.73,172.47L820.74,172.48L820.96,172.69L821.39,173.1L822.03,173.7L822.88,174.51L823.52,175.12L823.96,175.54L824.2,175.77L824.23,175.8L824.46,176.03L824.89,176.46L825.51,177.1L826.32,177.93L826.94,178.56L827.35,178.98L827.57,179.2L827.58,179.22L827.79,179.44L828.19,179.88L828.78,180.52L829.56,181.36L830.16,182.01L830.58,182.47L830.81,182.72L830.86,182.78L831.08,183.02L831.45,183.44L831.98,184.05L832.67,184.84L833.23,185.48L833.65,185.97L833.94,186.31L834.1,186.49L834.35,186.8L834.71,187.22L835.16,187.77L835.71,188.43L836.2,189.02L836.63,189.54L836.99,189.98L837.28,190.34L837.6,190.74L837.94,191.16L838.3,191.62L838.68,192.1L839.08,192.61L839.51,193.15L839.95,193.73L840.42,194.33L840.82,194.85L841.14,195.27L841.4,195.6L841.59,195.85L841.88,196.24L842.29,196.79L842.81,197.49L843.43,198.34L843.92,198.98L844.25,199.43L844.43,199.68L844.46,199.73L844.63,199.96L844.94,200.39L845.38,201L845.95,201.8L846.45,202.5L846.87,203.1L847.22,203.59L847.5,203.99L847.78,204.4L848.08,204.82L848.38,205.26L848.69,205.71L849.06,206.25L849.49,206.88L849.97,207.59L850.5,208.38L850.91,208.99L851.2,209.42L851.36,209.66L851.39,209.71L851.56,209.96L851.85,210.41L852.28,211.06L852.83,211.91L853.31,212.65L853.72,213.28L854.05,213.79L854.31,214.19L854.58,214.61L854.85,215.03L855.12,215.47L855.4,215.91L855.74,216.46L856.15,217.1L856.61,217.85L857.14,218.7L857.54,219.35L857.83,219.81L857.99,220.08L858.03,220.15L858.18,220.39L858.44,220.82L858.8,221.42L859.27,222.2L859.72,222.94L860.14,223.65L860.54,224.33L860.92,224.97L861.23,225.5L861.48,225.93L861.67,226.24L861.79,226.45L862,226.82L862.31,227.35L862.71,228.04L863.19,228.88L863.62,229.63L863.98,230.26L864.28,230.79L864.52,231.22L864.76,231.64L865,232.06L865.24,232.49L865.48,232.91L865.77,233.44L866.12,234.08L866.53,234.82L867,235.67L867.38,236.38L867.69,236.93L867.91,237.35L868.06,237.61L868.25,237.96L868.47,238.39L868.74,238.89L869.05,239.47L869.4,240.12L869.78,240.83L870.19,241.61L870.64,242.46L870.99,243.14L871.26,243.65L871.44,244L871.53,244.17L871.69,244.47L871.91,244.9L872.19,245.45L872.53,246.12L872.9,246.84L873.29,247.6L873.7,248.4L874.12,249.25L874.46,249.92L874.71,250.42L874.88,250.75L874.95,250.9L875.1,251.19L875.3,251.61L875.58,252.17L875.93,252.87L876.29,253.61L876.66,254.38L877.06,255.19L877.47,256.04L877.8,256.72L878.05,257.24L878.23,257.6L878.32,257.8L878.47,258.11L878.67,258.53L878.92,259.07L879.23,259.72L879.56,260.43L879.92,261.18L880.29,261.98L880.69,262.83L881.02,263.54L881.29,264.12L881.49,264.57L881.64,264.88L881.81,265.25L882,265.68L882.22,266.16L882.46,266.69L882.74,267.3L883.05,268L883.4,268.77L883.78,269.61L884.12,270.38L884.42,271.06L884.69,271.65L884.91,272.16L885.12,272.63L885.3,273.05L885.47,273.44L885.62,273.77L885.82,274.24L886.08,274.83L886.39,275.55L886.76,276.4L887.11,277.24L887.46,278.06L887.81,278.86L888.14,279.65L888.4,280.26L888.58,280.68L888.68,280.92L888.7,280.98L888.81,281.24L889,281.69L889.27,282.34L889.62,283.19L889.97,284.04L890.32,284.89L890.67,285.74L891.01,286.59L891.31,287.3L891.54,287.88L891.72,288.33L891.85,288.64L892,289.01L892.17,289.43L892.36,289.91L892.57,290.45L892.81,291.06L893.09,291.76L893.39,292.53L893.72,293.37L894.05,294.21L894.37,295.02L894.68,295.82L894.98,296.6L895.21,297.21L895.37,297.63L895.47,297.88L895.49,297.94L895.59,298.2L895.77,298.66L896.01,299.31L896.33,300.16L896.65,301.01L896.97,301.86L897.29,302.71L897.6,303.56L897.89,304.32L898.14,305L898.36,305.6L898.54,306.11L898.71,306.58L898.87,307.01L899.01,307.39L899.13,307.72L899.3,308.18L899.51,308.78L899.77,309.5L900.07,310.35L900.37,311.19L900.67,312.04L900.97,312.89L901.27,313.74L901.52,314.47L901.73,315.07L901.9,315.56L902.03,315.93L902.17,316.32L902.31,316.75L902.47,317.2L902.63,317.68L902.83,318.26L903.05,318.92L903.31,319.68L903.6,320.53L903.88,321.38L904.17,322.23L904.45,323.07L904.73,323.92L904.97,324.65L905.17,325.25L905.32,325.73L905.44,326.09L905.57,326.48L905.7,326.9L905.85,327.36L906.01,327.85L906.2,328.43L906.41,329.1L906.65,329.86L906.92,330.71L907.19,331.56L907.46,332.41L907.73,333.26L907.99,334.11L908.23,334.87L908.44,335.55L908.62,336.14L908.78,336.64L908.92,337.11L909.05,337.53L909.16,337.92L909.27,338.26L909.41,338.73L909.59,339.32L909.8,340.05L910.06,340.89L910.31,341.74L910.56,342.59L910.81,343.44L911.06,344.29L911.31,345.14L911.55,345.98L911.8,346.83L912.04,347.67L912.22,348.31L912.34,348.73L912.4,348.94L912.41,348.95L912.47,349.16L912.59,349.59L912.76,350.23L913,351.08L913.24,351.93L913.48,352.77L913.71,353.62L913.94,354.47L914.17,355.32L914.41,356.17L914.63,357.02L914.86,357.87L915.07,358.64L915.26,359.35L915.43,359.98L915.57,360.54L915.7,361.03L915.82,361.46L915.91,361.81L915.98,362.1L916.09,362.53L916.24,363.1L916.42,363.81L916.64,364.65L916.86,365.5L917.07,366.35L917.29,367.2L917.5,368.05L917.71,368.9L917.92,369.75L918.13,370.59L918.34,371.44L918.53,372.22L918.7,372.92L918.85,373.55L918.99,374.11L919.11,374.61L919.21,375.03L919.29,375.39L919.36,375.68L919.46,376.11L919.6,376.67L919.76,377.38L919.96,378.23L920.16,379.08L920.35,379.93L920.55,380.78L920.74,381.63L920.93,382.47L921.12,383.32L921.31,384.17L921.5,385.02L921.69,385.87L921.88,386.72L922.06,387.57L922.24,388.41L922.39,389.07L922.49,389.53L922.54,389.8L922.56,389.88L922.61,390.13L922.7,390.55L922.83,391.15L922.99,391.92L923.16,392.71L923.33,393.52L923.5,394.35L923.67,395.2L923.84,396.05L924.02,396.9L924.19,397.75L924.36,398.6L924.52,399.45L924.69,400.29L924.86,401.14L925.02,401.99L925.19,402.84L925.35,403.69L925.51,404.54L925.67,405.39L925.8,406.04L925.88,406.51L925.94,406.79L925.95,406.88L926,407.14L926.08,407.57L926.19,408.16L926.33,408.91L926.47,409.7L926.61,410.5L926.76,411.33L926.91,412.17L927.06,413.02L927.21,413.87L927.36,414.72L927.51,415.57L927.65,416.42L927.8,417.27L927.94,418.11L928.08,418.96L928.23,419.81L928.37,420.66L928.5,421.51L928.64,422.36L928.78,423.2L928.91,424.04L929.05,424.87L929.18,425.7L929.28,426.33L929.34,426.75L929.38,426.97L929.38,426.99L929.42,427.22L929.48,427.65L929.58,428.3L929.71,429.14L929.84,429.99L929.97,430.84L930.09,431.69L930.22,432.54L930.34,433.39L930.47,434.24L930.59,435.08L930.71,435.93L930.83,436.78L930.95,437.63L931.07,438.48L931.19,439.33L931.3,440.18L931.42,441.02L931.54,441.87L931.65,442.72L931.76,443.57L931.87,444.42L931.99,445.27L932.1,446.12L932.21,446.96L932.31,447.81L932.42,448.66L932.53,449.51L932.61,450.19L932.68,450.69L932.72,451.03L932.74,451.2L932.77,451.49L932.82,451.91L932.89,452.47L932.97,453.15L933.06,453.88L933.15,454.64L933.24,455.45L933.34,456.3L933.44,457.15L933.54,458L933.63,458.84L933.73,459.69L933.82,460.54L933.92,461.39L934.01,462.24L934.1,463.09L934.19,463.94L934.28,464.78L934.37,465.63L934.46,466.48L934.55,467.33L934.64,468.18L934.72,469.03L934.81,469.88L934.89,470.72L934.98,471.57L935.06,472.42L935.14,473.27L935.22,474.12L935.3,474.97L935.38,475.82L935.45,476.66L935.53,477.51L935.61,478.36L935.68,479.21L935.75,480.06L935.83,480.91L935.9,481.76L935.97,482.6L936.04,483.45L936.09,484.1L936.13,484.56L936.15,484.82L936.15,484.88L936.17,485.12L936.21,485.54L936.25,486.15L936.31,486.94L936.37,487.74L936.43,488.56L936.49,489.39L936.55,490.24L936.61,491.09L936.67,491.94L936.73,492.79L936.79,493.64L936.84,494.48L936.9,495.33L936.95,496.18L937,497.03L937.05,497.88L937.1,498.73L937.15,499.58L937.19,500.42L937.24,501.27L937.28,502.12L937.33,502.97L937.37,503.82L937.41,504.67L937.45,505.52L937.49,506.36L937.52,507.21L937.56,508.06L937.59,508.91L937.62,509.76L937.65,510.61L937.68,511.46L937.71,512.3L937.74,513.15L937.76,514L937.79,514.85L937.81,515.7L937.83,516.55L937.85,517.4L937.87,518.24L937.88,519.09L937.9,519.94L937.91,520.79L937.92,521.64L937.93,522.49L937.94,523.34L937.95,524.18L937.96,525.03L937.96,525.88L937.96,526.73L937.96,527.58L937.96,528.43L937.96,529.28L937.95,530.12L937.95,530.97L937.94,531.82L937.93,532.67L937.92,533.52L937.91,534.37L937.89,535.22L937.88,536.06L937.86,536.91L937.84,537.76L937.82,538.61L937.8,539.46L937.77,540.31L937.75,541.16L937.72,542L937.69,542.85L937.66,543.7L937.63,544.55L937.59,545.4L937.55,546.25L937.52,547.1L937.48,547.94L937.43,548.79L937.39,549.64L937.34,550.49L937.3,551.34L937.25,552.19L937.2,553.04L937.14,553.88L937.09,554.73L937.03,555.58L936.97,556.43L936.91,557.28L936.85,558.13L936.79,558.98L936.72,559.82L936.66,560.67L936.59,561.52L936.52,562.37L936.44,563.22L936.37,564.07L936.29,564.92L936.23,565.56L936.19,566L936.17,566.24L936.17,566.28L936.14,566.51L936.1,566.94L936.04,567.55L935.96,568.36L935.88,569.19L935.79,570.02L935.7,570.86L935.61,571.7L935.51,572.55L935.42,573.4L935.32,574.25L935.22,575.1L935.12,575.95L935.01,576.8L934.91,577.64L934.8,578.49L934.69,579.34L934.58,580.19L934.46,581.04L934.35,581.89L934.23,582.73L934.11,583.58L933.99,584.43L933.86,585.28L933.74,586.13L933.61,586.98L933.48,587.83L933.35,588.67L933.23,589.46L933.11,590.18L933.01,590.83L932.91,591.41L932.83,591.92L932.76,592.34L932.7,592.69L932.66,592.95L932.59,593.36L932.49,593.91L932.37,594.61L932.22,595.46L932.07,596.31L931.92,597.16L931.76,598.01L931.6,598.86L931.45,599.71L931.28,600.55L931.12,601.4L930.96,602.25L930.79,603.1L930.62,603.95L930.45,604.8L930.27,605.65L930.1,606.47L929.94,607.26L929.77,608.03L929.61,608.78L929.49,609.36L929.4,609.79L929.34,610.05L929.32,610.16L929.25,610.45L929.14,610.92L928.99,611.59L928.8,612.43L928.61,613.28L928.41,614.13L928.21,614.98L928.01,615.83L927.81,616.68L927.6,617.53L927.4,618.37L927.19,619.22L926.97,620.07L926.76,620.92L926.54,621.77L926.32,622.62L926.16,623.26L926.05,623.69L925.99,623.91L925.98,623.92L925.93,624.14L925.81,624.57L925.64,625.2L925.42,626.03L925.19,626.87L924.95,627.71L924.72,628.56L924.48,629.41L924.24,630.25L923.99,631.1L923.75,631.95L923.5,632.8L923.28,633.55L923.09,634.2L922.92,634.74L922.79,635.19L922.66,635.63L922.53,636.05L922.4,636.47L922.28,636.87L922.11,637.38L921.92,638L921.68,638.74L921.41,639.59L921.14,640.44L920.87,641.29L920.59,642.13L920.31,642.98L920.05,643.75L919.82,644.42L919.62,645.02L919.45,645.52L919.29,645.99L919.14,646.41L919.01,646.8L918.89,647.14L918.73,647.61L918.51,648.2L918.26,648.92L917.95,649.77L917.64,650.62L917.33,651.47L917.01,652.32L916.7,653.17L916.43,653.87L916.22,654.43L916.06,654.85L915.96,655.13L915.82,655.48L915.65,655.9L915.46,656.4L915.23,656.97L914.98,657.62L914.69,658.33L914.37,659.11L914.02,659.95L913.7,660.75L913.38,661.5L913.09,662.2L912.82,662.85L912.59,663.38L912.41,663.81L912.27,664.12L912.18,664.32L912.02,664.68L911.79,665.21L911.48,665.89L911.09,666.74L910.71,667.58L910.33,668.4L909.95,669.2L909.57,670L909.28,670.61L909.08,671.03L908.97,671.27L908.94,671.33L908.81,671.58L908.58,672.03L908.24,672.68L907.81,673.53L907.38,674.34L906.97,675.11L906.57,675.84L906.19,676.54L905.88,677.09L905.64,677.52L905.47,677.81L905.38,677.96L905.16,678.29L904.82,678.8L904.36,679.47L903.76,680.32L903.28,681.01L902.9,681.54L902.63,681.9L902.47,682.11L902.25,682.21L901.98,682.21L901.65,682.11" fill="#ffffff" fill-opacity="0.9" fill-rule="evenodd" stroke="#ffffff" stroke-width="2.50" stroke-linejoin="round" stroke-linecap="round"/>
<path d="M785.86,916.7L785.23,916.34L784.87,915.86L784.77,915.25L784.94,914.52L785.39,913.67L785.76,912.98L786.08,912.43L786.33,912.04L786.53,911.8L786.81,911.47L787.17,911.04L787.63,910.53L788.17,909.92L788.65,909.38L789.07,908.92L789.44,908.53L789.75,908.21L790.11,907.84L790.53,907.41L791.01,906.94L791.55,906.41L792.03,905.94L792.45,905.52L792.82,905.16L793.13,904.86L793.51,904.5L793.96,904.08L794.48,903.59L795.07,903.04L795.58,902.57L796,902.18L796.34,901.86L796.6,901.62L796.97,901.29L797.44,900.86L798.01,900.35L798.68,899.74L799.23,899.24L799.65,898.86L799.95,898.59L800.13,898.43L800.45,898.14L800.93,897.72L801.56,897.16L802.34,896.47L802.94,895.93L803.36,895.56L803.61,895.34L803.68,895.27L803.94,895.04L804.4,894.64L805.06,894.06L805.91,893.32L806.56,892.75L807,892.35L807.25,892.14L807.29,892.1L807.53,891.89L807.95,891.52L808.57,890.98L809.37,890.28L810.01,889.72L810.5,889.29L810.82,889.01L810.99,888.86L811.29,888.6L811.71,888.23L812.26,887.75L812.95,887.15L813.53,886.64L814.01,886.22L814.4,885.88L814.69,885.63L815.05,885.31L815.47,884.94L815.96,884.51L816.52,884.02L817.04,883.56L817.53,883.14L817.98,882.75L818.38,882.39L818.8,882.03L819.22,881.65L819.66,881.27L820.1,880.89L820.56,880.48L821.04,880.06L821.54,879.61L822.06,879.15L822.54,878.73L822.96,878.36L823.34,878.03L823.66,877.74L824.07,877.38L824.54,876.96L825.1,876.47L825.73,875.91L826.26,875.44L826.68,875.06L827,874.78L827.22,874.58L827.57,874.27L828.04,873.85L828.64,873.31L829.38,872.65L829.96,872.14L830.38,871.76L830.65,871.51L830.77,871.41L831.06,871.15L831.53,870.72L832.18,870.14L833,869.39L833.63,868.83L834.05,868.45L834.27,868.24L834.3,868.22L834.53,868.01L834.96,867.62L835.61,867.03L836.46,866.26L837.11,865.66L837.56,865.25L837.82,865.02L837.88,864.96L838.12,864.74L838.54,864.35L839.15,863.79L839.94,863.06L840.56,862.49L841.02,862.06L841.32,861.79L841.45,861.67L841.73,861.41L842.15,861.02L842.72,860.49L843.44,859.82L844.03,859.27L844.48,858.85L844.81,858.55L845,858.37L845.31,858.08L845.73,857.68L846.27,857.17L846.93,856.55L847.48,856.03L847.93,855.61L848.28,855.28L848.52,855.05L848.86,854.73L849.28,854.33L849.79,853.84L850.4,853.26L850.92,852.76L851.37,852.33L851.73,851.99L852.02,851.71L852.37,851.37L852.79,850.96L853.29,850.49L853.85,849.94L854.35,849.46L854.79,849.03L855.17,848.67L855.48,848.37L855.85,848.01L856.27,847.59L856.75,847.12L857.29,846.6L857.77,846.13L858.21,845.7L858.59,845.33L858.92,845L859.29,844.63L859.72,844.21L860.19,843.75L860.71,843.23L861.18,842.76L861.61,842.34L861.99,841.96L862.33,841.62L862.7,841.24L863.13,840.82L863.6,840.35L864.11,839.83L864.58,839.36L865,838.94L865.38,838.56L865.7,838.23L866.08,837.85L866.5,837.41L866.98,836.93L867.5,836.4L867.96,835.93L868.38,835.5L868.74,835.13L869.05,834.81L869.42,834.43L869.85,834L870.33,833.5L870.86,832.95L871.34,832.46L871.75,832.03L872.09,831.67L872.38,831.38L872.73,831.01L873.15,830.57L873.65,830.05L874.22,829.45L874.7,828.95L875.1,828.52L875.43,828.18L875.67,827.93L876,827.58L876.43,827.12L876.94,826.58L877.55,825.93L878.05,825.4L878.45,824.97L878.74,824.66L878.93,824.46L879.24,824.13L879.66,823.67L880.21,823.08L880.86,822.37L881.39,821.81L881.78,821.38L882.04,821.1L882.17,820.96L882.45,820.66L882.87,820.2L883.44,819.57L884.16,818.78L884.72,818.17L885.11,817.75L885.33,817.51L885.38,817.45L885.61,817.19L886.02,816.74L886.6,816.09L887.37,815.24L887.95,814.6L888.35,814.15L888.56,813.91L888.59,813.88L888.8,813.65L889.17,813.22L889.72,812.6L890.44,811.79L891.02,811.15L891.44,810.67L891.72,810.36L891.84,810.21L892.09,809.93L892.47,809.5L892.96,808.94L893.57,808.23L894.09,807.64L894.52,807.15L894.85,806.78L895.08,806.51L895.38,806.16L895.75,805.73L896.18,805.23L896.68,804.65L897.14,804.12L897.56,803.62L897.95,803.17L898.3,802.76L898.66,802.34L899.02,801.92L899.38,801.49L899.76,801.05L900.15,800.58L900.58,800.08L901.03,799.54L901.51,798.98L901.92,798.48L902.28,798.06L902.57,797.7L902.81,797.42L903.14,797.03L903.57,796.52L904.08,795.89L904.7,795.15L905.18,794.57L905.53,794.15L905.75,793.88L905.84,793.77L906.08,793.47L906.48,792.99L907.02,792.33L907.72,791.48L908.25,790.83L908.63,790.36L908.85,790.09L908.91,790.02L909.12,789.77L909.46,789.34L909.94,788.74L910.57,787.97L911.09,787.32L911.51,786.8L911.84,786.39L912.06,786.11L912.35,785.76L912.69,785.34L913.08,784.84L913.53,784.27L913.97,783.72L914.4,783.19L914.81,782.67L915.2,782.17L915.57,781.71L915.9,781.28L916.21,780.9L916.48,780.55L916.83,780.1L917.26,779.56L917.76,778.93L918.33,778.19L918.78,777.61L919.11,777.19L919.32,776.92L919.41,776.8L919.65,776.51L920.02,776.02L920.53,775.36L921.19,774.51L921.71,773.84L922.09,773.35L922.33,773.04L922.43,772.91L922.65,772.63L922.97,772.21L923.41,771.64L923.96,770.92L924.45,770.28L924.87,769.73L925.24,769.26L925.53,768.87L925.84,768.47L926.17,768.04L926.51,767.6L926.86,767.14L927.25,766.63L927.67,766.08L928.13,765.47L928.63,764.82L929.04,764.29L929.36,763.86L929.6,763.55L929.75,763.35L930.03,762.99L930.43,762.47L930.95,761.78L931.6,760.93L932.1,760.28L932.45,759.83L932.65,759.57L932.7,759.51L932.88,759.26L933.21,758.84L933.68,758.23L934.29,757.45L934.81,756.78L935.23,756.23L935.56,755.81L935.8,755.5L936.09,755.14L936.43,754.72L936.81,754.23L937.25,753.69L937.68,753.15L938.1,752.63L938.52,752.12L938.94,751.62L939.32,751.16L939.68,750.73L940.01,750.35L940.31,750L940.68,749.6L941.1,749.14L941.59,748.63L942.13,748.06L942.72,747.78L943.34,747.78L944,748.06L944.71,748.63L945.17,749.26L945.41,749.97L945.42,750.75L945.19,751.6L944.95,752.45L944.69,753.3L944.41,754.14L944.12,754.99L943.86,755.75L943.62,756.42L943.41,757L943.23,757.49L943.05,757.95L942.89,758.37L942.74,758.76L942.59,759.12L942.4,759.6L942.15,760.21L941.85,760.93L941.49,761.78L941.14,762.62L940.79,763.43L940.43,764.24L940.08,765.02L939.81,765.63L939.62,766.05L939.51,766.3L939.49,766.36L939.37,766.62L939.15,767.07L938.85,767.72L938.45,768.57L938.04,769.42L937.64,770.27L937.22,771.12L936.8,771.96L936.49,772.6L936.28,773.03L936.17,773.25L936.17,773.26L936.06,773.47L935.84,773.9L935.52,774.53L935.09,775.37L934.66,776.2L934.23,777.01L933.81,777.81L933.39,778.6L933.07,779.2L932.85,779.63L932.72,779.87L932.68,779.93L932.54,780.19L932.29,780.65L931.93,781.3L931.47,782.15L931.03,782.94L930.62,783.67L930.24,784.34L929.9,784.96L929.6,785.48L929.36,785.9L929.17,786.23L929.04,786.46L928.81,786.85L928.49,787.39L928.09,788.09L927.59,788.94L927.16,789.66L926.81,790.27L926.52,790.75L926.3,791.11L926.07,791.5L925.81,791.93L925.53,792.38L925.24,792.87L924.88,793.45L924.47,794.12L924,794.88L923.47,795.72L923.07,796.37L922.79,796.81L922.64,797.05L922.62,797.09L922.47,797.32L922.2,797.74L921.8,798.36L921.28,799.17L920.81,799.91L920.39,800.56L920.01,801.14L919.68,801.64L919.38,802.11L919.1,802.53L918.84,802.92L918.61,803.26L918.3,803.74L917.9,804.34L917.41,805.06L916.83,805.91L916.39,806.56L916.08,807.02L915.91,807.28L915.86,807.34L915.69,807.59L915.4,808.01L914.98,808.61L914.43,809.4L913.95,810.09L913.53,810.7L913.16,811.22L912.86,811.65L912.55,812.07L912.25,812.5L911.95,812.92L911.65,813.34L911.29,813.84L910.86,814.43L910.38,815.09L909.83,815.84L909.4,816.43L909.09,816.85L908.9,817.12L908.82,817.21L908.61,817.5L908.26,817.97L907.76,818.64L907.12,819.48L906.61,820.17L906.22,820.68L905.96,821.03L905.82,821.21L905.59,821.51L905.26,821.94L904.84,822.48L904.33,823.15L903.86,823.76L903.43,824.3L903.05,824.79L902.72,825.22L902.39,825.64L902.05,826.07L901.72,826.49L901.38,826.91L901,827.39L900.58,827.92L900.11,828.5L899.59,829.13L899.17,829.66L898.82,830.09L898.56,830.41L898.39,830.62L898.09,830.98L897.67,831.5L897.12,832.16L896.44,832.97L895.93,833.59L895.58,834.01L895.39,834.24L895.36,834.28L895.15,834.52L894.78,834.96L894.23,835.61L893.5,836.46L892.94,837.12L892.53,837.6L892.28,837.89L892.18,838.01L891.95,838.27L891.58,838.7L891.07,839.28L890.42,840.02L889.89,840.63L889.46,841.11L889.15,841.47L888.95,841.7L888.66,842.02L888.28,842.45L887.81,842.97L887.25,843.59L886.76,844.13L886.34,844.6L885.98,845L885.69,845.32L885.35,845.69L884.96,846.11L884.52,846.59L884.03,847.12L883.57,847.61L883.15,848.07L882.76,848.49L882.4,848.87L882.01,849.28L881.61,849.7L881.19,850.15L880.76,850.61L880.32,851.06L879.9,851.51L879.48,851.94L879.07,852.37L878.66,852.79L878.25,853.22L877.84,853.64L877.43,854.07L877.01,854.49L876.59,854.93L876.16,855.36L875.72,855.81L875.29,856.24L874.87,856.66L874.46,857.08L874.05,857.48L873.63,857.9L873.21,858.32L872.78,858.75L872.33,859.18L871.9,859.61L871.46,860.04L871.03,860.46L870.61,860.87L870.19,861.28L869.76,861.69L869.34,862.1L868.91,862.51L868.48,862.92L868.03,863.35L867.58,863.78L867.11,864.22L866.67,864.64L866.24,865.04L865.84,865.42L865.46,865.78L865.04,866.17L864.58,866.59L864.08,867.05L863.55,867.54L863.07,867.98L862.65,868.37L862.28,868.71L861.96,869L861.57,869.35L861.1,869.78L860.55,870.27L859.92,870.83L859.4,871.3L858.97,871.68L858.65,871.97L858.43,872.16L858.07,872.47L857.59,872.9L856.97,873.44L856.22,874.09L855.64,874.6L855.21,874.97L854.95,875.2L854.85,875.28L854.56,875.53L854.09,875.93L853.43,876.49L852.58,877.21L851.93,877.76L851.48,878.14L851.23,878.35L851.18,878.4L850.94,878.59L850.52,878.94L849.91,879.45L849.11,880.1L848.45,880.65L847.93,881.07L847.56,881.38L847.32,881.57L846.99,881.83L846.57,882.17L846.05,882.59L845.44,883.08L844.86,883.54L844.33,883.96L843.84,884.36L843.38,884.71L842.94,885.06L842.52,885.39L842.11,885.71L841.72,886.02L841.24,886.38L840.69,886.81L840.06,887.29L839.35,887.83L838.78,888.26L838.36,888.58L838.07,888.8L837.94,888.9L837.62,889.14L837.13,889.5L836.46,890L835.61,890.63L834.93,891.13L834.43,891.5L834.09,891.75L833.93,891.86L833.64,892.07L833.22,892.38L832.66,892.78L831.97,893.27L831.33,893.73L830.73,894.15L830.18,894.54L829.67,894.9L829.21,895.22L828.79,895.52L828.4,895.79L828.06,896.02L827.59,896.34L826.99,896.75L826.27,897.24L825.42,897.81L824.77,898.25L824.32,898.56L824.07,898.73L824.01,898.77L823.77,898.93L823.34,899.2L822.74,899.6L821.94,900.12L821.22,900.59L820.56,901.01L819.98,901.39L819.46,901.72L818.98,902.02L818.56,902.29L818.18,902.53L817.86,902.73L817.4,903.02L816.81,903.38L816.09,903.81L815.24,904.33L814.55,904.75L814.02,905.07L813.65,905.3L813.44,905.42L813.12,905.61L812.69,905.86L812.16,906.17L811.53,906.54L810.84,906.93L810.1,907.35L809.3,907.8L808.45,908.28L807.81,908.63L807.38,908.87L807.17,908.99L807.16,909L806.94,909.11L806.51,909.34L805.88,909.67L805.04,910.12L804.21,910.55L803.39,910.98L802.57,911.39L801.76,911.8L801.14,912.1L800.71,912.31L800.48,912.43L800.45,912.45L800.21,912.56L799.76,912.76L799.12,913.06L798.27,913.45L797.42,913.82L796.57,914.19L795.72,914.55L794.88,914.9L794.18,915.18L793.62,915.4L793.22,915.56L792.97,915.66L792.63,915.77L792.2,915.92L791.69,916.09L791.1,916.28L790.44,916.47L789.72,916.65L788.94,916.82L788.09,916.99L787.29,917.03L786.55,916.93L785.86,916.7 M449.67,518.82L448.94,518.76L448.35,518.71L447.93,518.68L447.66,518.65L447.55,518.64L447.26,518.61L446.78,518.56L446.12,518.49L445.27,518.4L444.42,518.3L443.57,518.2L442.72,518.09L441.87,517.98L441.02,517.87L440.18,517.75L439.33,517.63L438.48,517.5L437.63,517.37L436.78,517.24L435.93,517.1L435.08,516.96L434.24,516.81L433.39,516.66L432.54,516.51L431.69,516.35L430.84,516.19L429.99,516.02L429.14,515.86L428.3,515.68L427.62,515.54L427.1,515.44L426.76,515.37L426.58,515.33L426.28,515.26L425.86,515.17L425.31,515.05L424.64,514.9L423.92,514.73L423.16,514.56L422.36,514.37L421.51,514.16L420.66,513.95L419.81,513.74L418.96,513.52L418.11,513.3L417.27,513.07L416.42,512.84L415.57,512.61L414.72,512.36L414.06,512.18L413.58,512.04L413.29,511.96L413.19,511.93L412.92,511.85L412.5,511.71L411.91,511.53L411.17,511.3L410.4,511.05L409.6,510.8L408.78,510.52L407.93,510.23L407.08,509.94L406.23,509.64L405.39,509.33L404.54,509.01L403.89,508.77L403.45,508.61L403.21,508.52L403.18,508.51L402.95,508.41L402.53,508.23L401.91,507.98L401.09,507.64L400.27,507.28L399.44,506.91L398.6,506.53L397.75,506.13L397.06,505.8L396.53,505.55L396.16,505.36L395.95,505.26L395.63,505.08L395.2,504.85L394.67,504.55L394.04,504.18L393.39,503.79L392.73,503.36L392.06,502.91L391.38,502.42L390.83,501.85L390.42,501.18L390.13,500.42L389.98,499.58L390.08,498.93L390.42,498.5L391.01,498.26L391.84,498.24L392.52,498.22L393.06,498.22L393.45,498.24L393.69,498.26L394.03,498.31L394.45,498.36L394.97,498.44L395.57,498.53L396.24,498.64L396.96,498.77L397.75,498.92L398.6,499.09L399.45,499.27L400.29,499.46L401.14,499.65L401.99,499.84L402.84,500.05L403.69,500.25L404.54,500.46L405.39,500.67L406.19,500.88L406.95,501.07L407.67,501.26L408.34,501.43L408.89,501.58L409.31,501.69L409.61,501.77L409.79,501.81L410.13,501.91L410.64,502.04L411.33,502.22L412.17,502.45L413.02,502.68L413.87,502.9L414.72,503.13L415.57,503.36L416.42,503.58L417.27,503.81L418.11,504.03L418.96,504.26L419.72,504.46L420.38,504.63L420.94,504.78L421.41,504.91L421.86,505.02L422.28,505.13L422.69,505.24L423.06,505.34L423.56,505.46L424.17,505.62L424.9,505.81L425.75,506.03L426.6,506.24L427.45,506.46L428.3,506.67L429.14,506.88L429.99,507.09L430.84,507.3L431.69,507.51L432.54,507.71L433.3,507.9L433.97,508.06L434.54,508.2L435.03,508.31L435.49,508.42L435.91,508.52L436.31,508.61L436.67,508.7L437.15,508.81L437.75,508.95L438.48,509.12L439.33,509.31L440.18,509.5L441.02,509.7L441.87,509.89L442.72,510.08L443.57,510.27L444.42,510.46L445.27,510.65L446.12,510.84L446.96,511.03L447.81,511.21L448.66,511.4L449.51,511.59L450.15,511.73L450.58,511.83L450.79,511.88L450.8,511.88L451.01,511.93L451.44,512.02L452.07,512.17L452.91,512.36L453.76,512.56L454.6,512.75L455.45,512.96L456.3,513.16L457.15,513.37L458,513.59L458.84,513.81L459.69,514.05L460.5,514.27L461.25,514.5L461.96,514.72L462.62,514.94L463.14,515.32L463.52,515.86L463.75,516.55L463.83,517.4L463.71,518.06L463.38,518.53L462.84,518.81L462.09,518.9L461.32,518.98L460.52,519.04L459.69,519.09L458.84,519.12L458,519.13L457.15,519.14L456.3,519.14L455.45,519.12L454.6,519.1L453.75,519.07L452.9,519.03L452.06,518.98L451.23,518.93L450.44,518.88L449.67,518.82 M202.43,468.03L202.04,467.92L201.64,467.8L201.21,467.66L200.77,467.51L200.3,467.35L199.74,467.13L199.09,466.86L198.34,466.53L197.49,466.14L196.73,465.78L196.06,465.43L195.47,465.11L194.98,464.81L194.52,464.52L194.1,464.24L193.71,463.96L193.35,463.69L192.94,463.35L192.48,462.92L191.96,462.42L191.39,461.84L190.89,461.29L190.47,460.77L190.12,460.29L189.84,459.84L189.6,459.4L189.4,458.97L189.23,458.56L189.1,458.17L189.04,457.69L189.04,457.13L189.1,456.5L189.23,455.78L189.36,455.21L189.47,454.79L189.59,454.51L189.7,454.38L189.96,454.19L190.39,453.95L190.97,453.66L191.71,453.31L192.48,453.04L193.27,452.85L194.09,452.73L194.94,452.7L195.79,452.7L196.64,452.74L197.49,452.82L198.34,452.94L199.18,453.07L200.03,453.23L200.88,453.41L201.73,453.62L202.42,453.78L202.96,453.92L203.34,454.02L203.57,454.08L203.9,454.18L204.32,454.31L204.84,454.47L205.47,454.66L206.14,454.87L206.88,455.12L207.67,455.38L208.52,455.67L209.37,455.97L210.22,456.27L211.06,456.58L211.91,456.9L212.58,457.15L213.07,457.33L213.38,457.45L213.51,457.5L213.78,457.61L214.21,457.77L214.78,458L215.5,458.28L216.25,458.59L217.04,458.91L217.85,459.24L218.7,459.6L219.46,459.91L220.12,460.19L220.69,460.44L221.17,460.65L221.62,460.85L222.04,461.04L222.44,461.23L222.81,461.4L223.3,461.65L223.91,461.98L224.64,462.38L225.49,462.86L226.18,463.27L226.72,463.61L227.11,463.88L227.33,464.07L227.45,464.4L227.45,464.85L227.33,465.44L227.11,466.16L226.86,466.73L226.61,467.16L226.35,467.43L226.07,467.56L225.72,467.7L225.3,467.86L224.8,468.02L224.23,468.2L223.59,468.38L222.87,468.55L222.1,468.72L221.25,468.88L220.4,469.03L219.55,469.15L218.7,469.25L217.85,469.34L217,469.41L216.16,469.46L215.31,469.49L214.46,469.51L213.61,469.52L212.76,469.5L211.91,469.48L211.06,469.43L210.22,469.37L209.37,469.3L208.52,469.2L207.67,469.1L206.82,468.97L205.97,468.82L205.12,468.66L204.28,468.47L203.54,468.31L202.93,468.16L202.43,468.03 M980.12,457.98L980.01,457.82L979.8,457.48L979.51,456.98L979.12,456.3L978.64,455.45L978.22,454.68L977.85,453.98L977.54,453.36L977.28,452.82L977.05,452.34L976.86,451.91L976.69,451.55L976.55,451.24L976.36,450.8L976.11,450.22L975.81,449.51L975.45,448.66L975.09,447.81L974.73,446.96L974.39,446.12L974.04,445.27L973.78,444.63L973.6,444.2L973.51,443.97L973.51,443.96L973.42,443.74L973.25,443.31L973.01,442.68L972.68,441.85L972.35,441.01L972.02,440.17L971.69,439.33L971.36,438.48L971.07,437.72L970.81,437.04L970.58,436.46L970.39,435.96L970.21,435.5L970.05,435.07L969.9,434.69L969.77,434.34L969.59,433.86L969.36,433.26L969.09,432.54L968.77,431.69L968.45,430.84L968.12,429.99L967.8,429.14L967.48,428.3L967.22,427.61L967.03,427.09L966.89,426.73L966.82,426.54L966.7,426.23L966.54,425.81L966.34,425.27L966.09,424.61L965.83,423.91L965.55,423.16L965.25,422.36L964.93,421.51L964.62,420.68L964.31,419.88L964.02,419.11L963.74,418.36L963.52,417.77L963.36,417.34L963.26,417.08L963.22,416.99L963.12,416.7L962.94,416.23L962.69,415.57L962.37,414.72L962.05,413.87L961.73,413.02L961.41,412.17L961.09,411.33L960.81,410.57L960.56,409.92L960.35,409.37L960.18,408.91L960.01,408.47L959.85,408.05L959.7,407.64L959.55,407.25L959.36,406.74L959.12,406.12L958.84,405.39L958.52,404.54L958.2,403.69L957.88,402.84L957.56,401.99L957.24,401.14L956.98,400.47L956.79,399.97L956.67,399.65L956.61,399.5L956.5,399.21L956.34,398.79L956.13,398.23L955.86,397.53L955.58,396.79L955.29,396.01L954.98,395.2L954.65,394.35L954.35,393.55L954.05,392.78L953.78,392.06L953.52,391.38L953.31,390.83L953.15,390.41L953.04,390.11L952.97,389.94L952.84,389.6L952.65,389.09L952.39,388.41L952.06,387.57L951.74,386.72L951.42,385.87L951.09,385.02L950.77,384.17L950.49,383.45L950.26,382.84L950.08,382.36L949.94,382L949.79,381.61L949.63,381.19L949.46,380.73L949.27,380.24L949.05,379.66L948.8,378.99L948.51,378.23L948.19,377.38L947.86,376.53L947.54,375.69L947.22,374.84L946.9,373.99L946.66,373.34L946.49,372.89L946.39,372.64L946.37,372.59L946.28,372.35L946.13,371.93L945.9,371.32L945.6,370.52L945.29,369.71L944.99,368.88L944.68,368.05L944.36,367.2L944.07,366.4L943.79,365.66L943.54,364.96L943.3,364.32L943.11,363.79L942.95,363.37L942.84,363.05L942.76,362.84L942.63,362.48L942.44,361.95L942.2,361.26L941.89,360.41L941.59,359.56L941.29,358.71L941,357.87L940.7,357.02L940.44,356.25L940.2,355.56L940,354.96L939.82,354.43L939.66,353.96L939.52,353.53L939.4,353.16L939.29,352.83L939.15,352.38L938.96,351.79L938.74,351.08L938.48,350.23L938.22,349.38L937.97,348.53L937.73,347.68L937.5,346.83L937.27,345.99L937.06,345.14L936.86,344.29L936.68,343.44L936.52,342.7L936.4,342.07L936.31,341.56L936.25,341.15L936.2,340.74L936.16,340.31L936.12,339.88L936.09,339.44L936.08,339.04L936.08,338.68L936.09,338.36L936.12,338.09L936.35,337.83L936.79,337.58L937.43,337.34L938.28,337.11L939.07,337.07L939.8,337.2L940.48,337.52L941.09,338.02L941.61,338.46L942.04,338.82L942.36,339.13L942.6,339.36L942.91,339.69L943.3,340.12L943.76,340.64L944.3,341.25L944.78,341.8L945.2,342.31L945.57,342.75L945.88,343.14L946.2,343.55L946.52,343.97L946.86,344.41L947.2,344.87L947.59,345.4L948.01,345.99L948.48,346.65L948.98,347.37L949.38,347.95L949.67,348.37L949.86,348.65L949.95,348.77L950.14,349.07L950.46,349.56L950.88,350.23L951.42,351.08L951.89,351.81L952.27,352.41L952.57,352.9L952.8,353.27L953.04,353.67L953.29,354.09L953.56,354.54L953.84,355.02L954.17,355.6L954.55,356.26L954.98,357.02L955.46,357.87L955.84,358.54L956.12,359.05L956.31,359.38L956.39,359.54L956.55,359.84L956.78,360.26L957.07,360.82L957.44,361.5L957.82,362.23L958.21,363L958.63,363.81L959.06,364.65L959.39,365.32L959.63,365.8L959.78,366.1L959.84,366.21L959.97,366.48L960.17,366.9L960.45,367.48L960.81,368.22L961.17,368.98L961.54,369.77L961.92,370.59L962.31,371.44L962.63,372.14L962.88,372.68L963.05,373.07L963.16,373.3L963.3,373.63L963.49,374.05L963.72,374.57L963.99,375.19L964.28,375.86L964.59,376.59L964.93,377.38L965.28,378.23L965.61,379L965.9,379.7L966.15,380.33L966.38,380.88L966.57,381.36L966.74,381.79L966.89,382.15L967.01,382.45L967.18,382.89L967.4,383.46L967.68,384.17L968,385.02L968.33,385.87L968.65,386.72L968.96,387.57L969.28,388.41L969.53,389.11L969.73,389.66L969.88,390.06L969.97,390.31L970.09,390.65L970.24,391.08L970.42,391.59L970.63,392.18L970.86,392.84L971.1,393.57L971.37,394.35L971.66,395.2L971.94,396.05L972.22,396.9L972.5,397.75L972.77,398.6L973,399.3L973.17,399.85L973.3,400.25L973.38,400.5L973.49,400.84L973.62,401.26L973.77,401.77L973.95,402.37L974.15,403.03L974.37,403.75L974.6,404.54L974.85,405.39L975.1,406.23L975.34,407.08L975.58,407.93L975.82,408.78L976.04,409.58L976.25,410.35L976.44,411.07L976.62,411.74L976.77,412.29L976.88,412.72L976.96,413.02L977,413.19L977.09,413.53L977.22,414.04L977.39,414.72L977.6,415.57L977.81,416.42L978.02,417.27L978.22,418.11L978.43,418.96L978.62,419.81L978.82,420.66L979.01,421.51L979.2,422.36L979.38,423.2L979.57,424.05L979.75,424.9L979.92,425.75L980.06,426.42L980.16,426.91L980.22,427.21L980.25,427.34L980.3,427.62L980.38,428.04L980.49,428.61L980.63,429.34L980.77,430.09L980.92,430.87L981.06,431.69L981.21,432.54L981.36,433.39L981.5,434.24L981.64,435.08L981.77,435.93L981.9,436.78L982.03,437.63L982.15,438.48L982.27,439.33L982.39,440.18L982.5,441.02L982.6,441.87L982.7,442.72L982.8,443.57L982.88,444.42L982.97,445.27L983.05,446.12L983.12,446.96L983.18,447.81L983.24,448.66L983.29,449.51L983.33,450.36L983.35,451.21L983.37,452.06L983.38,452.9L983.36,453.75L983.32,454.6L983.25,455.45L983.16,456.3L982.92,456.98L982.54,457.48L982,457.82L981.31,457.98L980.77,458.07L980.37,458.07L980.12,457.98" fill="#ffffff" fill-opacity="0.9" fill-rule="evenodd" stroke="#ffffff" stroke-width="2.50" stroke-linejoin="round" stroke-linecap="round"/>
</svg>