<svg xmlns="http://www.w3.org/2000/svg" width="1000" height="1000" viewBox="0 0 1000 1000">
<rect width="1000" height="1000" fill="#c8102e"/>
<path d="M494.15,936.45L493.65,936.33L493.19,936.23L492.76,936.13L492.38,936.04L492.03,935.95L491.56,935.83L490.96,935.68L490.24,935.49L489.39,935.27L488.54,935.04L487.7,934.81L486.85,934.57L486,934.32L485.15,934.07L484.3,933.81L483.45,933.55L482.6,933.28L481.95,933.07L481.48,932.92L481.21,932.84L481.13,932.81L480.87,932.72L480.45,932.58L479.85,932.37L479.09,932.11L478.3,931.83L477.49,931.54L476.66,931.24L475.82,930.93L475.01,930.62L474.24,930.33L473.51,930.05L472.82,929.78L472.27,929.56L471.84,929.39L471.55,929.28L471.39,929.21L471.06,929.07L470.55,928.86L469.88,928.58L469.03,928.22L468.18,927.86L467.33,927.49L466.48,927.12L465.63,926.74L464.97,926.44L464.5,926.23L464.21,926.1L464.1,926.05L463.84,925.93L463.42,925.73L462.83,925.45L462.08,925.1L461.31,924.73L460.52,924.34L459.69,923.94L458.84,923.51L458.17,923.18L457.68,922.93L457.35,922.77L457.21,922.7L456.92,922.55L456.5,922.33L455.94,922.03L455.23,921.66L454.49,921.27L453.72,920.85L452.9,920.41L452.06,919.95L451.41,919.59L450.98,919.35L450.74,919.23L450.72,919.21L450.49,919.08L450.07,918.84L449.44,918.48L448.62,918.01L447.85,917.56L447.12,917.14L446.44,916.74L445.81,916.36L445.29,916.05L444.86,915.79L444.54,915.6L444.32,915.46L443.95,915.23L443.41,914.9L442.72,914.46L441.87,913.93L441.17,913.49L440.6,913.13L440.18,912.86L439.89,912.68L439.54,912.45L439.12,912.17L438.62,911.84L438.06,911.47L437.46,911.07L436.83,910.64L436.16,910.19L435.47,909.72L434.91,909.34L434.49,909.05L434.2,908.85L434.04,908.74L433.72,908.5L433.21,908.15L432.54,907.66L431.69,907.05L431.01,906.56L430.5,906.19L430.15,905.94L429.97,905.81L429.67,905.59L429.25,905.27L428.7,904.85L428.03,904.35L427.42,903.88L426.86,903.46L426.37,903.07L425.93,902.73L425.49,902.39L425.07,902.06L424.65,901.73L424.24,901.4L423.78,901.02L423.26,900.6L422.68,900.13L422.05,899.61L421.52,899.17L421.1,898.82L420.78,898.55L420.56,898.36L420.21,898.06L419.72,897.64L419.1,897.09L418.34,896.43L417.75,895.91L417.33,895.53L417.07,895.31L416.98,895.22L416.71,894.97L416.25,894.55L415.62,893.95L414.8,893.19L414.18,892.6L413.75,892.2L413.53,891.99L413.49,891.96L413.27,891.73L412.85,891.31L412.24,890.69L411.43,889.87L410.81,889.24L410.39,888.81L410.16,888.58L410.11,888.53L409.9,888.3L409.52,887.87L408.97,887.26L408.25,886.45L407.67,885.81L407.25,885.34L406.97,885.02L406.85,884.87L406.62,884.59L406.28,884.16L405.83,883.6L405.28,882.9L404.79,882.27L404.37,881.71L404.01,881.23L403.71,880.81L403.42,880.39L403.13,879.96L402.85,879.54L402.57,879.11L402.26,878.57L401.9,877.93L401.5,877.19L401.07,876.34L400.71,875.6L400.42,874.98L400.21,874.48L400.07,874.09L399.95,873.68L399.84,873.26L399.73,872.82L399.64,872.36L399.6,871.84L399.6,871.26L399.64,870.62L399.73,869.92L399.82,869.36L399.9,868.93L399.98,868.65L400.06,868.5L400.31,868.24L400.73,867.87L401.33,867.39L402.11,866.8L402.9,866.31L403.71,865.91L404.54,865.61L405.39,865.4L406.16,865.23L406.86,865.1L407.49,865.01L408.05,864.96L408.54,864.92L408.96,864.89L409.32,864.86L409.61,864.85L410.04,864.85L410.62,864.84L411.33,864.85L412.17,864.86L412.82,864.87L413.27,864.87L413.52,864.88L413.58,864.88L413.81,864.89L414.24,864.92L414.85,864.96L415.65,865.02L416.46,865.08L417.28,865.15L418.11,865.22L418.96,865.31L419.81,865.4L420.66,865.5L421.51,865.6L422.36,865.71L423.2,865.83L424.05,865.94L424.9,866.07L425.75,866.19L426.6,866.32L427.45,866.45L428.3,866.59L429.14,866.73L429.99,866.87L430.84,867.01L431.69,867.16L432.54,867.3L433.39,867.46L434.24,867.61L435.08,867.76L435.93,867.92L436.61,868.04L437.12,868.14L437.45,868.2L437.61,868.23L437.91,868.29L438.33,868.37L438.89,868.47L439.57,868.61L440.3,868.75L441.07,868.9L441.87,869.06L442.72,869.23L443.57,869.39L444.42,869.56L445.27,869.74L446.12,869.91L446.96,870.08L447.81,870.26L448.66,870.43L449.51,870.61L450.36,870.78L451.21,870.96L452.06,871.14L452.9,871.32L453.57,871.46L454.04,871.56L454.33,871.62L454.42,871.64L454.69,871.7L455.11,871.79L455.7,871.91L456.45,872.07L457.22,872.24L458.02,872.41L458.84,872.59L459.69,872.77L460.54,872.96L461.39,873.14L462.24,873.33L463.09,873.52L463.94,873.7L464.78,873.89L465.63,874.08L466.48,874.27L467.26,874.44L467.97,874.6L468.62,874.74L469.19,874.87L469.69,874.98L470.11,875.08L470.46,875.16L470.74,875.22L471.16,875.31L471.72,875.44L472.42,875.6L473.27,875.79L474.12,875.99L474.97,876.18L475.82,876.38L476.66,876.57L477.51,876.77L478.36,876.96L479.21,877.16L480.06,877.36L480.91,877.56L481.76,877.76L482.6,877.96L483.45,878.16L484.3,878.36L485.15,878.56L486,878.76L486.85,878.97L487.7,879.17L488.54,879.38L489.39,879.58L490.24,879.79L491.09,880L491.94,880.21L492.79,880.42L493.64,880.63L494.48,880.84L495.33,881.06L496.18,881.27L497.03,881.49L497.68,881.65L498.12,881.77L498.36,881.83L498.4,881.84L498.63,881.9L499.06,882.01L499.67,882.17L500.48,882.38L501.3,882.6L502.13,882.82L502.97,883.05L503.82,883.27L504.67,883.5L505.52,883.74L506.36,883.97L507.21,884.21L508,884.43L508.72,884.63L509.38,884.82L509.98,884.99L510.49,885.14L510.91,885.26L511.25,885.36L511.5,885.43L511.9,885.55L512.45,885.72L513.15,885.93L514,886.18L514.85,886.44L515.7,886.7L516.55,886.97L517.4,887.24L518.22,887.5L519.02,887.76L519.8,888.02L520.55,888.27L521.14,888.46L521.56,888.6L521.82,888.69L521.92,888.72L522.2,888.82L522.68,888.99L523.34,889.22L524.18,889.53L525.03,889.83L525.88,890.14L526.73,890.46L527.58,890.78L528.33,891.07L529,891.33L529.56,891.56L530.04,891.75L530.49,891.93L530.91,892.11L531.31,892.27L531.68,892.43L532.18,892.64L532.79,892.91L533.52,893.24L534.37,893.62L535.16,893.99L535.89,894.33L536.57,894.66L537.2,894.97L537.72,895.23L538.14,895.44L538.47,895.61L538.7,895.73L539.08,895.94L539.61,896.24L540.31,896.63L541.16,897.11L541.89,897.54L542.51,897.9L543.01,898.21L543.4,898.46L543.8,898.72L544.23,899L544.67,899.31L545.13,899.63L545.64,900L546.2,900.42L546.82,900.9L547.48,901.43L548.03,901.86L548.45,902.21L548.75,902.47L548.94,902.63L549.24,902.93L549.66,903.35L550.19,903.91L550.84,904.59L551.37,905.17L551.8,905.64L552.11,906L552.31,906.26L552.56,906.6L552.84,907.02L553.18,907.53L553.55,908.12L553.92,908.78L554.28,909.5L554.64,910.28L554.98,911.13L555.28,911.95L555.51,912.74L555.69,913.49L555.82,914.22L555.91,914.8L555.98,915.22L556.02,915.49L556.02,915.61L556.03,915.79L556.03,916.01L556.02,916.28L556.02,916.6L555.99,916.97L555.96,917.39L555.91,917.87L555.84,918.4L555.72,919.01L555.54,919.69L555.31,920.46L555.02,921.31L554.68,922.15L554.29,922.98L553.85,923.81L553.35,924.62L552.98,925.24L552.72,925.67L552.57,925.9L552.55,925.93L552.33,926.17L551.92,926.61L551.31,927.25L550.5,928.1L549.89,928.74L549.48,929.17L549.27,929.4L549.25,929.42L549.02,929.59L548.59,929.91L547.94,930.39L547.1,931.02L546.38,931.54L545.79,931.96L545.33,932.26L545,932.47L544.62,932.69L544.19,932.93L543.72,933.18L543.21,933.46L542.6,933.76L541.92,934.09L541.16,934.44L540.31,934.81L539.53,935.14L538.83,935.43L538.21,935.67L537.66,935.87L537.17,936.04L536.75,936.18L536.39,936.3L536.09,936.4L535.65,936.53L535.08,936.69L534.37,936.88L533.52,937.11L532.67,937.32L531.82,937.52L530.97,937.71L530.12,937.88L529.28,938.04L528.43,938.19L527.58,938.32L526.73,938.44L525.88,938.56L525.03,938.66L524.18,938.75L523.34,938.83L522.49,938.9L521.64,938.95L520.79,939L519.94,939.04L519.09,939.07L518.24,939.1L517.4,939.11L516.55,939.11L515.7,939.11L514.85,939.09L514,939.07L513.15,939.04L512.3,939L511.46,938.96L510.61,938.9L509.76,938.84L508.91,938.77L508.06,938.7L507.21,938.61L506.36,938.52L505.52,938.42L504.67,938.31L503.82,938.2L502.97,938.08L502.12,937.95L501.27,937.82L500.42,937.68L499.58,937.53L498.73,937.38L497.88,937.22L497.03,937.05L496.18,936.88L495.42,936.72L494.74,936.58L494.15,936.45 M484.73,878.46L484.73,878.46 M820.18,570.58L819.79,570.18L819.4,569.67L818.99,569.05L818.57,568.31L818.14,567.46L817.81,566.8L817.58,566.33L817.45,566.04L817.41,565.94L817.34,565.68L817.21,565.26L817.04,564.67L816.83,563.92L816.63,563.14L816.44,562.35L816.27,561.52L816.11,560.67L815.96,559.82L815.82,558.98L815.69,558.13L815.58,557.28L815.47,556.43L815.38,555.58L815.29,554.73L815.21,553.88L815.14,553.04L815.07,552.19L815.01,551.34L814.95,550.49L814.9,549.64L814.85,548.79L814.81,547.94L814.77,547.1L814.73,546.25L814.69,545.4L814.66,544.55L814.64,543.7L814.61,542.85L814.59,542L814.56,541.16L814.54,540.31L814.53,539.46L814.51,538.61L814.49,537.76L814.48,536.91L814.47,536.06L814.46,535.22L814.45,534.37L814.44,533.52L814.43,532.67L814.42,531.82L814.41,530.97L814.4,530.12L814.39,529.28L814.39,528.43L814.38,527.58L814.37,526.73L814.36,525.88L814.36,525.03L814.35,524.18L814.34,523.34L814.33,522.49L814.32,521.64L814.32,520.79L814.31,519.94L814.3,519.09L814.29,518.24L814.28,517.4L814.26,516.55L814.25,515.7L814.24,514.85L814.23,514L814.21,513.15L814.2,512.3L814.18,511.46L814.16,510.61L814.14,509.76L814.13,508.91L814.1,508.06L814.08,507.21L814.06,506.36L814.04,505.61L814.02,504.94L814.01,504.37L813.99,503.89L813.98,503.43L813.96,503.01L813.95,502.61L813.94,502.25L813.92,501.76L813.9,501.15L813.87,500.42L813.84,499.58L813.81,498.73L813.77,497.88L813.73,497.03L813.7,496.18L813.66,495.33L813.62,494.48L813.57,493.64L813.53,492.79L813.49,491.94L813.44,491.09L813.39,490.24L813.34,489.39L813.29,488.54L813.24,487.7L813.18,486.85L813.12,486L813.07,485.15L813.01,484.3L812.95,483.45L812.88,482.6L812.82,481.76L812.75,480.91L812.68,480.06L812.61,479.21L812.54,478.36L812.47,477.51L812.39,476.66L812.32,475.82L812.24,474.97L812.16,474.12L812.07,473.27L811.99,472.42L811.9,471.57L811.82,470.72L811.73,469.88L811.63,469.03L811.54,468.18L811.44,467.33L811.35,466.48L811.25,465.63L811.15,464.78L811.04,463.94L810.94,463.09L810.83,462.24L810.74,461.56L810.68,461.05L810.63,460.7L810.61,460.52L810.57,460.22L810.51,459.8L810.44,459.25L810.34,458.58L810.25,457.86L810.14,457.1L810.02,456.3L809.9,455.45L809.77,454.6L809.65,453.75L809.52,452.9L809.39,452.06L809.25,451.21L809.12,450.36L808.98,449.51L808.84,448.66L808.7,447.81L808.55,446.96L808.41,446.12L808.26,445.27L808.11,444.42L807.96,443.57L807.8,442.72L807.65,441.87L807.52,441.16L807.41,440.58L807.33,440.14L807.27,439.84L807.2,439.47L807.11,439.05L807.02,438.57L806.91,438.02L806.79,437.4L806.65,436.71L806.49,435.93L806.32,435.08L806.14,434.24L805.97,433.39L805.79,432.54L805.6,431.69L805.42,430.84L805.23,429.99L805.05,429.14L804.85,428.3L804.66,427.45L804.47,426.61L804.28,425.77L804.08,424.94L803.93,424.31L803.83,423.89L803.78,423.67L803.78,423.65L803.72,423.43L803.62,423L803.46,422.36L803.25,421.51L803.04,420.66L802.83,419.81L802.61,418.96L802.39,418.11L802.17,417.27L801.95,416.42L801.73,415.57L801.5,414.72L801.28,413.91L801.07,413.14L800.87,412.4L800.68,411.7L800.53,411.14L800.41,410.72L800.33,410.43L800.29,410.28L800.19,409.95L800.05,409.45L799.86,408.78L799.61,407.93L799.36,407.08L799.12,406.23L798.86,405.39L798.61,404.54L798.35,403.69L798.1,402.84L797.84,401.99L797.57,401.14L797.37,400.47L797.21,399.97L797.11,399.65L797.07,399.51L796.97,399.22L796.84,398.8L796.66,398.24L796.43,397.53L796.19,396.79L795.94,396.01L795.67,395.2L795.39,394.35L795.11,393.51L794.82,392.66L794.53,391.81L794.24,390.96L794.01,390.29L793.84,389.79L793.73,389.47L793.68,389.33L793.58,389.04L793.43,388.62L793.23,388.05L792.98,387.35L792.71,386.61L792.43,385.83L792.14,385.02L791.83,384.17L791.53,383.34L791.23,382.53L790.93,381.74L790.64,380.97L790.42,380.37L790.26,379.95L790.16,379.7L790.13,379.62L790.03,379.35L789.85,378.89L789.6,378.23L789.27,377.38L788.94,376.53L788.6,375.69L788.27,374.84L787.93,373.99L787.64,373.26L787.39,372.65L787.19,372.16L787.04,371.78L786.88,371.39L786.71,370.96L786.52,370.51L786.32,370.04L786.09,369.47L785.81,368.8L785.49,368.05L785.13,367.2L784.79,366.39L784.46,365.63L784.15,364.91L783.86,364.23L783.62,363.68L783.44,363.25L783.31,362.96L783.23,362.79L783.08,362.45L782.86,361.94L782.55,361.26L782.18,360.41L781.8,359.56L781.41,358.71L781.03,357.87L780.64,357.02L780.34,356.38L780.15,355.95L780.04,355.72L780.04,355.71L779.93,355.49L779.73,355.06L779.44,354.43L779.05,353.6L778.65,352.76L778.25,351.92L777.84,351.08L777.43,350.23L777.11,349.57L776.89,349.1L776.75,348.81L776.7,348.72L776.57,348.46L776.36,348.04L776.07,347.45L775.7,346.69L775.31,345.91L774.9,345.11L774.49,344.29L774.05,343.44L773.72,342.78L773.48,342.32L773.34,342.04L773.3,341.96L773.17,341.71L772.95,341.28L772.64,340.69L772.24,339.92L771.82,339.14L771.4,338.34L770.96,337.52L770.51,336.69L770.18,336.06L769.95,335.63L769.83,335.41L769.82,335.4L769.7,335.18L769.46,334.75L769.11,334.11L768.64,333.26L768.2,332.46L767.78,331.7L767.38,330.99L767.01,330.33L766.7,329.79L766.46,329.36L766.29,329.06L766.18,328.87L765.98,328.52L765.68,328L765.28,327.32L764.79,326.47L764.36,325.73L763.98,325.1L763.67,324.57L763.43,324.15L763.18,323.73L762.92,323.31L762.66,322.88L762.4,322.45L762.08,321.91L761.69,321.27L761.23,320.53L760.71,319.68L760.3,319.02L760,318.54L759.82,318.25L759.76,318.15L759.59,317.89L759.32,317.46L758.95,316.88L758.47,316.13L758.02,315.43L757.6,314.77L757.2,314.16L756.83,313.59L756.5,313.09L756.22,312.67L755.99,312.32L755.8,312.04L755.52,311.62L755.13,311.05L754.65,310.35L754.07,309.5L753.62,308.83L753.29,308.35L753.08,308.05L753,307.93L752.8,307.66L752.5,307.23L752.09,306.66L751.57,305.93L751.1,305.27L750.67,304.68L750.3,304.16L749.97,303.72L749.65,303.28L749.33,302.86L749.02,302.44L748.72,302.04L748.36,301.56L747.93,301.01L747.45,300.38L746.9,299.68L746.46,299.11L746.13,298.69L745.91,298.4L745.79,298.26L745.53,297.94L745.13,297.44L744.58,296.77L743.88,295.92L743.35,295.27L742.98,294.83L742.78,294.58L742.74,294.54L742.54,294.31L742.17,293.88L741.64,293.27L740.94,292.46L740.37,291.82L739.95,291.33L739.66,291.01L739.52,290.85L739.25,290.55L738.86,290.13L738.34,289.57L737.71,288.89L737.18,288.32L736.75,287.86L736.43,287.52L736.22,287.3L735.91,286.98L735.49,286.55L734.98,286.03L734.36,285.4L733.84,284.88L733.42,284.45L733.09,284.12L732.86,283.89L732.52,283.56L732.08,283.14L731.54,282.62L730.89,282L730.36,281.49L729.93,281.08L729.62,280.79L729.42,280.6L729.08,280.29L728.62,279.86L728.03,279.32L727.3,278.66L726.73,278.14L726.31,277.76L726.03,277.51L725.91,277.4L725.6,277.13L725.11,276.71L724.45,276.13L723.6,275.39L722.96,274.84L722.54,274.47L722.32,274.28L722.32,274.28L722.11,274.11L721.68,273.75L721.05,273.22L720.2,272.51L719.52,271.95L719.01,271.52L718.67,271.24L718.5,271.1L718.2,270.86L717.77,270.52L717.22,270.07L716.55,269.53L715.94,269.05L715.41,268.62L714.95,268.26L714.56,267.95L714.16,267.63L713.73,267.3L713.29,266.96L712.83,266.6L712.32,266.21L711.77,265.79L711.17,265.33L710.52,264.84L709.99,264.43L709.56,264.11L709.25,263.87L709.05,263.72L708.69,263.45L708.16,263.07L707.47,262.56L706.63,261.93L705.96,261.45L705.49,261.1L705.2,260.89L705.1,260.81L704.84,260.63L704.41,260.32L703.83,259.9L703.08,259.36L702.41,258.88L701.81,258.46L701.29,258.09L700.85,257.78L700.42,257.47L699.99,257.18L699.58,256.89L699.17,256.6L698.66,256.25L698.05,255.83L697.32,255.33L696.5,254.77L695.87,254.34L695.45,254.05L695.22,253.89L695.2,253.88L694.97,253.73L694.54,253.43L693.9,253L693.05,252.44L692.31,251.94L691.69,251.53L691.17,251.19L690.77,250.92L690.35,250.65L689.93,250.37L689.49,250.09L689.05,249.8L688.5,249.44L687.86,249.03L687.11,248.54L686.26,248L685.62,247.59L685.18,247.31L684.95,247.16L684.93,247.15L684.71,247.01L684.28,246.74L683.66,246.35L682.83,245.83L682.08,245.36L681.4,244.93L680.79,244.56L680.26,244.23L679.78,243.93L679.36,243.67L678.99,243.44L678.67,243.25L678.22,242.98L677.64,242.62L676.93,242.19L676.08,241.68L675.38,241.26L674.84,240.93L674.45,240.69L674.21,240.55L673.88,240.36L673.45,240.1L672.94,239.8L672.33,239.44L671.66,239.04L670.93,238.62L670.15,238.16L669.32,237.68L668.69,237.31L668.26,237.06L668.04,236.94L668.03,236.93L667.81,236.8L667.38,236.56L666.74,236.19L665.89,235.71L665.1,235.25L664.36,234.83L663.67,234.44L663.04,234.09L662.51,233.79L662.08,233.55L661.76,233.37L661.55,233.25L661.18,233.04L660.64,232.75L659.95,232.37L659.11,231.9L658.35,231.48L657.69,231.12L657.12,230.81L656.64,230.55L656.19,230.3L655.76,230.07L655.36,229.86L654.99,229.66L654.5,229.39L653.89,229.07L653.17,228.68L652.32,228.22L651.59,227.84L650.98,227.51L650.49,227.25L650.12,227.06L649.72,226.85L649.29,226.62L648.84,226.39L648.37,226.14L647.8,225.84L647.13,225.5L646.38,225.11L645.53,224.67L644.81,224.3L644.23,224L643.78,223.77L643.47,223.61L643.1,223.42L642.67,223.21L642.19,222.96L641.66,222.69L641.05,222.39L640.36,222.04L639.59,221.65L638.74,221.23L638.03,220.87L637.45,220.58L637,220.36L636.69,220.21L636.32,220.02L635.9,219.81L635.41,219.58L634.88,219.32L634.26,219.01L633.57,218.68L632.8,218.3L631.95,217.89L631.22,217.54L630.62,217.25L630.14,217.01L629.78,216.84L629.38,216.65L628.96,216.45L628.5,216.23L628.02,216L627.44,215.73L626.77,215.41L626.01,215.05L625.16,214.65L624.41,214.3L623.75,213.99L623.19,213.73L622.73,213.51L622.28,213.3L621.86,213.11L621.45,212.92L621.07,212.74L620.57,212.51L619.96,212.23L619.22,211.89L618.37,211.5L617.58,211.14L616.85,210.81L616.17,210.5L615.54,210.22L615.02,209.98L614.59,209.79L614.27,209.64L614.04,209.54L613.66,209.37L613.13,209.13L612.43,208.82L611.59,208.44L610.74,208.07L609.9,207.69L609.06,207.32L608.22,206.95L607.59,206.67L607.16,206.49L606.94,206.39L606.93,206.39L606.71,206.29L606.29,206.1L605.65,205.83L604.8,205.46L603.95,205.09L603.1,204.72L602.25,204.36L601.4,203.99L600.7,203.69L600.15,203.45L599.74,203.28L599.48,203.17L599.14,203.02L598.72,202.84L598.21,202.63L597.62,202.38L596.97,202.1L596.25,201.8L595.46,201.47L594.61,201.11L593.83,200.78L593.12,200.48L592.47,200.21L591.89,199.97L591.39,199.76L590.96,199.59L590.62,199.44L590.35,199.33L589.94,199.16L589.38,198.93L588.67,198.64L587.83,198.29L586.98,197.94L586.13,197.6L585.28,197.25L584.43,196.9L583.77,196.63L583.29,196.44L583,196.32L582.9,196.28L582.63,196.17L582.21,196L581.63,195.76L580.88,195.46L580.11,195.15L579.31,194.83L578.49,194.5L577.64,194.16L576.88,193.85L576.19,193.58L575.59,193.34L575.07,193.13L574.6,192.94L574.17,192.77L573.8,192.62L573.47,192.49L573.01,192.31L572.42,192.08L571.7,191.79L570.86,191.46L570.01,191.12L569.16,190.79L568.31,190.46L567.46,190.12L566.79,189.86L566.31,189.67L566,189.55L565.88,189.5L565.6,189.39L565.18,189.23L564.6,189L563.88,188.72L563.12,188.42L562.34,188.12L561.52,187.8L560.67,187.47L559.89,187.16L559.16,186.88L558.5,186.62L557.89,186.38L557.38,186.18L556.96,186.02L556.62,185.89L556.37,185.79L555.98,185.64L555.43,185.43L554.73,185.15L553.88,184.83L553.04,184.5L552.19,184.17L551.34,183.84L550.49,183.51L549.79,183.24L549.25,183.02L548.85,182.87L548.61,182.78L548.28,182.65L547.86,182.48L547.34,182.28L546.73,182.05L546.07,181.79L545.34,181.5L544.55,181.2L543.7,180.87L542.89,180.55L542.1,180.24L541.35,179.95L540.63,179.67L540.06,179.44L539.64,179.27L539.36,179.17L539.23,179.11L538.92,178.99L538.43,178.8L537.76,178.54L536.91,178.2L536.06,177.87L535.22,177.53L534.37,177.19L533.52,176.85L532.8,176.57L532.22,176.34L531.78,176.16L531.47,176.04L531.1,175.89L530.68,175.72L530.2,175.52L529.66,175.31L529.04,175.06L528.35,174.77L527.58,174.46L526.73,174.11L525.92,173.78L525.16,173.47L524.43,173.17L523.74,172.88L523.19,172.65L522.77,172.47L522.47,172.35L522.31,172.28L521.97,172.14L521.47,171.93L520.79,171.64L519.94,171.28L519.09,170.91L518.24,170.55L517.4,170.18L516.55,169.81L515.88,169.52L515.4,169.31L515.11,169.18L515,169.13L514.73,169.01L514.31,168.82L513.72,168.56L512.99,168.23L512.22,167.88L511.43,167.52L510.61,167.14L509.76,166.74L509.06,166.41L508.51,166.15L508.11,165.97L507.86,165.85L507.52,165.68L507.1,165.48L506.59,165.23L505.99,164.93L505.33,164.6L504.6,164.24L503.82,163.84L502.97,163.4L502.28,163.05L501.74,162.77L501.36,162.57L501.14,162.45L500.82,162.27L500.39,162.04L499.87,161.75L499.24,161.41L498.56,161.02L497.82,160.6L497.03,160.14L496.18,159.63L495.54,159.26L495.12,159L494.91,158.88L494.91,158.88L494.69,158.74L494.27,158.46L493.63,158.05L492.79,157.49L492.05,157L491.42,156.58L490.9,156.22L490.48,155.93L490.07,155.62L489.64,155.3L489.21,154.98L488.77,154.64L488.3,154.26L487.78,153.84L487.23,153.37L486.64,152.86L486.13,152.41L485.7,152.03L485.36,151.72L485.11,151.47L484.78,151.14L484.39,150.71L483.92,150.2L483.38,149.6L482.9,149.04L482.47,148.52L482.11,148.05L481.8,147.62L481.5,147.19L481.23,146.77L480.97,146.35L480.73,145.93L480.47,145.4L480.2,144.77L479.91,144.03L479.6,143.18L479.37,142.33L479.19,141.48L479.08,140.63L479.04,139.78L479.07,138.94L479.16,138.09L479.33,137.24L479.57,136.39L479.84,135.61L480.14,134.9L480.46,134.26L480.81,133.69L481.13,133.19L481.42,132.76L481.68,132.41L481.91,132.14L482.24,131.79L482.66,131.37L483.18,130.89L483.8,130.33L484.37,129.84L484.89,129.42L485.36,129.06L485.79,128.77L486.21,128.49L486.64,128.22L487.06,127.96L487.48,127.72L488.01,127.44L488.65,127.12L489.39,126.77L490.24,126.38L491.03,126.04L491.76,125.73L492.43,125.48L493.04,125.26L493.55,125.08L493.98,124.93L494.31,124.82L494.55,124.75L494.94,124.64L495.49,124.5L496.18,124.31L497.03,124.1L497.88,123.89L498.73,123.71L499.58,123.53L500.42,123.38L501.27,123.23L502.12,123.1L502.97,122.97L503.82,122.87L504.67,122.77L505.52,122.68L506.36,122.6L507.21,122.54L508.06,122.48L508.91,122.43L509.76,122.39L510.61,122.36L511.46,122.34L512.3,122.33L513.15,122.33L514,122.33L514.85,122.35L515.7,122.37L516.55,122.39L517.4,122.43L518.24,122.47L519.09,122.52L519.94,122.58L520.79,122.65L521.64,122.72L522.49,122.8L523.34,122.88L524.18,122.97L525.03,123.07L525.88,123.18L526.73,123.29L527.58,123.41L528.43,123.53L529.28,123.66L530.12,123.79L530.97,123.93L531.82,124.08L532.67,124.23L533.52,124.39L534.37,124.55L535.04,124.69L535.55,124.78L535.88,124.85L536.05,124.88L536.34,124.95L536.76,125.04L537.32,125.16L538,125.31L538.73,125.48L539.5,125.66L540.31,125.85L541.16,126.06L542,126.27L542.85,126.48L543.7,126.7L544.55,126.93L545.4,127.16L546.25,127.4L547.1,127.64L547.94,127.88L548.6,128.07L549.05,128.21L549.31,128.28L549.38,128.3L549.62,128.38L550.04,128.51L550.65,128.7L551.43,128.94L552.23,129.2L553.05,129.46L553.88,129.73L554.73,130.01L555.58,130.3L556.43,130.59L557.28,130.89L558.13,131.19L558.78,131.42L559.23,131.58L559.49,131.67L559.55,131.69L559.79,131.78L560.21,131.94L560.82,132.17L561.61,132.46L562.41,132.77L563.23,133.08L564.07,133.41L564.92,133.74L565.69,134.05L566.38,134.32L566.99,134.57L567.53,134.79L568.01,134.99L568.43,135.16L568.8,135.31L569.11,135.45L569.56,135.63L570.14,135.88L570.86,136.19L571.7,136.56L572.54,136.92L573.35,137.28L574.15,137.63L574.93,137.98L575.53,138.26L575.96,138.45L576.2,138.56L576.27,138.59L576.53,138.71L576.99,138.93L577.64,139.23L578.49,139.63L579.34,140.03L580.19,140.43L581.04,140.84L581.89,141.26L582.53,141.57L582.96,141.78L583.18,141.89L583.2,141.89L583.42,142.01L583.84,142.22L584.47,142.54L585.3,142.96L586.13,143.38L586.96,143.8L587.79,144.23L588.61,144.66L589.23,144.98L589.66,145.2L589.88,145.32L589.91,145.33L590.14,145.46L590.58,145.69L591.22,146.04L592.07,146.5L592.88,146.93L593.64,147.35L594.37,147.75L595.05,148.13L595.6,148.43L596.03,148.67L596.32,148.83L596.49,148.93L596.82,149.12L597.33,149.41L598.01,149.8L598.86,150.28L599.61,150.71L600.26,151.09L600.82,151.42L601.28,151.68L601.72,151.94L602.15,152.19L602.55,152.43L602.94,152.66L603.45,152.97L604.06,153.34L604.8,153.78L605.65,154.29L606.33,154.71L606.83,155.01L607.17,155.22L607.34,155.33L607.64,155.51L608.07,155.77L608.62,156.12L609.3,156.54L609.97,156.96L610.65,157.39L611.32,157.81L611.99,158.24L612.53,158.59L612.96,158.86L613.26,159.05L613.44,159.17L613.78,159.39L614.3,159.73L614.98,160.17L615.83,160.73L616.53,161.19L617.09,161.56L617.5,161.83L617.77,162.01L618.12,162.24L618.54,162.52L619.04,162.86L619.62,163.25L620.23,163.66L620.85,164.08L621.5,164.52L622.17,164.98L622.71,165.35L623.14,165.65L623.44,165.85L623.62,165.98L623.97,166.22L624.48,166.58L625.16,167.06L626.01,167.66L626.69,168.13L627.21,168.5L627.55,168.74L627.73,168.87L628.03,169.08L628.46,169.39L629.01,169.78L629.67,170.26L630.3,170.72L630.89,171.14L631.43,171.54L631.93,171.9L632.4,172.24L632.82,172.56L633.21,172.84L633.55,173.1L634.01,173.44L634.58,173.86L635.26,174.37L636.05,174.96L636.65,175.42L637.08,175.73L637.32,175.92L637.38,175.96L637.64,176.16L638.09,176.5L638.74,177L639.59,177.65L640.27,178.18L640.8,178.58L641.16,178.86L641.36,179.01L641.67,179.25L642.09,179.59L642.63,180.01L643.28,180.52L643.87,180.98L644.41,181.41L644.9,181.79L645.32,182.13L645.75,182.47L646.17,182.81L646.59,183.15L647.02,183.48L647.49,183.87L648.02,184.29L648.59,184.76L649.22,185.27L649.75,185.69L650.17,186.04L650.49,186.3L650.71,186.48L651.08,186.79L651.59,187.21L652.25,187.76L653.05,188.42L653.67,188.93L654.09,189.29L654.33,189.48L654.37,189.52L654.62,189.73L655.06,190.11L655.71,190.65L656.56,191.37L657.22,191.93L657.7,192.34L657.99,192.59L658.1,192.68L658.37,192.91L658.79,193.28L659.38,193.78L660.12,194.42L660.73,194.95L661.22,195.38L661.58,195.69L661.82,195.9L662.15,196.19L662.58,196.57L663.1,197.02L663.71,197.56L664.25,198.04L664.73,198.47L665.14,198.83L665.49,199.14L665.88,199.49L666.3,199.87L666.76,200.28L667.26,200.73L667.75,201.17L668.22,201.6L668.67,202.01L669.11,202.41L669.54,202.8L669.97,203.19L670.38,203.57L670.79,203.95L671.23,204.35L671.69,204.77L672.17,205.22L672.68,205.69L673.15,206.12L673.57,206.52L673.95,206.87L674.29,207.19L674.69,207.56L675.14,207.99L675.65,208.46L676.21,209L676.7,209.46L677.13,209.86L677.48,210.2L677.77,210.47L678.13,210.82L678.58,211.25L679.1,211.75L679.69,212.32L680.2,212.81L680.63,213.22L680.97,213.55L681.22,213.79L681.56,214.13L681.99,214.55L682.52,215.07L683.14,215.67L683.66,216.18L684.08,216.6L684.41,216.92L684.64,217.15L684.97,217.48L685.4,217.9L685.92,218.42L686.54,219.04L687.06,219.57L687.49,219.99L687.81,220.32L688.04,220.54L688.36,220.87L688.78,221.3L689.3,221.82L689.91,222.44L690.43,222.96L690.85,223.4L691.18,223.73L691.42,223.98L691.74,224.31L692.16,224.73L692.65,225.25L693.24,225.85L693.75,226.38L694.17,226.82L694.51,227.17L694.78,227.45L695.11,227.8L695.51,228.22L695.99,228.72L696.54,229.29L697.02,229.81L697.45,230.25L697.81,230.64L698.11,230.95L698.46,231.33L698.86,231.75L699.31,232.23L699.8,232.76L700.26,233.25L700.69,233.7L701.08,234.12L701.43,234.5L701.8,234.9L702.19,235.33L702.61,235.77L703.04,236.24L703.47,236.71L703.89,237.17L704.31,237.63L704.73,238.08L705.13,238.52L705.52,238.95L705.89,239.36L706.24,239.75L706.63,240.18L707.06,240.65L707.52,241.16L708.01,241.71L708.45,242.19L708.83,242.62L709.15,242.98L709.42,243.28L709.77,243.67L710.19,244.15L710.69,244.71L711.27,245.36L711.75,245.9L712.13,246.33L712.4,246.64L712.57,246.83L712.87,247.17L713.3,247.66L713.85,248.28L714.52,249.06L715.05,249.65L715.42,250.08L715.64,250.33L715.7,250.41L715.94,250.68L716.34,251.14L716.91,251.8L717.64,252.64L718.2,253.29L718.59,253.75L718.81,254L718.86,254.05L719.06,254.29L719.43,254.72L719.95,255.33L720.63,256.12L721.18,256.76L721.61,257.26L721.9,257.61L722.07,257.81L722.34,258.12L722.7,258.54L723.15,259.08L723.7,259.73L724.19,260.3L724.62,260.8L724.98,261.23L725.27,261.58L725.6,261.97L725.96,262.39L726.35,262.85L726.77,263.35L727.19,263.85L727.62,264.36L728.04,264.86L728.47,265.37L728.86,265.84L729.22,266.26L729.54,266.64L729.83,266.98L730.18,267.41L730.61,267.91L731.1,268.5L731.66,269.16L732.12,269.71L732.48,270.13L732.73,270.44L732.89,270.62L733.17,270.96L733.6,271.46L734.16,272.12L734.86,272.95L735.38,273.57L735.74,274L735.93,274.22L735.95,274.25L736.15,274.48L736.52,274.91L737.06,275.55L737.79,276.4L738.35,277.07L738.77,277.56L739.03,277.86L739.14,277.99L739.37,278.26L739.74,278.69L740.23,279.26L740.85,279.98L741.38,280.59L741.8,281.08L742.13,281.46L742.35,281.72L742.65,282.06L743.02,282.48L743.46,282.99L743.98,283.58L744.45,284.12L744.87,284.6L745.25,285.03L745.58,285.41L745.94,285.81L746.31,286.23L746.71,286.68L747.13,287.15L747.55,287.63L747.98,288.1L748.4,288.58L748.83,289.06L749.24,289.51L749.62,289.93L749.98,290.33L750.31,290.7L750.69,291.12L751.11,291.59L751.58,292.1L752.1,292.67L752.55,293.17L752.94,293.59L753.26,293.94L753.51,294.23L753.85,294.6L754.28,295.06L754.79,295.62L755.38,296.26L755.87,296.8L756.26,297.22L756.54,297.54L756.73,297.74L757.03,298.07L757.46,298.53L758,299.13L758.67,299.85L759.19,300.42L759.58,300.85L759.83,301.12L759.95,301.25L760.22,301.54L760.64,302.01L761.22,302.64L761.95,303.44L762.52,304.05L762.9,304.48L763.12,304.71L763.16,304.76L763.39,305.01L763.79,305.45L764.38,306.1L765.15,306.95L765.74,307.6L766.14,308.04L766.36,308.28L766.4,308.32L766.61,308.55L766.99,308.98L767.54,309.59L768.27,310.4L768.84,311.05L769.27,311.52L769.54,311.82L769.66,311.96L769.91,312.24L770.29,312.66L770.79,313.23L771.42,313.94L771.95,314.54L772.37,315.02L772.69,315.39L772.91,315.63L773.21,315.97L773.57,316.39L774.02,316.91L774.54,317.51L775.02,318.05L775.44,318.54L775.82,318.98L776.14,319.36L776.49,319.76L776.85,320.18L777.23,320.63L777.63,321.1L778.04,321.58L778.47,322.08L778.9,322.6L779.35,323.13L779.76,323.61L780.11,324.04L780.42,324.41L780.68,324.72L781.03,325.14L781.45,325.65L781.96,326.26L782.54,326.97L783.01,327.54L783.36,327.96L783.59,328.25L783.7,328.38L783.96,328.7L784.35,329.19L784.89,329.86L785.57,330.71L786.1,331.36L786.47,331.82L786.68,332.09L786.73,332.15L786.93,332.4L787.26,332.83L787.73,333.43L788.35,334.21L788.86,334.87L789.29,335.41L789.62,335.84L789.85,336.14L790.14,336.51L790.46,336.93L790.83,337.41L791.25,337.96L791.67,338.51L792.09,339.07L792.52,339.64L792.95,340.21L793.33,340.71L793.65,341.14L793.91,341.49L794.11,341.76L794.41,342.18L794.83,342.74L795.34,343.44L795.96,344.29L796.43,344.93L796.76,345.38L796.93,345.62L796.96,345.65L797.12,345.88L797.42,346.31L797.86,346.93L798.44,347.74L798.94,348.44L799.37,349.04L799.71,349.54L799.99,349.92L800.27,350.33L800.56,350.75L800.87,351.2L801.19,351.66L801.56,352.2L801.98,352.82L802.46,353.53L802.99,354.31L803.4,354.91L803.69,355.34L803.85,355.58L803.89,355.65L804.07,355.91L804.37,356.36L804.8,357.02L805.35,357.87L805.83,358.6L806.24,359.21L806.56,359.71L806.81,360.1L807.07,360.5L807.34,360.93L807.62,361.37L807.92,361.84L808.27,362.4L808.69,363.05L809.16,363.81L809.68,364.65L810.09,365.3L810.36,365.75L810.51,365.99L810.54,366.03L810.68,366.26L810.93,366.68L811.31,367.3L811.8,368.11L812.25,368.87L812.68,369.58L813.07,370.24L813.43,370.85L813.73,371.36L813.98,371.79L814.18,372.12L814.31,372.36L814.54,372.75L814.85,373.29L815.25,373.99L815.73,374.84L816.15,375.57L816.51,376.2L816.8,376.72L817.02,377.12L817.25,377.54L817.49,377.96L817.73,378.4L817.97,378.84L818.27,379.38L818.62,380.03L819.02,380.78L819.47,381.63L819.85,382.33L820.15,382.9L820.38,383.33L820.53,383.61L820.72,383.97L820.94,384.39L821.19,384.89L821.48,385.45L821.81,386.08L822.17,386.79L822.56,387.57L822.99,388.41L823.34,389.12L823.62,389.67L823.82,390.09L823.95,390.35L824.12,390.7L824.33,391.12L824.57,391.63L824.86,392.21L825.17,392.86L825.51,393.57L825.88,394.35L826.27,395.2L826.62,395.93L826.9,396.54L827.13,397.03L827.29,397.39L827.47,397.79L827.67,398.21L827.87,398.66L828.09,399.15L828.34,399.72L828.64,400.39L828.97,401.14L829.34,401.99L829.69,402.78L830,403.51L830.29,404.18L830.55,404.8L830.77,405.32L830.95,405.74L831.09,406.07L831.18,406.3L831.34,406.69L831.57,407.24L831.85,407.93L832.19,408.78L832.53,409.63L832.87,410.48L833.21,411.33L833.54,412.17L833.8,412.86L834.01,413.38L834.15,413.74L834.22,413.94L834.34,414.25L834.5,414.67L834.7,415.21L834.94,415.86L835.2,416.56L835.47,417.31L835.76,418.11L836.07,418.96L836.37,419.81L836.66,420.66L836.96,421.51L837.25,422.36L837.47,423L837.62,423.44L837.7,423.68L837.71,423.71L837.79,423.93L837.93,424.36L838.13,424.98L838.4,425.8L838.66,426.62L838.93,427.46L839.2,428.3L839.46,429.14L839.72,429.99L839.98,430.84L840.24,431.69L840.49,432.54L840.69,433.23L840.85,433.77L840.96,434.15L841.03,434.37L841.12,434.7L841.24,435.12L841.38,435.64L841.56,436.27L841.75,436.95L841.95,437.69L842.16,438.48L842.38,439.33L842.61,440.18L842.83,441.02L843.04,441.87L843.25,442.72L843.46,443.57L843.67,444.42L843.87,445.27L844.07,446.12L844.23,446.79L844.35,447.3L844.43,447.63L844.46,447.79L844.53,448.09L844.62,448.51L844.74,449.07L844.89,449.75L845.05,450.48L845.21,451.25L845.38,452.06L845.55,452.9L845.72,453.75L845.89,454.6L846.05,455.45L846.21,456.3L846.37,457.15L846.52,458L846.67,458.84L846.82,459.69L846.96,460.54L847.1,461.39L847.24,462.24L847.37,463.09L847.49,463.87L847.6,464.59L847.7,465.24L847.78,465.83L847.86,466.33L847.92,466.76L847.96,467.1L848,467.36L848.05,467.77L848.13,468.33L848.21,469.03L848.32,469.88L848.42,470.72L848.53,471.57L848.62,472.42L848.72,473.27L848.81,474.12L848.89,474.97L848.98,475.82L849.06,476.66L849.13,477.51L849.21,478.36L849.28,479.21L849.34,480.06L849.4,480.91L849.46,481.76L849.52,482.6L849.57,483.45L849.62,484.3L849.67,485.15L849.71,486L849.75,486.85L849.78,487.7L849.81,488.54L849.84,489.39L849.86,490.24L849.88,491.09L849.9,491.94L849.91,492.79L849.92,493.64L849.93,494.48L849.93,495.33L849.93,496.18L849.93,497.03L849.92,497.88L849.9,498.73L849.89,499.58L849.87,500.42L849.84,501.27L849.82,502.12L849.79,502.97L849.75,503.82L849.71,504.67L849.67,505.52L849.62,506.36L849.57,507.21L849.52,508.06L849.46,508.91L849.39,509.76L849.33,510.61L849.26,511.46L849.18,512.3L849.1,513.15L849.02,514L848.93,514.85L848.84,515.7L848.74,516.55L848.64,517.4L848.54,518.24L848.43,519.09L848.31,519.94L848.2,520.79L848.1,521.47L848.03,521.98L847.98,522.33L847.95,522.5L847.9,522.8L847.84,523.23L847.75,523.77L847.64,524.45L847.52,525.16L847.38,525.93L847.24,526.73L847.08,527.58L846.92,528.43L846.75,529.28L846.58,530.12L846.41,530.97L846.23,531.82L846.04,532.67L845.85,533.52L845.65,534.37L845.45,535.2L845.24,536.03L845.04,536.84L844.83,537.65L844.67,538.26L844.56,538.69L844.5,538.92L844.49,538.97L844.42,539.21L844.29,539.66L844.1,540.31L843.85,541.16L843.6,542L843.34,542.85L843.07,543.7L842.8,544.55L842.52,545.4L842.23,546.25L841.93,547.1L841.63,547.94L841.4,548.59L841.24,549.03L841.15,549.27L841.14,549.3L841.05,549.53L840.88,549.95L840.63,550.57L840.31,551.39L839.96,552.21L839.61,553.04L839.24,553.88L838.86,554.73L838.54,555.44L838.28,556.01L838.08,556.44L837.94,556.73L837.76,557.08L837.54,557.51L837.29,558L837,558.56L836.66,559.19L836.26,559.9L835.81,560.67L835.31,561.52L834.92,562.18L834.64,562.65L834.48,562.93L834.42,563.01L834.24,563.27L833.94,563.69L833.52,564.29L832.97,565.05L832.49,565.71L832.06,566.27L831.7,566.73L831.39,567.09L831.04,567.48L830.64,567.9L830.19,568.36L829.7,568.85L829.24,569.28L828.81,569.66L828.43,569.99L828.07,570.26L827.6,570.55L827,570.86L826.27,571.19L825.42,571.54L824.58,571.74L823.73,571.81L822.88,571.73L822.03,571.51L821.3,571.25L820.68,570.94L820.18,570.58 M531.62,529.11L531.21,529.01L530.79,528.89L530.37,528.74L529.94,528.58L529.5,528.4L528.96,528.14L528.32,527.78L527.58,527.34L526.73,526.81L526.05,526.38L525.54,526.04L525.19,525.81L525.01,525.67L524.71,525.4L524.29,525.02L523.74,524.51L523.07,523.89L522.52,523.36L522.08,522.93L521.76,522.61L521.56,522.39L521.25,522.02L520.83,521.48L520.3,520.79L519.66,519.94L519.17,519.3L518.85,518.87L518.68,518.65L518.68,518.64L518.56,518.43L518.32,518L517.96,517.37L517.49,516.53L517.06,515.69L516.67,514.85L516.32,514L516.01,513.15L515.76,512.43L515.57,511.82L515.44,511.33L515.37,510.97L515.32,510.57L515.28,510.15L515.25,509.7L515.23,509.21L515.22,508.82L515.22,508.51L515.23,508.3L515.25,508.18L515.39,507.91L515.67,507.48L516.08,506.91L516.61,506.18L517.09,505.62L517.51,505.21L517.88,504.97L518.2,504.88L518.64,504.84L519.2,504.84L519.89,504.88L520.71,504.97L521.33,505.03L521.75,505.08L521.98,505.11L522.01,505.11L522.25,505.21L522.69,505.4L523.34,505.67L524.18,506.03L525.01,506.42L525.8,506.84L526.57,507.29L527.32,507.77L527.9,508.15L528.32,508.43L528.59,508.61L528.69,508.69L528.98,508.94L529.46,509.36L530.12,509.96L530.97,510.73L531.6,511.3L532.03,511.69L532.24,511.88L532.24,511.89L532.42,512.1L532.76,512.52L533.28,513.16L533.97,514L534.52,514.7L534.95,515.25L535.24,515.64L535.4,515.88L535.6,516.22L535.85,516.64L536.14,517.16L536.47,517.76L536.79,518.43L537.1,519.15L537.4,519.94L537.7,520.79L537.93,521.64L538.09,522.49L538.2,523.34L538.23,524.18L538.12,525.03L537.85,525.88L537.42,526.73L536.85,527.58L536.39,528.22L536.06,528.67L535.85,528.91L535.77,528.95L535.49,529L535.02,529.05L534.37,529.11L533.52,529.17L532.78,529.2L532.15,529.18L531.62,529.11 M168.14,461.16L167.53,461.08L167.02,460.98L166.59,460.84L166.26,460.68L166.02,460.48L165.74,460.17L165.41,459.75L165.04,459.21L164.62,458.55L164.23,457.85L163.87,457.1L163.53,456.3L163.22,455.45L162.96,454.7L162.74,454.04L162.58,453.48L162.45,453.01L162.34,452.57L162.24,452.15L162.15,451.74L162.06,451.36L161.96,450.86L161.85,450.24L161.72,449.51L161.58,448.66L161.44,447.81L161.32,446.96L161.21,446.12L161.11,445.27L161.01,444.42L160.93,443.57L160.86,442.72L160.79,441.87L160.73,441.02L160.68,440.18L160.63,439.33L160.6,438.48L160.57,437.63L160.54,436.78L160.52,435.93L160.51,435.08L160.51,434.24L160.51,433.39L160.51,432.54L160.53,431.69L160.54,430.84L160.57,429.99L160.59,429.14L160.63,428.3L160.67,427.45L160.71,426.6L160.76,425.75L160.82,424.9L160.88,424.05L160.94,423.2L161.01,422.36L161.09,421.51L161.17,420.66L161.25,419.81L161.34,418.96L161.43,418.11L161.53,417.27L161.64,416.42L161.75,415.57L161.86,414.72L161.96,413.98L162.05,413.36L162.12,412.84L162.18,412.44L162.24,412.03L162.31,411.6L162.38,411.17L162.45,410.72L162.54,410.17L162.66,409.53L162.79,408.78L162.94,407.93L163.1,407.08L163.26,406.23L163.42,405.39L163.59,404.54L163.77,403.69L163.95,402.84L164.13,401.99L164.32,401.14L164.52,400.29L164.72,399.45L164.92,398.6L165.13,397.75L165.3,397.06L165.43,396.53L165.53,396.16L165.58,395.94L165.67,395.63L165.78,395.2L165.93,394.67L166.1,394.04L166.29,393.35L166.5,392.6L166.73,391.81L166.98,390.96L167.24,390.11L167.5,389.26L167.76,388.41L168.03,387.57L168.27,386.81L168.49,386.16L168.67,385.6L168.83,385.14L168.98,384.69L169.12,384.27L169.26,383.86L169.4,383.48L169.58,382.98L169.8,382.36L170.07,381.63L170.38,380.78L170.7,379.93L171.03,379.08L171.36,378.23L171.69,377.38L171.96,376.71L172.16,376.21L172.29,375.88L172.36,375.72L172.48,375.43L172.66,375.01L172.9,374.45L173.19,373.76L173.51,373.02L173.85,372.25L174.22,371.44L174.6,370.59L174.93,369.87L175.21,369.27L175.43,368.79L175.6,368.44L175.78,368.05L175.99,367.63L176.21,367.17L176.46,366.67L176.75,366.09L177.09,365.41L177.48,364.65L177.92,363.81L178.29,363.09L178.6,362.52L178.83,362.07L178.99,361.77L179.19,361.4L179.43,360.98L179.7,360.5L180,359.95L180.36,359.33L180.76,358.64L181.21,357.87L181.71,357.02L182.1,356.36L182.37,355.9L182.53,355.64L182.57,355.57L182.73,355.32L183,354.89L183.38,354.29L183.87,353.52L184.33,352.8L184.75,352.14L185.14,351.55L185.5,351.02L185.82,350.54L186.11,350.11L186.36,349.74L186.58,349.43L186.89,348.98L187.31,348.4L187.83,347.68L188.45,346.83L188.91,346.19L189.23,345.76L189.39,345.53L189.41,345.52L189.58,345.29L189.91,344.87L190.4,344.24L191.05,343.41L191.59,342.73L192.02,342.19L192.33,341.81L192.52,341.57L192.8,341.24L193.16,340.81L193.6,340.3L194.13,339.69L194.6,339.14L195.02,338.65L195.4,338.23L195.73,337.87L196.09,337.48L196.48,337.05L196.91,336.6L197.37,336.11L197.81,335.65L198.23,335.21L198.64,334.79L199.03,334.4L199.44,334L199.87,333.57L200.33,333.13L200.81,332.67L201.26,332.24L201.69,331.85L202.08,331.48L202.45,331.15L202.88,330.77L203.37,330.35L203.91,329.88L204.52,329.36L205.04,328.93L205.46,328.57L205.79,328.3L206.04,328.11L206.43,327.81L206.97,327.4L207.67,326.88L208.52,326.25L209.17,325.77L209.61,325.45L209.85,325.27L209.9,325.24L210.13,325.09L210.55,324.82L211.17,324.42L211.98,323.91L212.73,323.44L213.43,323.01L214.08,322.63L214.68,322.3L215.19,322.02L215.62,321.79L215.95,321.61L216.2,321.49L216.6,321.3L217.15,321.05L217.85,320.75L218.7,320.38L219.55,320.04L220.4,319.72L221.25,319.43L222.1,319.16L222.84,318.94L223.48,318.76L224.01,318.63L224.44,318.54L224.87,318.46L225.29,318.39L225.71,318.32L226.13,318.27L226.66,318.23L227.29,318.21L228.04,318.2L228.88,318.21L229.59,318.23L230.14,318.26L230.55,318.3L230.81,318.34L231.15,318.42L231.58,318.54L232.08,318.7L232.67,318.9L233.31,319.21L234.01,319.63L234.77,320.17L235.58,320.82L236.19,321.32L236.62,321.68L236.85,321.88L236.89,321.93L237.01,322.17L237.21,322.6L237.5,323.21L237.86,324L238.17,324.81L238.4,325.63L238.58,326.47L238.69,327.32L238.76,328.17L238.79,329.01L238.77,329.86L238.71,330.71L238.61,331.56L238.49,332.41L238.34,333.26L238.15,334.11L237.96,334.92L237.75,335.71L237.53,336.47L237.29,337.2L237.11,337.77L236.97,338.2L236.88,338.47L236.83,338.59L236.71,338.89L236.52,339.38L236.24,340.05L235.9,340.89L235.53,341.74L235.15,342.59L234.76,343.44L234.36,344.29L234.04,344.95L233.82,345.42L233.68,345.71L233.63,345.81L233.49,346.07L233.27,346.49L232.95,347.08L232.56,347.83L232.15,348.59L231.72,349.37L231.28,350.16L230.83,350.95L230.49,351.57L230.25,351.99L230.11,352.23L230.09,352.28L229.94,352.53L229.67,352.97L229.29,353.62L228.79,354.47L228.33,355.24L227.92,355.93L227.56,356.53L227.24,357.06L226.95,357.53L226.69,357.95L226.46,358.33L226.27,358.65L225.98,359.11L225.62,359.69L225.18,360.41L224.65,361.26L224.23,361.95L223.9,362.47L223.68,362.83L223.55,363.03L223.36,363.34L223.09,363.76L222.76,364.3L222.35,364.95L221.94,365.62L221.51,366.3L221.08,366.99L220.64,367.7L220.28,368.26L220.02,368.69L219.84,368.97L219.76,369.11L219.56,369.43L219.25,369.92L218.84,370.59L218.31,371.44L217.85,372.17L217.47,372.79L217.17,373.29L216.93,373.67L216.68,374.07L216.42,374.49L216.15,374.94L215.86,375.41L215.52,375.97L215.12,376.63L214.66,377.38L214.15,378.23L213.75,378.89L213.47,379.35L213.31,379.63L213.26,379.71L213.11,379.96L212.85,380.38L212.5,380.98L212.04,381.75L211.6,382.49L211.18,383.21L210.77,383.9L210.38,384.57L210.06,385.12L209.81,385.54L209.63,385.84L209.53,386.02L209.33,386.37L209.04,386.88L208.65,387.57L208.16,388.41L207.73,389.16L207.36,389.82L207.04,390.37L206.78,390.83L206.54,391.27L206.3,391.7L206.07,392.11L205.85,392.5L205.57,393L205.23,393.62L204.83,394.35L204.36,395.2L203.97,395.92L203.66,396.49L203.42,396.93L203.25,397.24L203.05,397.61L202.83,398.03L202.57,398.51L202.28,399.06L201.95,399.67L201.58,400.37L201.18,401.14L200.73,401.99L200.37,402.68L200.09,403.22L199.89,403.59L199.78,403.81L199.61,404.13L199.39,404.56L199.12,405.08L198.8,405.71L198.45,406.4L198.08,407.14L197.68,407.93L197.25,408.78L196.91,409.47L196.64,409.99L196.46,410.35L196.36,410.55L196.21,410.87L196,411.29L195.74,411.83L195.42,412.47L195.08,413.17L194.71,413.92L194.32,414.72L193.91,415.57L193.58,416.27L193.31,416.82L193.12,417.22L193,417.47L192.84,417.81L192.64,418.23L192.39,418.74L192.11,419.34L191.8,420L191.46,420.72L191.09,421.51L190.69,422.36L190.35,423.08L190.07,423.69L189.85,424.17L189.68,424.54L189.5,424.93L189.3,425.36L189.09,425.81L188.87,426.3L188.6,426.87L188.3,427.54L187.95,428.3L187.56,429.14L187.21,429.91L186.9,430.6L186.62,431.2L186.39,431.72L186.17,432.19L185.98,432.61L185.81,432.99L185.66,433.32L185.45,433.78L185.18,434.37L184.85,435.08L184.47,435.93L184.1,436.74L183.75,437.51L183.42,438.23L183.11,438.91L182.85,439.46L182.66,439.89L182.52,440.18L182.44,440.35L182.29,440.69L182.05,441.2L181.73,441.87L181.34,442.72L180.95,443.55L180.56,444.37L180.18,445.16L179.81,445.94L179.52,446.55L179.31,446.97L179.19,447.22L179.16,447.29L179.03,447.55L178.79,448.01L178.46,448.66L178.03,449.51L177.61,450.32L177.2,451.1L176.81,451.83L176.42,452.53L176.11,453.09L175.88,453.52L175.72,453.8L175.63,453.95L175.43,454.28L175.11,454.78L174.67,455.45L174.11,456.3L173.65,457L173.26,457.56L172.97,457.97L172.76,458.23L172.44,458.57L172,459L171.44,459.5L170.77,460.09L170.22,460.55L169.79,460.88L169.49,461.08L169.32,461.16L169.04,461.2L168.65,461.2L168.14,461.16 M372.15,417.27L371.77,417.1L371.37,416.91L370.94,416.7L370.5,416.48L370.03,416.24L369.46,415.93L368.8,415.56L368.05,415.12L367.2,414.61L366.53,414.2L366.03,413.9L365.7,413.7L365.55,413.6L365.26,413.39L364.84,413.09L364.28,412.68L363.58,412.17L362.95,411.71L362.4,411.28L361.91,410.9L361.49,410.56L361.07,410.21L360.65,409.85L360.22,409.48L359.79,409.1L359.34,408.69L358.88,408.27L358.41,407.82L357.93,407.36L357.48,406.91L357.05,406.49L356.66,406.08L356.29,405.7L355.92,405.3L355.53,404.87L355.13,404.43L354.71,403.96L354.3,403.48L353.87,402.98L353.44,402.46L353.01,401.92L352.62,401.44L352.28,401.02L351.99,400.65L351.75,400.34L351.43,399.89L351.01,399.31L350.51,398.6L349.91,397.75L349.67,397.02L349.79,396.41L350.27,395.91L351.1,395.54L351.9,395.35L352.66,395.35L353.38,395.54L354.06,395.91L354.62,396.21L355.04,396.45L355.34,396.61L355.5,396.69L355.83,396.87L356.34,397.13L357.02,397.48L357.87,397.92L358.66,398.33L359.41,398.71L360.1,399.06L360.74,399.39L361.27,399.65L361.69,399.87L362.01,400.03L362.22,400.13L362.59,400.32L363.12,400.58L363.81,400.93L364.65,401.35L365.45,401.75L366.18,402.12L366.86,402.47L367.48,402.79L368,403.05L368.43,403.27L368.75,403.44L368.98,403.56L369.36,403.76L369.9,404.05L370.59,404.43L371.44,404.88L372.2,405.3L372.86,405.66L373.42,405.98L373.9,406.25L374.34,406.51L374.77,406.76L375.17,407L375.54,407.23L376.04,407.54L376.65,407.94L377.38,408.42L378.23,408.99L378.89,409.42L379.35,409.74L379.61,409.92L379.69,409.97L379.94,410.17L380.36,410.53L380.96,411.03L381.74,411.68L382.37,412.21L382.85,412.64L383.19,412.95L383.38,413.15L383.65,413.51L384,414.03L384.42,414.72L384.92,415.57L385.12,416.38L385.02,417.16L384.63,417.89L383.94,418.6L383.2,419.12L382.43,419.46L381.63,419.61L380.78,419.59L379.93,419.53L379.08,419.42L378.23,419.26L377.38,419.07L376.53,418.84L375.69,418.59L374.84,418.31L373.99,417.99L373.26,417.72L372.64,417.48L372.15,417.27 M348.69,395.76L348.17,394.52L347.91,393.69L347.91,393.27L348.08,393.04L348.43,393.01L348.7,393L348.9,393L349.02,393.01L349.07,393.04L349.09,393.27L349.09,393.69L349.06,394.52L348.99,395.76L348.96,396.38L348.69,395.76" fill="#ffffff" fill-opacity="0.9" fill-rule="evenodd" stroke="#ffffff" stroke-width="2.50" stroke-linejoin="round" stroke-linecap="round"/>
</svg>