<svg xmlns="http://www.w3.org/2000/svg" width="1000" height="1000" viewBox="0 0 1000 1000">
<rect width="1000" height="1000" fill="#c8102e"/>
<path d="M518.03,716.01L517.61,715.82L517.19,715.62L516.76,715.41L516.34,715.2L515.91,714.97L515.38,714.66L514.74,714.27L514,713.79L513.15,713.22L512.5,712.78L512.04,712.47L511.77,712.29L511.69,712.23L511.45,712.01L511.02,711.62L510.42,711.07L509.65,710.35L509.04,709.78L508.59,709.36L508.31,709.08L508.19,708.95L507.94,708.63L507.58,708.14L507.1,707.47L506.49,706.63L506.01,705.93L505.64,705.38L505.4,704.99L505.28,704.75L505.13,704.42L504.96,704L504.77,703.48L504.55,702.87L504.39,702.2L504.28,701.47L504.22,700.69L504.21,699.84L504.26,699.08L504.36,698.41L504.53,697.83L504.75,697.34L505.01,696.88L505.3,696.46L505.62,696.07L505.97,695.71L506.35,695.37L506.78,695.04L507.24,694.73L507.74,694.44L508.32,694.16L509,693.89L509.76,693.62L510.61,693.35L511.46,693.12L512.3,692.93L513.15,692.78L514,692.66L514.85,692.56L515.7,692.48L516.55,692.42L517.4,692.38L518.24,692.36L519.09,692.35L519.94,692.36L520.79,692.39L521.64,692.42L522.49,692.47L523.34,692.54L524.18,692.61L525.03,692.7L525.88,692.8L526.73,692.91L527.58,693.03L528.43,693.17L529.28,693.32L530.12,693.48L530.97,693.65L531.82,693.85L532.67,694.05L533.52,694.28L534.37,694.52L535.06,694.71L535.59,694.87L535.96,694.99L536.18,695.06L536.5,695.18L536.93,695.34L537.45,695.55L538.09,695.81L538.77,696.12L539.51,696.48L540.31,696.91L541.16,697.39L541.83,697.78L542.33,698.07L542.66,698.28L542.81,698.39L543.1,698.67L543.53,699.11L544.09,699.71L544.78,700.48L545.31,701.07L545.68,701.49L545.89,701.75L545.94,701.83L546.03,702.11L546.17,702.57L546.36,703.23L546.59,704.08L546.73,704.93L546.77,705.78L546.72,706.63L546.57,707.47L546.43,708.18L546.29,708.75L546.15,709.18L546.02,709.46L545.82,709.82L545.57,710.24L545.24,710.74L544.86,711.3L544.45,711.83L544.03,712.34L543.59,712.82L543.12,713.27L542.63,713.71L542.12,714.14L541.58,714.55L541.02,714.94L540.52,715.28L540.1,715.55L539.75,715.77L539.46,715.92L539.04,716.12L538.47,716.37L537.76,716.66L536.91,716.99L536.06,717.29L535.22,717.55L534.37,717.77L533.52,717.95L532.67,718.09L531.82,718.21L530.97,718.29L530.12,718.35L529.28,718.37L528.43,718.36L527.58,718.33L526.73,718.27L525.88,718.17L525.03,718.05L524.18,717.91L523.34,717.73L522.49,717.52L521.64,717.29L520.79,717.03L519.94,716.74L519.2,716.47L518.56,716.23L518.03,716.01 M670.85,431.22L670.47,430.9L670.07,430.55L669.64,430.17L669.2,429.77L668.72,429.33L668.26,428.9L667.81,428.48L667.37,428.06L666.94,427.65L666.51,427.23L666.08,426.82L665.66,426.41L665.25,426L664.82,425.59L664.39,425.16L663.95,424.73L663.5,424.29L663.07,423.86L662.64,423.44L662.23,423.04L661.83,422.64L661.41,422.23L660.98,421.81L660.53,421.37L660.07,420.91L659.62,420.48L659.2,420.07L658.79,419.68L658.41,419.31L658,418.91L657.55,418.48L657.08,418.03L656.58,417.56L656.12,417.12L655.69,416.72L655.31,416.35L654.96,416.03L654.56,415.65L654.1,415.23L653.59,414.75L653.02,414.23L652.52,413.78L652.1,413.39L651.74,413.07L651.46,412.82L651.08,412.48L650.61,412.05L650.03,411.54L649.35,410.95L648.8,410.46L648.38,410.09L648.08,409.83L647.91,409.68L647.57,409.39L647.07,408.97L646.4,408.41L645.57,407.71L644.95,407.18L644.52,406.82L644.3,406.64L644.28,406.62L644.06,406.44L643.62,406.09L642.98,405.57L642.13,404.89L641.45,404.34L640.93,403.92L640.58,403.64L640.38,403.49L640.08,403.25L639.65,402.92L639.11,402.51L638.45,402L637.85,401.54L637.29,401.11L636.77,400.73L636.31,400.39L635.87,400.06L635.45,399.74L635.04,399.45L634.65,399.16L634.16,398.81L633.57,398.39L632.87,397.89L632.07,397.33L631.45,396.89L631.03,396.59L630.79,396.43L630.75,396.4L630.5,396.23L630.05,395.93L629.41,395.49L628.56,394.92L627.83,394.43L627.21,394.02L626.72,393.69L626.35,393.45L625.95,393.19L625.52,392.92L625.07,392.63L624.6,392.33L624.03,391.97L623.37,391.56L622.62,391.09L621.77,390.57L621.12,390.17L620.68,389.9L620.44,389.75L620.4,389.72L620.16,389.59L619.74,389.34L619.12,388.97L618.31,388.5L617.54,388.05L616.81,387.62L616.12,387.22L615.46,386.85L614.92,386.55L614.49,386.31L614.19,386.13L613.99,386.03L613.64,385.83L613.12,385.55L612.43,385.18L611.59,384.72L610.81,384.31L610.12,383.94L609.49,383.61L608.95,383.32L608.46,383.07L608.04,382.85L607.68,382.67L607.37,382.51L606.93,382.29L606.36,382L605.65,381.65L604.8,381.23L604.02,380.85L603.31,380.5L602.67,380.19L602.09,379.91L601.59,379.68L601.17,379.48L600.82,379.31L600.54,379.18L600.13,378.99L599.56,378.73L598.86,378.41L598.01,378.02L597.18,377.65L596.38,377.29L595.59,376.94L594.83,376.61L594.24,376.35L593.82,376.16L593.56,376.05L593.47,376.02L593.2,375.9L592.73,375.7L592.07,375.43L591.22,375.07L590.37,374.72L589.52,374.37L588.67,374.03L587.83,373.69L587.12,373.4L586.54,373.18L586.11,373L585.81,372.89L585.45,372.75L585.03,372.59L584.54,372.4L583.99,372.19L583.36,371.95L582.66,371.69L581.89,371.41L581.04,371.09L580.19,370.79L579.34,370.48L578.49,370.18L577.64,369.88L576.99,369.65L576.52,369.49L576.24,369.39L576.16,369.36L575.9,369.28L575.48,369.14L574.88,368.94L574.12,368.69L573.34,368.43L572.53,368.17L571.7,367.91L570.86,367.64L570.01,367.37L569.16,367.12L568.31,366.86L567.46,366.61L566.76,366.4L566.2,366.24L565.79,366.12L565.52,366.04L565.18,365.94L564.75,365.83L564.25,365.69L563.67,365.53L563.02,365.35L562.3,365.16L561.52,364.96L560.67,364.74L559.82,364.53L558.98,364.32L558.13,364.12L557.28,363.92L556.43,363.72L555.58,363.53L554.73,363.35L553.88,363.17L553.13,363.01L552.48,362.87L551.92,362.76L551.45,362.67L551.01,362.58L550.58,362.5L550.18,362.43L549.79,362.36L549.29,362.27L548.68,362.16L547.94,362.04L547.1,361.9L546.25,361.76L545.4,361.64L544.55,361.51L543.7,361.39L542.85,361.28L542,361.17L541.16,361.07L540.31,360.97L539.46,360.88L538.61,360.79L537.76,360.71L536.91,360.63L536.06,360.56L535.22,360.5L534.37,360.44L533.52,360.39L532.67,360.34L531.82,360.3L530.97,360.26L530.12,360.23L529.28,360.2L528.43,360.18L527.58,360.17L526.73,360.16L525.88,360.15L525.03,360.16L524.18,360.16L523.34,360.18L522.49,360.19L521.64,360.22L520.79,360.25L519.94,360.28L519.09,360.32L518.24,360.37L517.4,360.42L516.55,360.47L515.7,360.54L514.85,360.6L514,360.68L513.15,360.75L512.3,360.84L511.46,360.93L510.61,361.02L509.76,361.12L508.91,361.22L508.06,361.33L507.21,361.45L506.36,361.57L505.52,361.7L504.67,361.83L503.82,361.96L502.97,362.11L502.26,362.23L501.69,362.32L501.26,362.4L500.97,362.45L500.61,362.52L500.19,362.6L499.7,362.7L499.14,362.81L498.51,362.93L497.81,363.08L497.03,363.25L496.18,363.43L495.33,363.62L494.48,363.81L493.64,364.01L492.79,364.22L491.94,364.43L491.09,364.64L490.24,364.86L489.39,365.09L488.65,365.29L488,365.46L487.46,365.61L487.02,365.74L486.59,365.86L486.16,365.99L485.75,366.11L485.34,366.23L484.82,366.39L484.19,366.58L483.45,366.81L482.6,367.08L481.76,367.35L480.91,367.63L480.06,367.92L479.21,368.21L478.46,368.47L477.79,368.69L477.23,368.89L476.75,369.07L476.3,369.23L475.88,369.38L475.48,369.53L475.11,369.67L474.61,369.86L474,370.09L473.27,370.38L472.42,370.71L471.57,371.05L470.72,371.39L469.88,371.74L469.03,372.09L468.38,372.36L467.93,372.55L467.67,372.66L467.62,372.68L467.38,372.79L466.96,372.97L466.35,373.24L465.55,373.6L464.74,373.96L463.92,374.34L463.09,374.72L462.24,375.12L461.55,375.44L461.03,375.69L460.66,375.86L460.46,375.96L460.15,376.12L459.72,376.33L459.19,376.59L458.54,376.92L457.84,377.27L457.1,377.65L456.3,378.06L455.45,378.51L454.78,378.86L454.27,379.12L453.95,379.3L453.79,379.38L453.51,379.54L453.08,379.77L452.52,380.08L451.83,380.46L451.1,380.87L450.35,381.29L449.58,381.74L448.77,382.2L448.16,382.56L447.73,382.8L447.5,382.94L447.46,382.96L447.21,383.11L446.76,383.38L446.12,383.77L445.27,384.29L444.51,384.75L443.84,385.16L443.26,385.52L442.77,385.83L442.31,386.12L441.89,386.39L441.5,386.64L441.14,386.87L440.66,387.18L440.05,387.58L439.33,388.05L438.48,388.62L437.82,389.05L437.36,389.36L437.08,389.54L437,389.6L436.74,389.78L436.32,390.07L435.72,390.48L434.96,391.01L434.27,391.48L433.66,391.91L433.14,392.28L432.68,392.6L432.25,392.91L431.82,393.22L431.41,393.51L431.01,393.8L430.53,394.16L429.95,394.58L429.28,395.07L428.52,395.63L427.93,396.07L427.5,396.39L427.25,396.58L427.16,396.64L426.88,396.85L426.41,397.21L425.75,397.71L424.9,398.36L424.22,398.87L423.71,399.26L423.36,399.53L423.19,399.66L422.88,399.9L422.46,400.22L421.91,400.65L421.24,401.17L420.63,401.64L420.08,402.06L419.59,402.44L419.17,402.77L418.74,403.1L418.31,403.42L417.89,403.75L417.47,404.07L416.98,404.44L416.4,404.86L415.76,405.34L415.03,405.87L414.46,406.28L414.03,406.59L413.76,406.79L413.63,406.87L413.33,407.05L412.84,407.32L412.17,407.68L411.33,408.14L410.62,408.34L410.05,408.3L409.63,408.01L409.35,407.47L409.21,406.89L409.21,406.27L409.35,405.61L409.63,404.91L409.86,404.34L410.04,403.92L410.17,403.63L410.24,403.49L410.42,403.16L410.7,402.66L411.09,401.99L411.59,401.14L412.03,400.4L412.41,399.76L412.75,399.23L413.03,398.8L413.31,398.38L413.6,397.95L413.89,397.53L414.18,397.11L414.54,396.61L414.96,396.02L415.45,395.36L416.01,394.62L416.44,394.03L416.76,393.61L416.96,393.34L417.05,393.24L417.28,392.95L417.67,392.47L418.21,391.81L418.91,390.96L419.45,390.3L419.83,389.84L420.06,389.56L420.13,389.48L420.35,389.23L420.73,388.81L421.26,388.21L421.94,387.44L422.49,386.82L422.92,386.35L423.21,386.02L423.38,385.84L423.67,385.54L424.07,385.12L424.59,384.57L425.24,383.9L425.77,383.35L426.19,382.91L426.51,382.59L426.71,382.38L427.03,382.07L427.47,381.64L428.02,381.11L428.68,380.47L429.22,379.94L429.64,379.53L429.95,379.24L430.14,379.06L430.46,378.76L430.93,378.34L431.53,377.79L432.27,377.12L432.85,376.59L433.28,376.21L433.54,375.97L433.65,375.87L433.94,375.62L434.42,375.21L435.08,374.65L435.93,373.92L436.58,373.37L437.02,373L437.26,372.79L437.3,372.76L437.53,372.58L437.96,372.23L438.57,371.74L439.38,371.09L440.06,370.55L440.59,370.13L440.98,369.81L441.24,369.62L441.58,369.36L442,369.03L442.51,368.65L443.1,368.2L443.69,367.77L444.26,367.34L444.82,366.93L445.37,366.53L445.86,366.18L446.29,365.87L446.65,365.61L446.94,365.4L447.38,365.1L447.95,364.71L448.66,364.22L449.51,363.64L450.17,363.19L450.64,362.87L450.92,362.68L451.01,362.62L451.27,362.46L451.7,362.18L452.29,361.8L453.04,361.32L453.76,360.86L454.43,360.44L455.06,360.04L455.65,359.68L456.16,359.37L456.58,359.11L456.92,358.9L457.18,358.75L457.59,358.51L458.14,358.19L458.84,357.78L459.69,357.29L460.42,356.87L461.03,356.53L461.52,356.25L461.89,356.05L462.28,355.83L462.71,355.6L463.16,355.36L463.64,355.1L464.21,354.8L464.88,354.45L465.63,354.06L466.48,353.62L467.2,353.26L467.78,352.96L468.23,352.74L468.55,352.58L468.92,352.4L469.34,352.2L469.82,351.97L470.35,351.72L470.96,351.43L471.65,351.12L472.42,350.77L473.27,350.39L474.03,350.05L474.71,349.75L475.3,349.49L475.8,349.28L476.27,349.08L476.69,348.9L477.07,348.74L477.42,348.6L477.89,348.41L478.49,348.18L479.21,347.89L480.06,347.56L480.91,347.24L481.76,346.92L482.6,346.61L483.45,346.31L484.14,346.06L484.68,345.88L485.05,345.74L485.27,345.67L485.59,345.57L486.01,345.43L486.54,345.25L487.17,345.05L487.86,344.83L488.6,344.6L489.39,344.36L490.24,344.11L491.09,343.87L491.94,343.63L492.79,343.4L493.64,343.17L494.45,342.96L495.22,342.76L495.95,342.58L496.65,342.42L497.21,342.28L497.64,342.18L497.93,342.12L498.08,342.08L498.4,342.01L498.9,341.91L499.58,341.77L500.42,341.6L501.27,341.43L502.12,341.27L502.97,341.12L503.82,340.97L504.67,340.83L505.52,340.7L506.36,340.57L507.21,340.45L508.06,340.34L508.91,340.23L509.76,340.13L510.61,340.03L511.46,339.94L512.3,339.86L513.15,339.79L514,339.72L514.85,339.66L515.7,339.6L516.55,339.55L517.4,339.51L518.24,339.47L519.09,339.44L519.94,339.42L520.79,339.4L521.64,339.39L522.49,339.38L523.34,339.38L524.18,339.39L525.03,339.4L525.88,339.42L526.73,339.44L527.58,339.47L528.43,339.51L529.28,339.55L530.12,339.6L530.97,339.65L531.82,339.71L532.67,339.78L533.52,339.85L534.37,339.92L535.22,340L536.06,340.09L536.91,340.18L537.76,340.28L538.61,340.38L539.46,340.49L540.31,340.6L541.16,340.71L542,340.84L542.85,340.96L543.7,341.09L544.55,341.23L545.4,341.37L546.25,341.51L547.1,341.66L547.94,341.81L548.62,341.93L549.13,342.03L549.46,342.09L549.63,342.12L549.92,342.18L550.35,342.26L550.9,342.37L551.58,342.51L552.31,342.66L553.08,342.82L553.88,342.99L554.73,343.18L555.58,343.37L556.43,343.56L557.28,343.76L558.13,343.95L558.98,344.16L559.82,344.36L560.67,344.57L561.52,344.79L562.27,344.97L562.91,345.14L563.44,345.28L563.88,345.39L564.3,345.5L564.73,345.62L565.15,345.73L565.56,345.84L566.09,345.99L566.72,346.16L567.46,346.37L568.31,346.61L569.16,346.85L570.01,347.1L570.86,347.35L571.7,347.6L572.54,347.85L573.35,348.1L574.15,348.35L574.93,348.59L575.54,348.78L575.96,348.91L576.21,348.99L576.27,349.01L576.53,349.09L576.99,349.24L577.64,349.46L578.49,349.74L579.34,350.02L580.19,350.3L581.04,350.59L581.89,350.88L582.7,351.17L583.49,351.44L584.24,351.71L584.95,351.96L585.52,352.17L585.95,352.32L586.23,352.42L586.36,352.47L586.67,352.59L587.16,352.77L587.83,353.02L588.67,353.34L589.52,353.67L590.37,353.99L591.22,354.33L592.07,354.66L592.79,354.95L593.4,355.19L593.87,355.38L594.23,355.53L594.62,355.69L595.04,355.86L595.5,356.05L596,356.26L596.58,356.51L597.25,356.79L598.01,357.12L598.86,357.49L599.65,357.83L600.37,358.16L601.04,358.45L601.65,358.73L602.16,358.96L602.59,359.15L602.92,359.31L603.16,359.42L603.56,359.6L604.1,359.86L604.8,360.19L605.65,360.6L606.45,360.98L607.21,361.35L607.92,361.7L608.59,362.03L609.13,362.31L609.56,362.52L609.86,362.67L610.04,362.76L610.39,362.94L610.9,363.21L611.59,363.57L612.43,364.01L613.21,364.43L613.92,364.8L614.56,365.15L615.13,365.46L615.63,365.73L616.05,365.97L616.4,366.16L616.68,366.32L617.1,366.56L617.67,366.88L618.37,367.29L619.22,367.78L619.94,368.2L620.53,368.55L621,368.82L621.33,369.02L621.71,369.25L622.14,369.51L622.61,369.8L623.12,370.11L623.71,370.48L624.39,370.91L625.14,371.38L625.97,371.92L626.6,372.32L627.02,372.59L627.24,372.73L627.26,372.74L627.48,372.89L627.92,373.19L628.56,373.62L629.41,374.19L630.14,374.69L630.75,375.11L631.25,375.45L631.62,375.71L632.02,376L632.45,376.3L632.9,376.62L633.37,376.96L633.89,377.34L634.47,377.76L635.1,378.23L635.78,378.74L636.33,379.15L636.76,379.47L637.05,379.7L637.22,379.82L637.55,380.09L638.06,380.49L638.74,381.03L639.59,381.7L640.24,382.22L640.69,382.58L640.95,382.78L641,382.83L641.25,383.03L641.67,383.39L642.28,383.9L643.07,384.57L643.71,385.11L644.21,385.54L644.57,385.84L644.77,386.02L645.09,386.3L645.51,386.68L646.05,387.16L646.69,387.74L647.24,388.24L647.71,388.66L648.08,389.01L648.37,389.28L648.73,389.62L649.15,390.02L649.65,390.5L650.21,391.04L650.7,391.52L651.14,391.94L651.51,392.31L651.82,392.62L652.19,392.99L652.61,393.42L653.09,393.92L653.63,394.47L654.1,394.97L654.51,395.39L654.85,395.75L655.12,396.04L655.47,396.42L655.89,396.88L656.39,397.44L656.97,398.08L657.44,398.61L657.82,399.04L658.1,399.35L658.28,399.56L658.58,399.92L659.01,400.42L659.55,401.08L660.22,401.89L660.73,402.5L661.09,402.93L661.28,403.16L661.31,403.2L661.5,403.44L661.84,403.89L662.34,404.54L662.99,405.39L663.52,406.08L663.93,406.61L664.22,406.99L664.38,407.21L664.61,407.53L664.91,407.96L665.28,408.48L665.73,409.11L666.16,409.74L666.58,410.36L667,410.97L667.41,411.59L667.75,412.11L668.02,412.53L668.24,412.86L668.38,413.1L668.62,413.48L668.95,414.02L669.36,414.72L669.87,415.57L670.3,416.29L670.65,416.9L670.92,417.38L671.12,417.73L671.33,418.12L671.55,418.55L671.79,419L672.05,419.5L672.34,420.08L672.66,420.75L673.02,421.51L673.41,422.36L673.76,423.12L674.05,423.8L674.3,424.39L674.5,424.89L674.68,425.36L674.84,425.78L674.98,426.16L675.1,426.51L675.25,426.98L675.41,427.57L675.6,428.3L675.81,429.14L675.88,429.98L675.82,430.8L675.63,431.61L675.3,432.41L674.84,432.89L674.25,433.05L673.53,432.89L672.68,432.41L671.95,431.97L671.34,431.58L670.85,431.22" fill="#ffffff" fill-opacity="0.9" fill-rule="evenodd" stroke="#ffffff" stroke-width="2.50" stroke-linejoin="round" stroke-linecap="round"/>
<path d="M694.25,750.55L693.64,750.12L693.33,749.64L693.33,749.12L693.64,748.55L694.25,747.93L694.77,747.41L695.21,746.99L695.55,746.66L695.8,746.43L696.14,746.13L696.56,745.75L697.07,745.3L697.67,744.78L698.21,744.31L698.7,743.88L699.14,743.51L699.53,743.18L699.93,742.84L700.36,742.48L700.8,742.11L701.26,741.72L701.75,741.31L702.26,740.89L702.79,740.45L703.35,739.99L703.84,739.58L704.26,739.23L704.62,738.93L704.91,738.69L705.32,738.36L705.83,737.94L706.46,737.42L707.2,736.81L707.78,736.33L708.2,735.98L708.47,735.76L708.58,735.67L708.88,735.43L709.36,735.03L710.02,734.48L710.87,733.78L711.52,733.24L711.98,732.86L712.24,732.65L712.31,732.59L712.56,732.39L712.98,732.03L713.58,731.53L714.36,730.88L715.01,730.34L715.52,729.92L715.89,729.61L716.12,729.41L716.45,729.13L716.88,728.77L717.4,728.33L718.01,727.82L718.57,727.34L719.07,726.92L719.51,726.54L719.9,726.21L720.3,725.87L720.73,725.5L721.17,725.12L721.63,724.72L722.11,724.31L722.6,723.89L723.1,723.45L723.62,723L724.09,722.59L724.52,722.22L724.9,721.89L725.22,721.6L725.63,721.25L726.11,720.82L726.67,720.33L727.3,719.77L727.83,719.3L728.25,718.92L728.57,718.64L728.79,718.45L729.13,718.14L729.6,717.71L730.2,717.17L730.92,716.52L731.49,716L731.92,715.61L732.19,715.36L732.32,715.25L732.61,714.98L733.07,714.55L733.69,713.98L734.49,713.24L735.09,712.68L735.52,712.28L735.76,712.06L735.82,712.01L736.07,711.77L736.52,711.35L737.16,710.74L738,709.94L738.63,709.34L739.05,708.94L739.27,708.73L739.28,708.72L739.5,708.51L739.93,708.09L740.57,707.47L741.42,706.64L742.06,706.02L742.49,705.6L742.71,705.39L742.72,705.37L742.94,705.15L743.37,704.73L744,704.1L744.83,703.27L745.46,702.64L745.89,702.21L746.1,701.99L746.12,701.98L746.34,701.76L746.76,701.33L747.38,700.69L748.21,699.84L748.83,699.2L749.25,698.77L749.46,698.55L749.47,698.54L749.67,698.33L750.07,697.9L750.67,697.27L751.47,696.43L752.08,695.79L752.51,695.34L752.74,695.09L752.79,695.03L753.02,694.79L753.41,694.37L753.97,693.76L754.7,692.97L755.28,692.34L755.7,691.88L755.97,691.58L756.09,691.45L756.34,691.18L756.72,690.75L757.23,690.18L757.87,689.46L758.41,688.86L758.83,688.39L759.15,688.03L759.35,687.8L759.64,687.47L760.01,687.05L760.46,686.53L761,685.91L761.48,685.36L761.9,684.86L762.27,684.43L762.58,684.07L762.92,683.67L763.28,683.25L763.66,682.79L764.07,682.31L764.48,681.82L764.9,681.31L765.34,680.79L765.78,680.25L766.18,679.77L766.53,679.34L766.83,678.98L767.08,678.66L767.42,678.25L767.84,677.72L768.35,677.08L768.95,676.34L769.42,675.75L769.76,675.33L769.97,675.06L770.05,674.96L770.27,674.67L770.64,674.19L771.16,673.53L771.81,672.68L772.33,672.01L772.72,671.51L772.96,671.19L773.07,671.05L773.29,670.76L773.61,670.34L774.03,669.78L774.56,669.07L775.03,668.43L775.46,667.86L775.83,667.36L776.15,666.92L776.47,666.49L776.77,666.07L777.08,665.65L777.37,665.24L777.73,664.73L778.16,664.14L778.65,663.45L779.2,662.67L779.62,662.07L779.92,661.64L780.1,661.4L780.14,661.33L780.32,661.07L780.64,660.61L781.08,659.95L781.66,659.11L782.15,658.39L782.55,657.8L782.87,657.33L783.09,657L783.34,656.62L783.62,656.2L783.93,655.73L784.27,655.21L784.65,654.63L785.08,653.97L785.54,653.25L786.05,652.45L786.44,651.84L786.71,651.42L786.87,651.18L786.9,651.13L787.06,650.87L787.34,650.42L787.74,649.77L788.26,648.92L788.73,648.17L789.14,647.5L789.49,646.93L789.78,646.45L790.05,646L790.3,645.57L790.54,645.18L790.76,644.81L791.04,644.32L791.4,643.71L791.82,642.98L792.31,642.13L792.71,641.44L793.03,640.89L793.25,640.49L793.39,640.24L793.58,639.91L793.82,639.48L794.1,638.97L794.44,638.37L794.8,637.71L795.2,636.98L795.62,636.19L796.08,635.35L796.44,634.68L796.69,634.2L796.85,633.91L796.91,633.8L797.05,633.53L797.27,633.11L797.57,632.53L797.95,631.79L798.35,631.02L798.75,630.23L799.16,629.41L799.59,628.56L799.92,627.9L800.15,627.43L800.29,627.16L800.33,627.07L800.45,626.81L800.66,626.39L800.94,625.8L801.31,625.03L801.68,624.25L802.06,623.44L802.45,622.62L802.84,621.77L803.16,621.08L803.4,620.56L803.56,620.2L803.65,620L803.79,619.69L803.98,619.27L804.22,618.73L804.51,618.08L804.81,617.38L805.14,616.63L805.48,615.83L805.84,614.98L806.17,614.22L806.45,613.56L806.69,612.99L806.88,612.51L807.07,612.06L807.24,611.63L807.4,611.24L807.55,610.87L807.75,610.38L807.99,609.77L808.28,609.04L808.61,608.19L808.94,607.34L809.27,606.49L809.59,605.65L809.91,604.8L810.16,604.13L810.34,603.64L810.46,603.34L810.51,603.21L810.6,602.93L810.76,602.51L810.96,601.94L811.22,601.21L811.49,600.46L811.76,599.67L812.05,598.86L812.34,598.01L812.63,597.16L812.91,596.31L813.19,595.46L813.47,594.61L813.69,593.96L813.83,593.51L813.92,593.25L813.94,593.19L814.02,592.94L814.15,592.52L814.34,591.91L814.58,591.13L814.83,590.33L815.08,589.51L815.33,588.67L815.58,587.83L815.83,586.98L816.07,586.13L816.32,585.28L816.56,584.43L816.76,583.69L816.94,583.06L817.08,582.54L817.2,582.13L817.31,581.71L817.42,581.28L817.54,580.85L817.65,580.42L817.79,579.88L817.95,579.24L818.14,578.49L818.36,577.64L818.57,576.8L818.78,575.95L818.99,575.1L819.19,574.25L819.39,573.4L819.58,572.55L819.78,571.7L819.97,570.86L820.14,570.07L820.3,569.35L820.44,568.7L820.57,568.11L820.68,567.6L820.77,567.18L820.84,566.84L820.89,566.58L820.97,566.17L821.08,565.62L821.22,564.92L821.39,564.07L821.55,563.22L821.72,562.37L821.88,561.52L822.03,560.67L822.19,559.82L822.34,558.98L822.49,558.13L822.63,557.28L822.77,556.43L822.91,555.58L823.05,554.73L823.19,553.88L823.32,553.04L823.45,552.19L823.57,551.34L823.7,550.49L823.81,549.73L823.9,549.06L823.98,548.48L824.05,547.99L824.11,547.53L824.17,547.1L824.22,546.71L824.27,546.36L824.33,545.88L824.4,545.28L824.49,544.55L824.6,543.7L824.7,542.85L824.79,542L824.89,541.16L824.98,540.31L825.07,539.46L825.16,538.61L825.25,537.76L825.33,536.91L825.41,536.06L825.49,535.22L825.57,534.37L825.64,533.52L825.71,532.67L825.78,531.82L825.85,530.97L825.91,530.12L825.97,529.28L826.03,528.43L826.09,527.58L826.15,526.73L826.2,525.88L826.25,525.03L826.3,524.18L826.34,523.34L826.39,522.49L826.43,521.64L826.47,520.79L826.51,519.94L826.54,519.09L826.58,518.24L826.61,517.4L826.64,516.55L826.66,515.7L826.69,514.85L826.71,514L826.73,513.15L826.75,512.3L826.77,511.46L826.79,510.61L826.8,509.76L826.81,508.91L826.82,508.06L826.83,507.21L826.83,506.36L826.84,505.52L826.84,504.67L826.84,503.82L826.84,502.97L826.84,502.12L826.83,501.27L826.83,500.42L826.82,499.58L826.81,498.73L826.8,497.88L826.79,497.03L826.78,496.18L826.76,495.33L826.75,494.48L826.73,493.64L826.71,492.79L826.69,491.94L826.67,491.09L826.65,490.24L826.62,489.39L826.6,488.54L826.58,487.7L826.55,486.85L826.52,486L826.5,485.15L826.47,484.3L826.44,483.45L826.41,482.6L826.38,481.76L826.35,480.91L826.32,480.06L826.29,479.21L826.26,478.36L826.24,477.51L826.21,476.66L826.18,475.82L826.15,474.97L826.13,474.12L826.1,473.27L826.08,472.42L826.06,471.57L826.04,470.72L826.03,469.88L826.02,469.03L826.01,468.18L826.01,467.33L826.02,466.48L826.03,465.63L826.06,464.78L826.11,463.94L826.18,463.09L826.26,462.24L826.39,461.47L826.58,460.78L826.89,460.04L827.55,458.84L828.46,460.04L828.95,460.78L829.33,461.47L829.7,462.24L830.05,463.09L830.34,463.79L830.57,464.35L830.72,464.76L830.81,465.02L830.92,465.37L831.05,465.79L831.2,466.29L831.38,466.88L831.57,467.53L831.76,468.24L831.97,469.03L832.2,469.88L832.41,470.72L832.62,471.57L832.82,472.42L833.01,473.27L833.19,474.12L833.37,474.97L833.55,475.82L833.71,476.66L833.86,477.43L833.99,478.12L834.1,478.72L834.2,479.24L834.28,479.72L834.35,480.14L834.42,480.52L834.47,480.84L834.54,481.3L834.63,481.89L834.74,482.6L834.87,483.45L834.99,484.3L835.11,485.15L835.23,486L835.34,486.85L835.44,487.7L835.54,488.54L835.64,489.39L835.73,490.24L835.82,491.09L835.91,491.94L835.99,492.79L836.07,493.64L836.15,494.48L836.22,495.33L836.28,496.18L836.35,497.03L836.41,497.88L836.46,498.73L836.52,499.58L836.57,500.42L836.61,501.27L836.65,502.12L836.69,502.97L836.73,503.82L836.76,504.67L836.79,505.52L836.81,506.36L836.84,507.21L836.86,508.06L836.87,508.91L836.88,509.76L836.89,510.61L836.9,511.46L836.9,512.3L836.9,513.15L836.89,514L836.88,514.85L836.87,515.7L836.86,516.55L836.84,517.4L836.82,518.24L836.8,519.09L836.77,519.94L836.74,520.79L836.71,521.64L836.67,522.49L836.63,523.34L836.59,524.18L836.54,525.03L836.49,525.88L836.44,526.73L836.39,527.58L836.33,528.43L836.27,529.28L836.2,530.12L836.14,530.97L836.07,531.82L835.99,532.67L835.92,533.52L835.84,534.37L835.75,535.22L835.67,536.06L835.58,536.91L835.49,537.76L835.39,538.61L835.29,539.46L835.19,540.31L835.09,541.16L834.98,542L834.87,542.85L834.76,543.7L834.65,544.55L834.55,545.24L834.47,545.79L834.42,546.18L834.39,546.41L834.34,546.74L834.27,547.17L834.19,547.68L834.1,548.3L834,548.97L833.88,549.7L833.75,550.49L833.61,551.34L833.47,552.19L833.32,553.04L833.17,553.88L833.02,554.73L832.87,555.58L832.71,556.43L832.55,557.28L832.39,558.13L832.22,558.98L832.05,559.82L831.88,560.67L831.7,561.52L831.54,562.3L831.39,563.01L831.25,563.65L831.13,564.22L831.02,564.72L830.92,565.15L830.85,565.5L830.78,565.77L830.69,566.19L830.56,566.76L830.39,567.46L830.19,568.31L829.99,569.16L829.79,570.01L829.58,570.86L829.37,571.7L829.15,572.55L828.94,573.4L828.72,574.25L828.5,575.1L828.29,575.87L828.1,576.58L827.93,577.21L827.78,577.78L827.64,578.27L827.52,578.69L827.42,579.05L827.34,579.34L827.22,579.76L827.06,580.33L826.85,581.04L826.61,581.89L826.36,582.73L826.11,583.58L825.85,584.43L825.59,585.28L825.33,586.12L825.07,586.96L824.81,587.8L824.55,588.63L824.35,589.25L824.21,589.68L824.14,589.9L824.14,589.92L824.06,590.15L823.92,590.58L823.7,591.22L823.42,592.07L823.14,592.92L822.85,593.77L822.56,594.61L822.27,595.46L821.98,596.29L821.7,597.08L821.42,597.85L821.16,598.59L820.95,599.18L820.79,599.6L820.7,599.87L820.66,599.97L820.55,600.26L820.37,600.74L820.13,601.4L819.81,602.25L819.49,603.1L819.16,603.95L818.84,604.8L818.51,605.65L818.22,606.38L817.97,607.01L817.77,607.53L817.61,607.94L817.44,608.35L817.27,608.78L817.09,609.21L816.91,609.65L816.69,610.19L816.43,610.84L816.12,611.59L815.76,612.43L815.42,613.25L815.08,614.04L814.76,614.81L814.44,615.54L814.19,616.12L814.01,616.54L813.89,616.81L813.84,616.93L813.71,617.23L813.49,617.71L813.2,618.37L812.82,619.22L812.44,620.07L812.05,620.92L811.67,621.77L811.27,622.62L810.97,623.27L810.76,623.72L810.65,623.98L810.62,624.04L810.5,624.29L810.3,624.71L810.01,625.32L809.64,626.1L809.25,626.91L808.86,627.72L808.45,628.56L808.03,629.41L807.71,630.07L807.47,630.55L807.32,630.85L807.27,630.97L807.13,631.24L806.92,631.66L806.62,632.24L806.25,632.97L805.86,633.74L805.46,634.53L805.03,635.35L804.59,636.19L804.25,636.85L804.01,637.3L803.87,637.57L803.84,637.63L803.71,637.88L803.48,638.3L803.16,638.91L802.73,639.69L802.31,640.47L801.89,641.25L801.46,642.03L801.03,642.8L800.7,643.4L800.47,643.83L800.33,644.07L800.29,644.15L800.14,644.41L799.88,644.87L799.5,645.53L799.02,646.38L798.58,647.15L798.18,647.86L797.81,648.49L797.49,649.05L797.2,649.54L796.95,649.96L796.74,650.32L796.57,650.61L796.31,651.04L795.97,651.61L795.54,652.32L795.03,653.17L794.61,653.87L794.27,654.43L794.02,654.84L793.85,655.11L793.64,655.46L793.37,655.89L793.06,656.39L792.7,656.97L792.31,657.59L791.89,658.26L791.43,658.98L790.94,659.75L790.56,660.35L790.29,660.77L790.13,661.02L790.08,661.11L789.9,661.38L789.6,661.84L789.16,662.5L788.61,663.35L788.13,664.07L787.73,664.68L787.41,665.16L787.17,665.52L786.91,665.91L786.62,666.33L786.32,666.79L785.98,667.28L785.6,667.83L785.18,668.45L784.71,669.13L784.19,669.88L783.79,670.46L783.49,670.88L783.31,671.15L783.24,671.25L783.03,671.54L782.69,672.02L782.22,672.68L781.61,673.53L781.11,674.23L780.73,674.77L780.45,675.15L780.28,675.39L780.04,675.71L779.73,676.14L779.34,676.66L778.89,677.27L778.45,677.87L778.03,678.44L777.62,678.98L777.22,679.51L776.87,679.98L776.54,680.4L776.26,680.78L776.01,681.1L775.67,681.54L775.25,682.09L774.74,682.75L774.14,683.52L773.67,684.12L773.34,684.54L773.15,684.79L773.09,684.87L772.87,685.14L772.5,685.6L771.97,686.26L771.29,687.11L770.75,687.78L770.36,688.27L770.11,688.58L770,688.71L769.77,688.99L769.42,689.41L768.95,689.98L768.36,690.7L767.85,691.31L767.42,691.82L767.08,692.23L766.83,692.53L766.52,692.89L766.16,693.31L765.74,693.8L765.27,694.35L764.83,694.87L764.4,695.36L764,695.82L763.62,696.26L763.25,696.69L762.87,697.11L762.5,697.53L762.14,697.94L761.74,698.39L761.32,698.86L760.86,699.37L760.38,699.9L759.95,700.38L759.57,700.8L759.23,701.17L758.94,701.49L758.58,701.87L758.16,702.33L757.67,702.86L757.11,703.46L756.63,703.98L756.23,704.4L755.92,704.74L755.68,704.98L755.35,705.33L754.93,705.77L754.41,706.31L753.79,706.95L753.28,707.48L752.87,707.9L752.56,708.22L752.36,708.43L752.04,708.75L751.62,709.18L751.08,709.71L750.44,710.36L749.91,710.89L749.48,711.32L749.17,711.63L748.96,711.83L748.64,712.14L748.22,712.56L747.69,713.07L747.05,713.7L746.51,714.22L746.07,714.64L745.73,714.97L745.49,715.2L745.16,715.51L744.73,715.91L744.22,716.39L743.61,716.97L743.07,717.46L742.62,717.89L742.24,718.24L741.94,718.51L741.57,718.85L741.15,719.23L740.66,719.67L740.12,720.17L739.61,720.63L739.13,721.05L738.7,721.44L738.3,721.79L737.89,722.16L737.46,722.53L737.03,722.91L736.58,723.3L736.1,723.71L735.61,724.14L735.1,724.58L734.56,725.03L734.08,725.44L733.66,725.8L733.29,726.11L732.98,726.38L732.56,726.72L732.05,727.14L731.44,727.65L730.72,728.23L730.15,728.7L729.73,729.05L729.45,729.28L729.31,729.38L729,729.63L728.51,730.02L727.84,730.55L726.99,731.22L726.33,731.74L725.86,732.11L725.58,732.33L725.49,732.4L725.23,732.6L724.81,732.92L724.22,733.37L723.46,733.94L722.8,734.44L722.23,734.87L721.77,735.22L721.4,735.49L721,735.78L720.57,736.09L720.12,736.42L719.65,736.76L719.11,737.15L718.51,737.57L717.85,738.04L717.14,738.54L716.57,738.94L716.14,739.24L715.87,739.43L715.73,739.52L715.42,739.73L714.93,740.06L714.26,740.51L713.41,741.08L712.7,741.55L712.13,741.93L711.7,742.21L711.41,742.4L711.05,742.63L710.62,742.9L710.13,743.21L709.58,743.56L708.96,743.95L708.26,744.37L707.5,744.84L706.67,745.34L706.04,745.71L705.62,745.97L705.4,746.1L705.38,746.11L705.15,746.24L704.72,746.48L704.08,746.84L703.23,747.31L702.42,747.76L701.64,748.18L700.89,748.57L700.18,748.93L699.62,749.22L699.19,749.44L698.91,749.58L698.77,749.65L698.46,749.79L697.96,750L697.29,750.29L696.44,750.65L695.65,750.81L694.92,750.78L694.25,750.55 M318.16,519.04L318,518.89L317.71,518.57L317.3,518.07L316.75,517.4L316.08,516.55L315.57,515.9L315.23,515.47L315.05,515.24L315.03,515.22L314.91,514.99L314.68,514.57L314.34,513.94L313.89,513.12L313.46,512.29L313.06,511.45L312.68,510.61L312.33,509.76L312.06,509.09L311.86,508.6L311.74,508.29L311.69,508.15L311.6,507.87L311.47,507.45L311.29,506.88L311.07,506.16L310.86,505.42L310.65,504.63L310.46,503.82L310.26,502.97L310.09,502.12L309.93,501.27L309.79,500.42L309.67,499.58L309.57,498.73L309.49,497.88L309.43,497.03L309.39,496.18L309.37,495.33L309.38,494.48L309.42,493.64L309.48,492.79L309.61,491.94L309.8,491.09L310.05,490.24L310.36,489.39L310.65,488.72L310.9,488.21L311.13,487.88L311.32,487.72L311.61,487.64L311.97,487.64L312.42,487.72L312.96,487.88L313.44,488.08L313.86,488.32L314.23,488.6L314.54,488.92L314.87,489.29L315.21,489.71L315.56,490.19L315.92,490.72L316.3,491.33L316.71,492.02L317.14,492.79L317.59,493.64L317.94,494.29L318.19,494.75L318.32,495.01L318.36,495.08L318.47,495.33L318.66,495.75L318.93,496.35L319.27,497.13L319.61,497.93L319.95,498.74L320.29,499.58L320.62,500.42L320.91,501.18L321.16,501.85L321.37,502.43L321.54,502.92L321.7,503.38L321.85,503.8L321.98,504.19L322.09,504.55L322.24,505.03L322.42,505.64L322.63,506.36L322.87,507.21L323.1,508.06L323.31,508.91L323.51,509.76L323.7,510.61L323.86,511.46L323.99,512.3L324.11,513.15L324.2,514L324.24,514.85L324.24,515.7L324.2,516.55L324.1,517.4L323.9,518.16L323.58,518.84L323.15,519.44L322.61,519.95L321.99,520.24L321.3,520.32L320.53,520.17L319.68,519.81L319,519.5L318.5,519.24L318.16,519.04 M738.77,278.1L738.42,277.93L738.03,277.74L737.61,277.52L737.15,277.28L736.65,277.01L736.06,276.69L735.39,276.31L734.63,275.88L733.78,275.39L733.11,274.99L732.61,274.7L732.28,274.51L732.13,274.42L731.84,274.24L731.42,273.98L730.86,273.63L730.16,273.19L729.48,272.76L728.81,272.33L728.16,271.92L727.52,271.5L727,271.16L726.57,270.88L726.25,270.68L726.04,270.54L725.67,270.29L725.13,269.93L724.45,269.47L723.6,268.9L722.91,268.44L722.38,268.08L722.02,267.84L721.82,267.7L721.51,267.49L721.08,267.19L720.55,266.82L719.9,266.38L719.27,265.94L718.66,265.52L718.07,265.1L717.5,264.7L717,264.35L716.57,264.05L716.22,263.81L715.95,263.61L715.53,263.31L714.97,262.91L714.26,262.4L713.41,261.79L712.76,261.32L712.31,260.99L712.06,260.81L712,260.77L711.76,260.59L711.34,260.27L710.73,259.82L709.94,259.23L709.26,258.72L708.69,258.3L708.24,257.96L707.9,257.7L707.52,257.41L707.09,257.08L706.62,256.71L706.12,256.32L705.59,255.91L705.06,255.48L704.52,255.04L703.96,254.59L703.47,254.19L703.04,253.85L702.69,253.55L702.39,253.3L702.01,252.97L701.52,252.55L700.95,252.03L700.27,251.43L699.72,250.93L699.3,250.55L699,250.27L698.82,250.11L698.54,249.81L698.13,249.39L697.61,248.83L696.98,248.15L696.45,247.57L696.03,247.08L695.71,246.7L695.49,246.42L695.26,246.06L695,245.64L694.71,245.14L694.41,244.58L694.22,243.94L694.16,243.24L694.21,242.46L694.38,241.61L694.54,240.95L694.69,240.48L694.83,240.2L694.97,240.11L695.28,239.98L695.77,239.82L696.44,239.63L697.29,239.41L698.14,239.25L698.99,239.15L699.84,239.1L700.69,239.12L701.53,239.16L702.38,239.23L703.23,239.33L704.08,239.46L704.89,239.6L705.67,239.75L706.41,239.91L707.12,240.08L707.69,240.22L708.11,240.33L708.39,240.4L708.53,240.44L708.85,240.54L709.35,240.7L710.02,240.92L710.87,241.21L711.72,241.51L712.57,241.82L713.41,242.15L714.26,242.5L714.99,242.8L715.61,243.07L716.11,243.29L716.49,243.47L716.9,243.66L717.32,243.86L717.77,244.08L718.23,244.32L718.79,244.61L719.45,244.97L720.2,245.39L721.05,245.87L721.74,246.26L722.28,246.57L722.66,246.79L722.88,246.92L723.2,247.13L723.62,247.4L724.15,247.75L724.78,248.16L725.4,248.58L726.01,249L726.62,249.43L727.22,249.87L727.74,250.24L728.16,250.56L728.5,250.81L728.74,251L729.12,251.31L729.64,251.73L730.29,252.27L731.08,252.93L731.68,253.44L732.11,253.79L732.35,254L732.41,254.06L732.66,254.3L733.11,254.72L733.74,255.33L734.56,256.12L735.19,256.72L735.61,257.13L735.84,257.35L735.86,257.38L736.07,257.6L736.45,258.03L737.01,258.65L737.75,259.47L738.34,260.12L738.76,260.6L739.03,260.9L739.13,261.03L739.35,261.31L739.68,261.73L740.13,262.3L740.68,263.02L741.17,263.67L741.59,264.24L741.95,264.74L742.25,265.16L742.54,265.58L742.82,266.01L743.09,266.43L743.36,266.86L743.68,267.39L744.05,268.02L744.46,268.77L744.92,269.61L745.29,270.32L745.58,270.87L745.79,271.28L745.91,271.54L746.05,271.89L746.22,272.31L746.41,272.82L746.62,273.4L746.81,274.05L746.97,274.77L747.11,275.55L747.22,276.4L747.23,277.17L747.12,277.85L746.9,278.45L746.57,278.96L746.12,279.34L745.53,279.58L744.81,279.7L743.96,279.68L743.11,279.58L742.27,279.41L741.42,279.16L740.57,278.84L739.84,278.55L739.25,278.31L738.77,278.1" fill="#ffffff" fill-opacity="0.9" fill-rule="evenodd" stroke="#ffffff" stroke-width="2.50" stroke-linejoin="round" stroke-linecap="round"/>
</svg>